<?xml version="1.0" standalone="no"?>
<!DOCTYPE svg PUBLIC "-//W3C//DTD SVG 20010904//EN"
 "http://www.w3.org/TR/2001/REC-SVG-20010904/DTD/svg10.dtd">
<svg version="1.0" xmlns="http://www.w3.org/2000/svg"
 width="700.000000pt" height="700.000000pt" viewBox="0 0 700.000000 700.000000"
 preserveAspectRatio="xMidYMid meet">
<metadata>
Created by potrace 1.14, written by Peter Selinger 2001-2017
</metadata>
<g transform="translate(0.000000,700.000000) scale(0.100000,-0.100000)"
fill="#000000" stroke="none">
<path d="M3220 6809 c-663 -59 -1279 -306 -1805 -725 -140 -112 -386 -357
-499 -499 -798 -998 -959 -2332 -423 -3497 95 -205 261 -470 423 -673 112
-140 357 -386 499 -499 626 -501 1388 -757 2180 -732 290 9 476 35 752 106
443 115 864 327 1238 626 140 112 385 357 499 499 404 507 638 1068 718 1725
17 137 17 583 0 720 -80 655 -315 1219 -718 1725 -112 141 -357 386 -499 499
-530 424 -1140 667 -1820 725 -138 12 -407 12 -545 0z m489 -895 c765 -82
1496 -480 1917 -1044 218 -292 377 -728 400 -1095 8 -137 -11 -420 -36 -544
-58 -280 -202 -603 -375 -846 -151 -211 -398 -475 -585 -625 -324 -259 -807
-513 -1198 -629 -237 -70 -703 -153 -867 -153 -123 -1 -445 44 -562 78 -102
29 -241 81 -378 139 -183 79 -230 102 -245 120 -13 17 -13 18 0 13 9 -3 51
-14 94 -23 150 -33 400 -6 747 81 754 189 1413 632 1751 1177 111 177 205 411
250 622 32 146 32 396 0 553 -45 223 -138 438 -269 623 -85 121 -310 344 -433
431 -255 180 -572 321 -895 398 -156 37 -242 46 -573 61 -288 13 -370 10 -665
-21 -100 -10 -221 -22 -269 -25 -89 -7 -178 0 -178 14 0 4 21 23 47 42 26 18
78 59 115 90 77 65 414 252 583 324 231 99 563 192 820 230 220 33 550 37 804
9z"/>
<path d="M2935 5714 c-200 -21 -526 -82 -701 -131 l-99 -28 345 -6 c352 -6
431 -13 680 -60 698 -133 1284 -459 1620 -899 277 -364 401 -765 370 -1200
-39 -548 -358 -1061 -926 -1490 -371 -281 -774 -471 -1306 -615 -98 -27 -176
-50 -174 -52 8 -8 595 59 691 78 524 107 968 307 1390 628 122 92 397 365 487
481 223 290 367 583 428 875 42 200 37 489 -11 729 -117 578 -538 1100 -1130
1396 -254 128 -587 231 -891 275 -99 15 -677 29 -773 19z"/>
<path d="M3817 5004 c-3 -4 32 -31 80 -60 534 -336 818 -744 899 -1296 22
-150 15 -399 -16 -542 -43 -201 -124 -411 -228 -592 l-52 -89 45 49 c25 27 77
96 116 154 148 221 238 442 269 663 16 111 13 349 -5 454 -65 372 -320 761
-651 993 -70 50 -437 272 -448 272 -2 0 -5 -3 -9 -6z"/>
</g>
</svg>
