<?xml version="1.0" encoding="UTF-8"?>
<svg id="Layer_2" data-name="Layer 2" xmlns="http://www.w3.org/2000/svg" viewBox="0 0 790.48 1878.28">
  <defs>
    <style>
      .cls-1 {
        stroke-linecap: round;
        stroke-linejoin: round;
        stroke-width: 2px;
      }

      .cls-1, .cls-2 {
        stroke: #f0ede5;
      }

      .cls-1, .cls-2, .cls-3 {
        fill: #f0ede5;
      }

      .cls-2 {
        stroke-miterlimit: 10;
      }

      .cls-3 {
        stroke-width: 0px;
      }
    </style>
  </defs>
  <g id="Layer_1-2" data-name="Layer 1">
    <g>
      <path class="cls-2" d="M153.7,1071.31c-.35,1.81-1.32,3.75-.96,5.41,3.09,14.23.3,27.97-4.69,41-5.6,14.62-6.82,29.71-7.69,44.95-1.3,22.89-2.92,45.79-3.15,68.69-.2,19.59,1.15,39.21,2.23,58.79.67,12.25,2.14,24.45,3.18,36.68,1.27,14.88,3.59,29.78,3.39,44.65-.25,17.88-2.69,35.73-4.15,53.6-1.87,22.83-3.87,45.65-5.5,68.5-.99,13.92-1.92,27.88-1.96,41.82-.11,34.26,2.21,68.4,5.72,102.49,2.14,20.81,3.19,41.73,4.88,62.59,2.33,28.79,4.61,57.58,7.25,86.34,2.43,26.45,5.36,52.85,7.97,79.28.32,3.24.04,6.53-1.5,10.03-3.44-20.52-7.89-40.94-10.11-61.6-4.13-38.29-6.93-76.73-10.36-115.1-2.46-27.45-5.55-54.85-7.44-82.34-1.87-27.18-3.85-54.46-3.49-81.67.4-30.19,3.11-60.36,5.33-90.5,1.39-18.86,4.69-37.62,5.39-56.49.63-16.87-.9-33.84-1.91-50.74-.98-16.48-2.14-32.97-3.9-49.38-2.78-25.92-2.06-51.85-1.2-77.79.22-6.63,1.34-13.24,1.35-19.86.01-7.25-1.1-14.51-1.12-21.76-.02-6.57.23-13.23,1.34-19.68,1.35-7.83,4.76-15.4,5.39-23.24.92-11.38-2.14-22.56-7.03-32.76-6.87-14.34-14.95-28.1-22.16-42.29-3.35-6.59-6.76-12.76-13.36-16.84-3.01-1.86-5.16-5.12-6.52-6.53-14.05,0-26.61-.2-39.15.16-2.62.08-5.66,1.68-7.67,3.5-9.65,8.68-19.02,17.67-28.46,26.58-3.09,2.92-6.07,5.94-9.74,8.23,18.6-20.86,32.57-46.78,62.2-56.7-7.24-8.63-17.1-12.21-27.62-12.44-10.12-.22-20.3,1.75-30.01,2.71,14.02-11.79,41.28-12.34,57.89-.66,3.8,2.67,7.04,6.14,10.84,8.8,3.88,2.71,8.13,4.89,13.92,8.3-2.56-19.87-18.72-26.66-28.02-39.2,4.03-.86,6.41,2.1,9.09,3.89,3.02,2.02,5.8,4.39,10.63,8.1-11.3-40.82-16.62-80.55-20.95-121.71-11.77,10.7-17.26,26.72-34.76,28.89,1.52-1.77,2.8-3.85,4.59-5.27,14.81-11.71,21.53-27.43,23.4-45.78.56-5.54,3.09-11-.32-16.44,1.15-.95,3.03-1.68,3.35-2.85,2.11-7.64-.82-13.83-9.86-20.34,2.43,8.41,4.61,15.95,6.79,23.49-3.92-7.64-8.03-15.19-11.71-22.94-4.39-9.25-10.32-10.09-17.09-2.54-8.07,9.01-10.16,20.84-15.13,31.29-.93,1.95,1.31,5.53,2.35,8.26,1.09,2.85,2.51,5.58,3.79,8.37-.66.44-1.31.89-1.97,1.33-2.65-2.26-5.3-4.51-8.59-7.31-1.8,4.75-3.5,9.25-5.21,13.75-.34-.06-.67-.13-1.01-.19.6-4.89,1.17-9.79,1.81-14.68,1.29-9.84,2.78-19.67,3.88-29.53,1.45-12.97,6.91-19.61,19.6-22.92,3.17-.83,6.46-1.22,10.44-1.96-2.16-8.88-4.61-17.68-6.41-26.6-4.79-23.81-9.35-47.74-6.73-72.17,1.16-10.83,3.27-21.7,6.36-32.14,5.21-17.58,16.86-29.92,33.49-36.13,0-23.07.02-45.34,0-67.61-.03-22.83-9.22-36.03-30.67-43.76-5.62-2.03-11.5-3.36-17.16-5.3-2.15-.73-4.02-2.27-5.61-4.62,10.27-4.05,19.25.26,28.26,3.49,9.57,3.42,16.22,10.91,23.72,19.38,1.07-6.24,2.51-11.02,2.44-15.78-.03-2.35-2.48-5.04-4.46-6.91-6.99-6.62-14.36-12.85-21.37-19.46-2.31-2.18-3.96-5.06-5.79-7.46,8.36-9.45,12.72-9.02,29.6,2.73-2.71-17.23-10.62-32.14-15.16-48.5,6.26-.88,7.32,3.33,8.89,6.15,6.7,12.03,10.64,25.1,13.06,38.58,1.27,7.05,1.57,14.27,2.36,21.89,4.05-5.11,6-9.33,3.95-16.21-2.56-8.59-2.39-18.07,1.67-27.61,8.01,7.51,7.92,16.65,8.74,27.06,4.44-4.38,7.69-7.92,11.3-11.05,4-3.48,8.15-6.87,12.61-9.7,1.5-.95,4.46-.61,6.18.27.82.42.92,3.74.26,5.27-1.45,3.3-3.6,6.3-5.81,9.99,3.33.81,6.53,1.58,10.77,2.61-2.16,3.51-3.81,6.21-5.8,9.44,5.82,1.91,10.55,5.16,11.74,12.88-11.48,8.11-23.66,7.14-37.07,1.13-1.11,12.46.22,25.1-10.85,35.15-.74-12.41,7.51-23.13.73-34.77-1.07,1.71-2.26,3.32-3.14,5.09-1.92,3.88-2.96,8.44-5.64,11.64-8.44,10.09-6.24,21.27-5.14,32.82,1.7,17.84,2.27,35.79,3.43,53.69.38,5.91,1.09,11.79,1.7,18.24,3.42.24,6.3.43,7.78.53,6.06-5.47,11.18-10.1,16.77-15.14,6.65,9.19-3.86,11.43-5.39,17.08,4.73,3.96,13.6,1.14,16.43,9.39-12.13,5.49-22.8-2.96-35.31-3.69,0,4.3-.28,7.56.04,10.76,3,29.26.54,58.37-1.83,87.54-1.56,19.2-1.9,38.5-2.72,57.76-.04.87.63,1.77.99,2.7,1.31-.75,2.41-1.39,3.51-2.03.42,0,.83,0,1.25,0,12.75-9.45,25.39-19.07,38.32-28.27,4.83-3.43,10.18-6.27,15.61-8.67,5.22-2.3,10.8-2.3,18.01.67-2.63,2.06-4,3.99-5.66,4.28-9.44,1.63-17.41,6.25-25.26,11.36-11.43,7.43-23.05,14.58-34.5,21.97-3.32,2.14-6.35,4.72-9.91,7.4,8.35,18.32,6.66,36.36.38,54.44-.84,2.43-1.03,5.28-.77,7.86,4.63,44.92,9.5,89.81,22.27,133.35,1.36,4.62,4.04,8.94,6.6,13.1,5.18,8.43,10.7,16.66,17.11,26.56-.99-13.55-5.09-24.3-10-34.62-4.75-9.97-10.55-19.44-16.43-30.1,11.99,2.49,34.22,26.92,43.89,47.05,2.83-8.47,1.59-18.11,10.89-25.44-3.34,16.18-6.29,30.48-9.25,44.78.72.26,1.43.53,2.15.79.97-1.31,2.39-2.48,2.85-3.95,3.23-10.47,6.24-21,9.36-31.5.68-2.29,1.53-4.53,2.3-6.8.72.11,1.44.22,2.17.33,0,5.67,0,11.34.01,17.03-3.72,7.98-6.37,16.75-11.48,23.7-5.38,7.32-5.45,14.1-3.04,21.85-.29,5.88-.86,11.75-.8,17.63.05,6.18,1.88,12.24-.69,18.53-1.21,2.97.14,6.6,4.03,9.67,2.25-19.21,4.35-37.07,6.66-56.83-3.93,4.71-6.56,7.87-9.19,11.01,3.63-9.24,6.91-18.63,11.01-27.64,2.68-5.9,4.91-11.58,3.29-18.12.77-.84,1.99-1.56,2.25-2.54,16.69-61.93,30.27-124.55,41.73-187.64,5.45-30.02,11.43-59.95,17.33-90.73-3.25-2.17-6.99-4.67-10.78-7.2-3.37,4.95-1.15,6.63,3.55,7.69-2.67,2.55-4.96,4.73-7.8,7.44,2.25,2.58,4.51,5.17,7.16,8.22-8.1,4.1-10.55-3.13-14.38-6.27-12.52,1.23-19.23,8.72-22.71,20.01-4.24-5.53-4.12-12.9,1.66-18.09,4.98-4.47,11.48-7.24,18.14-11.28.52-2.63,1.33-6.73,2.15-10.85,1.26,3.52,2.52,7.05,3.77,10.58l1.67-.4c1.03-3.04,2.06-6.09,2.96-8.73-2.95-3.97-5.68-4.19-8.64-1.16.93-2.89-.27-4.42-3.11-4.94-13.26-2.47-26.52-2.25-39.44,1.51-3.1.9-5.62,4.49-7.93,7.24-2.31,2.76-4.03,6.02-6,9.06-1.39-10.54,6.86-22.88,17.94-25.3,15.79-3.45,31.63-4.48,46.86,2.93.78.38,1.78.29,3.28.5-6.28-25.09-19.51-45.01-39.85-62.01-1.73,10.88-1.81,21.27-8.22,30.52-13.77-14.65-7.41-31.29-5.6-47.96-10.37,3.86-19.8,9.33-31.93,6.69,5.95-17.49,20.38-21.75,36.04-25.39-13.46-16.88-23.43-34.65-14.8-57.24,10.52,3.68,21.63,26.26,24.33,48.91,3.25-2.29,6.03-4.49,9.02-6.33,9.8-6.02,19.89-9.47,30.98-3.06,7.54,4.36,8.57,9.34,3.47,16.41-4.75,6.57-11.94,8.04-19.16,9.38-2.79.52-5.68.45-8.98.68,25.53,29.61,39.25,57.95,44.29,92.69,2.11-4.5,3.74-7.15,4.63-10.03,5.21-16.83,10.06-33.77,15.4-50.56,4.72-14.85,5.78-29.75,3.92-45.26-1.45-12.06-3.36-24.45,2.12-36.37.92-2.01.08-5.18-.7-7.57-4.18-12.72-12.3-22.73-22.24-31.41-3.23-2.82-6.51-5.59-10.22-8.77,13.41.81,27.66,14.67,41.86,41.05.82-9.86,1.43-17.76,2.15-25.65,2.63-28.76,5.08-57.54,8.03-86.27,1.3-12.67,5.41-24.59,13.58-35.66-7.03-3.2-13.53-6.15-20.69-9.41-2.31,13.36-4.77,26.38-12.18,37.66-2.54,3.87-5.3,7.65-8.4,11.08-3.44,3.8-7.11,3.25-7.77-1.62-1.11-8.11-1.82-16.55-.83-24.62,1.55-12.68,6.72-24.3,14.76-34.75-7.67-16.49-10.62-33.62-5.68-51.34,1.77-6.34,4.55-12.66,12.25-15.48,9.42,10.08,14.65,22.22,16.67,38.37,2.1-4.02,3.14-6.1,4.26-8.14,4.93-9.02,9.6-18.2,14.98-26.94,1.87-3.04,4.57-7.05,9.38-4.79,5.61,23.31-5.15,41.77-17.14,59.86,20.3,6.72,38.54-13.05,36.46-39.23-6.21,6.61-12.47,13.27-18.72,19.92-.75-.56-1.51-1.11-2.26-1.67.41-1.59.39-3.49,1.29-4.72,5.31-7.23,10.61-14.49,16.43-21.3,1.6-1.88,5.64-3.73,7.35-2.95,2.07.95,4.09,4.78,3.94,7.23-.41,6.54-1.77,13.05-3.22,19.46-.78,3.41-2.55,6.59-4.7,11.92,3.96-2.51,5.96-3.97,8.13-5.12,7.91-4.19,15.77-8.52,23.88-12.28,2.89-1.34,6.48-1.75,9.71-1.62,6.94.3,9.05,4.52,4.62,9.79-3.36,4-7.78,7.16-11.97,10.38-2.6,2-5.64,3.42-9.6,5.76,2.78,1.04,4.68,1.83,6.62,2.46,8.27,2.68,16.53,5.35,22.39,12.39,4.01,4.82,6.38,9.98,3.5,17.02-6.65.3-13.22.6-20.78.94,5.65,5.9,10.9,11.38,17.43,18.2-5.32,1.92-8.74,3.15-12.93,4.66,11.11,9.07,22.84,16.93,28.11,31.37-13.15,2.72-23.19-4.93-34.56-8.54,3.63,6.9,7.98,13.28,10.41,20.33,2.39,6.96,3.54,14.62-.77,23.72-8.24-7.57-15.44-14.17-22.75-20.88-3.8,3.1-4.37,6.94-4.36,11.53.01,9.55-2.63,10.81-11.66,6.18-1.01.68-2.11,1.41-3.19,2.17-9.53,6.69-14.89,4.56-15.04-7.23-.13-10.44.17-21.39,8.74-29.61.72-.69.52-2.33.87-4.17-8.02,3.03-15.33,5.62-22.49,8.6-1.99.83-4.26,2.48-5.09,4.34-5.25,11.84-10.75,23.63-14.92,35.86-2.85,8.36-4.15,17.35-5.32,26.17-1.71,12.83-3.21,25.73-3.77,38.64-.4,9.2.87,18.47,1.32,26.42,6.97,1.33,12.86,2.46,18.63,3.56-1.08-7.73-2.26-16.14-3.72-26.55,16.24,7.94,21.94,20.22,24.06,36.13,1.94-2.01,3.48-3.46,4.86-5.06,4.53-5.28,9.87-10.13,13.24-16.08,3.04-5.36,3.9-11.95,6.21-19.63,3.87,4.8,6.86,8.5,9.63,11.93,7.94-.78,16.11-2.27,24.28-2.22,10.42.06,19.29,4.64,26.35,12.38,3.72,4.08,5.74,8.76,4.58,15.54-1.85-1.18-3.45-1.67-4.18-2.75-8.05-11.85-18.84-18.47-33.47-18.4-4.98.02-9.97-.87-14.93-.74-1.45.04-2.85,2.13-5.1,3.94,8.42,4.07,18.84,3.04,19.62,14.81-12.05,3.31-20.42-3.47-28.06-8.54-7.64,7.65-15.24,15.26-22.65,22.68,0,0,.96.52,1.72.31,14-3.91,26.96,1.1,39.99,4.85,2.52.72,4.48,3.37,6.72,5.14-12.78-1.92-25.4-5.41-38.77-3.96,2.49,2.22,5.2,3.92,8.13,4.46,11.06,2.06,21.87,6.54,34.16,4.77-1.68-2.46-2.76-4.04-3.85-5.61,2.74,1.97,5.49,3.93,8.98,6.44-13.27,8.99-25.05,1.68-37.97.41,3.05,4.05,5.46,7.14,7.75,10.32,2.33,3.24,4.88,6.39,6.69,9.91,2.37,4.58,1.23,9.15-2.2,11.66-3.85,2.83-7.11.79-9.87-1.65-4.49-3.95-8.66-8.25-12.9-12.47-1.84-1.83-3.51-3.83-6.16-6.74-1.33,6.88-2.11,12.66-3.63,18.24-1.21,4.44-2.77,9-5.22,12.82-1.59,2.48-5.02,5.11-7.74,5.25-4.21.21-6.05-4.21-6.39-7.76-.63-6.58-1.01-13.33-.18-19.85,1.04-8.18,3.41-16.19,5.36-25-3.12-.22-5.91-.41-8.79-.61-.56,1.24-1.24,2.08-1.3,2.97-.75,11.44-5.42,21-13.05,29.49-8.45,9.4-16.51,19.16-24.59,28.88-2.04,2.45-3.5,5.38-6.09,9.44,13.49-3.03,23.08-13.79,38.64-11.54-2.9,2.49-3.89,3.85-5.22,4.41-5.5,2.32-10.96,5.66-16.7,6.33-17.2,2.01-24.49,13.69-28.35,28.17-4.11,15.39-7.12,31.1-10.2,46.75-8.8,44.66-17.17,89.41-26.16,134.03-3.8,18.89-8.72,37.57-13.11,56.34-.29,1.23-.45,2.5-.83,4.63,10.68-11.92,14.62-30.21,35.88-30.45-1.53,2.62-2.04,4.81-3.35,5.54-13.91,7.73-21.26,20.97-28.16,34.24-12.82,24.67-20.67,51.11-26.24,78.29-1.06,5.17,1.42,8.19,4.77,11.14h-.02ZM60.02,762.18c2.34-44.12,7.69-86.54,3.63-130.05-2.39,1-3.94,1.47-5.31,2.24-12.68,7.15-19.46,18.64-23.61,32.1-5.71,18.5-4.81,37.48-4.03,56.41.29,7.07,1.7,14.1,2.7,21.95,5.87-5.06,7.15-14.07,16.58-13.54-3.41,8.49-7.29,16.08-9.46,24.12-2.22,8.22.25,16.44,3.61,24.17,3.39,7.78,5.7,16.29,14.83,22.42-.43-4.89-1.71-8.59-.84-11.67,1.98-6.99-.06-12.93-2.5-19.24-2.19-5.65-4.18-11.67-1.04-19.51,2.05,4.01,3.39,6.61,5.43,10.58ZM370.56,459.04c-7.91-12.31-17.08-22.16-32.44-25.59-8.4-1.87-16.4-7.19-23.61-12.32-6.96-4.97-12.85-11.51-18.85-17.7-7.06-7.28-14.62-13.15-26.57-13.08,7.37,9.36,21.99,11.9,21.04,25.81-9.99,3.2-9.81,12.11-13.83,19.99,7.88-4.76,9.05-17.08,20.75-13.34,2.26-1.73,4.71-3.61,7.16-5.49.54.41,1.07.81,1.61,1.22-6.91,15.74-21.6,28.02-23.21,47.36,9.9-.7,17.24-4.66,23.5-9.93,6.13-5.16,11.22-11.55,16.05-16.65,15.44,8.13,31.63,14.32,48.4,19.71ZM307.33,392.98c13.4,7.55,44.01,13.12,54.87,9.98-9.21-14.54-40.42-20.22-54.87-9.98ZM301.79,402.51c15.87,18.36,38.55,28.94,55.6,26.31-16.21-15-36.5-19.35-55.6-26.31ZM200.86,599.64c-14.42-7.64-33.09-2.37-39.72,11.64,10.37,1.22,20.44,1.41,30.28-1.67,4.78-1.5,9.16-3.97,9.44-9.97ZM112.52,994.01c-.79.59-1.58,1.19-2.37,1.78,9.46,17.29,12.49,36.23,15.42,55.26,1.11,7.23,1.93,14.84,6.76,21.06.29-21.77-2.43-43.06-10.29-63.37-2.07-5.34-6.28-9.85-9.51-14.73ZM238.45,446.03c9.32-15.65,13.25-32.49,11.01-50.7-10.78,15.32-14.43,32.22-11.01,50.7ZM323.84,447.84c-4.29,3.32-2.86,6.06-.65,8.23,9.28,9.09,18.73,18.01,28.12,26.99-3.23-16.58-12.15-28.35-27.47-35.22ZM267.79,382.36c14.19-5.94,25.03-27.3,23.68-46.18-10.34,14.67-16.12,30.23-23.68,46.18ZM292.9,631.71c-4.46,14.75-8.82,29.56-3.89,45.25,8.52-14.28,9.3-29.41,3.89-45.25ZM159.05,620.14c7.78,14.32,17.84,26.35,32.59,33.77-6.58-15.33-17.68-26.39-32.59-33.77ZM332.76,665.16c-7.82-14.78-18.69-24.53-30.21-35.62.74,13.15,15.16,30.13,30.21,35.62ZM239.9,686.14c8.73-12.4,17.77-24.6,26-37.32,2.57-3.97,4.56-9.02,3.79-15.04-1.59,1.04-2.65,1.38-3.13,2.1-7.49,11.35-14.82,22.82-22.39,34.11-3.21,4.79-5.12,9.83-4.27,16.16ZM252.34,342.67c-5.52,22.77-4.8,32.97,3.08,43.48,3.42-15.48,2.22-29.47-3.08-43.48ZM153.32,603.76c1.13-14.59-3.95-27.28-11.27-39.29-2.04,14.87,3.59,27.39,11.27,39.29ZM351.73,363.16c-13.66,3.38-26.99,7.53-38.3,16.39,15.06-.13,27.9-5.42,38.3-16.39ZM289.93,622.96c-5.56-11.46-12.14-15.55-20.56-13.17,4.11,14.45,9.13,17.84,20.56,13.17ZM287.51,434.68c-.56-.4-1.13-.8-1.69-1.19-4.29,6.14-10.75,11.76-12.4,18.54-2.94,12.03-2.96,24.78-4.21,37.22.45.09.89.18,1.34.26,2.21-4.76,4.42-9.51,6.83-14.7-6.32-6.49-3.87-13.42-.6-20.1,3.32-6.8,7.13-13.37,10.73-20.03ZM121.93,631.83c14.04-1.86,27.04-10.49,29.36-19.63-11.05,4.85-20.9,10.09-29.36,19.63ZM64.04,499.1c-5.67-12.78-11.11-24.05-25.31-25.77,7.92,8.07,16.12,16.41,25.31,25.77ZM86.83,491.62c10.21,6.52,22.62,8.19,29.61,3.97-8.39-4.91-20.78-6.57-29.61-3.97ZM250.37,572.64c-.93.14-1.85.29-2.78.43,1.02,10.74,2.04,21.48,3.06,32.22,6.23-11.28,2.91-21.96-.28-32.65ZM310.52,497.55c3.89-2.29,5.98-3.51,7.87-4.63-2.26-7.83-4.32-14.95-6.38-22.08-.5.04-.99.08-1.49.12v26.58ZM151.54,633.59c-.79,10.95-2.15,21.95,2.7,32.44-.24-10.87,2.91-22.01-2.7-32.44ZM324.04,482.62c-1.36-8.71-2.11-17.6-7.88-25.01-.31,9.2,2.83,17.39,7.88,25.01ZM203.55,676.68c.46-.26.92-.51,1.39-.77-1.76-3.75-3.38-7.59-5.33-11.24-2.13-3.99-2.26-3.92-9.07-2.32,4.42,4.87,8.72,9.6,13.01,14.33ZM92.22,486.5c7.41-2.05,15.27,3.03,20.07-5.82-7.52-1.58-13.94-1.13-20.07,5.82ZM286.15,590.8c-.77.29-1.55.58-2.32.87,2.32,7.13,4.4,14.38,10.92,19.6-2.87-6.82-5.73-13.65-8.6-20.47ZM75.54,1020.27c-7.78-1.97-14.87-2.31-22.54,4.24,8.86-1.67,15.7-2.96,22.54-4.24ZM170.62,646.27c-3.5-5.1-6.02-8.78-9.01-13.13-2.13,7.68.84,11.07,9.01,13.13ZM141.81,1106.58c.86.08,1.73.16,2.59.24.7-5.72,1.41-11.44,2.11-17.16-.66-.09-1.32-.17-1.97-.26-.91,5.73-1.82,11.45-2.73,17.18ZM263.46,618.04c-.77,4.47-1.24,7.19-1.91,11.09,3.08-1.25,4.76-1.93,7.05-2.86-1.64-2.63-2.92-4.67-5.14-8.24ZM213.69,700.21c-.65,5.87-2.93,10.04,3.37,13.89-1.18-4.86-2.04-8.43-3.37-13.89ZM257.3,395.56c5.48,1.76,8.5,4.73,14.1,3.8-4.4-3.17-6.29-9.21-14.1-3.8ZM337.84,600.18q5.68,4.59,12.97,3.21c-5.59-1.38-9.28-2.3-12.97-3.21ZM79.1,481.45c.21-.02.43-.03.64-.05v-8.06c-.21.01-.43.02-.64.03v8.08ZM97.24,477.25c-.54-.56-1.08-1.11-1.62-1.67-1.26,1.12-2.52,2.25-3.79,3.37.55.58,1.1,1.15,1.65,1.73,1.25-1.15,2.51-2.29,3.76-3.44Z"/>
      <path class="cls-2" d="M153.72,1071.32c-.16-1.91-.87-3.97-.38-5.7,3.59-12.72,7.39-25.38,11.21-38.04.43-1.44,1.41-2.71,2.34-4.46,4.89,3.7,4.15,8.47,2.81,12.1-3.63,9.9-8.12,19.48-12.36,29.15-1.05,2.39-2.43,4.63-3.65,6.93,0,0,.02.01.02.01Z"/>
      <path class="cls-2" d="M72.25,786.39c-.42,0-.83,0-1.25,0,.97-15.79,1.92-31.58,2.96-47.36.03-.44.96-.81,2.51-2.05,4.78,17.49,1.49,33.53-4.22,49.42Z"/>
      <path class="cls-1" d="M133.65,1037.28v5"/>
      <path class="cls-1" d="M133.65,1049.28c1.85,9,1.32,18,0,27"/>
      <path class="cls-1" d="M133.65,1093.28c2,5.67,4,11.33,6,17"/>
      <path class="cls-1" d="M149.65,1807.28c.67,2.33,1.33,4.67,2,7"/>
      <path class="cls-1" d="M151.65,1823.28c2.67,18,5.33,36,8,54"/>
      <path class="cls-1" d="M9.65,501.28h3"/>
      <path class="cls-1" d="M55.65,523.28c8.72,9.06,8.05,20.81,8.93,32.01.7,8.97.74,17.99,1.07,26.99"/>
      <path class="cls-1" d="M179.65,593.28c-6.33,4-12.67,8-19,12"/>
      <path class="cls-1" d="M139.65,717.28c-3.35,4.09-6.67,8.19-6,14"/>
      <path class="cls-1" d="M149.65,1049.28c-1.88,6.21-4.66,12.32-2,19"/>
      <path class="cls-1" d="M153.65,611.28c-9.76-.22-16.8,6.34-25,10"/>
      <path class="cls-1" d="M121.65,629.28c-.77.92-1.53,1.84-2.7,3.24,9.77,4.58,16.26-2.53,23.7-5.24"/>
      <path class="cls-1" d="M161.65,629.28c2.67,3.67,5.33,7.33,8,11"/>
      <path class="cls-1" d="M283.65,412.28c-.67,2-1.33,4-2,6"/>
      <path class="cls-1" d="M29.65,993.28c-7.33,2-14.67,4-22,6"/>
      <path class="cls-1" d="M85.65,779.28c-6.33,4.67-12.67,9.33-19,14"/>
      <path class="cls-1" d="M57.65,765.28l-3-12"/>
      <path class="cls-1" d="M249.65,677.28c-2.33,3-4.83,5.89-6.95,9.03-2.06,3.04-4.95,3.12-8.05,2.97"/>
      <path class="cls-1" d="M389.65,607.28c-.67-1-1.33-2-2-3"/>
      <path class="cls-1" d="M347.65,585.28c-6,.67-12,1.33-18,2"/>
      <path class="cls-1" d="M295.65,363.28l6-9"/>
      <path class="cls-1" d="M317.65,363.28c-1.33,3-2.67,6-4,9"/>
      <path class="cls-1" d="M297.65,403.28c7.36,7.89,15.58,14.69,25,20"/>
      <path class="cls-1" d="M357.65,439.28c1.67,1.33,3.33,2.67,5,4"/>
      <path class="cls-1" d="M329.65,655.28c2.97,3.07,6.85,5.81,4,11"/>
      <path class="cls-1" d="M313.65,655.28c-3.67-3-7.33-6-11-9"/>
      <path class="cls-1" d="M246.65,393.28c-3.67,7.67-7.33,15.33-11,23"/>
      <path class="cls-1" d="M65.65,521.28c-1.67,2-3.33,4-5,6"/>
      <path class="cls-1" d="M215.65,521.28c5,3.33,10,6.67,15,10"/>
      <path class="cls-1" d="M288.65,630.28c.15,9.02-3,17.4-5,26"/>
      <path class="cls-1" d="M75.65,765.28c-1.33,8-2.67,16-4,24"/>
      <path class="cls-1" d="M141.65,589.28c4.79,6.02,5.6,14.77,13,19"/>
      <path class="cls-1" d="M271.65,397.28c-2-2.33-4-4.67-6-7"/>
      <path class="cls-1" d="M245.65,441.28c-3.33,3.33-6.67,6.67-10,10-.33.33-.93.67-.93,1,0,.33.59.67.93,1"/>
      <path class="cls-1" d="M293.65,353.28c-2,3.67-4,7.33-6,11"/>
      <path class="cls-1" d="M273.65,363.28c-.67,1-1.33,2-2,3"/>
      <path class="cls-1" d="M317.65,636.28c5.33.67,10.69,1.2,16,2.03,7.69,1.2,15.34,4.09,23.53-.2-7.41-9.42-18.3-10.4-28.52-12.83"/>
      <path class="cls-1" d="M321.65,625.28c-1-.67-2-1.33-3-2"/>
      <path class="cls-1" d="M107.65,997.28c2,4.33,4,8.67,6,13"/>
      <path class="cls-1" d="M150.65,628.28c-1,6.67-2,13.33-3,20"/>
      <path class="cls-1" d="M147.65,659.28c2,5.33,4,10.67,6,16"/>
      <path class="cls-1" d="M145.65,563.28c1.33,2.33,2.67,4.67,4,7"/>
      <path class="cls-1" d="M150.65,991.28c-.33,3-.67,6-1,9"/>
      <path class="cls-1" d="M147.65,1013.28c-2.33,5-5.43,9.81-6.76,15.06-1.12,4.44-2.93,7-7.24,7.94"/>
      <path class="cls-1" d="M29.65,1039.28c-8.67,9.33-17.33,18.67-26,28"/>
      <path class="cls-1" d="M167.65,1023.28v3"/>
      <path class="cls-1" d="M163.65,1047.28c-3.67,7.67-7.33,15.33-11,23"/>
      <path class="cls-1" d="M339.65,597.28c4.33,2.56,10.79,2.28,12.41,9.84-7.37.78-13.43-2.01-19.35-4.96-.8-.4-.73-2.54-1.06-3.87"/>
      <path class="cls-1" d="M250.65,568.28c-1.33,1.67-3.79,3.32-3.81,5-.08,8.33.48,16.66.81,25"/>
      <path class="cls-1" d="M247.65,607.28c1,1.33,2,2.67,3,4"/>
      <path class="cls-1" d="M333.65,365.28c-3.67,2-7.23,4.23-11.04,5.92-2.47,1.1-5.3,1.41-7.96,2.08"/>
      <path class="cls-1" d="M322.65,440.28c-.67,1.67-1.33,3.33-2,5"/>
      <path class="cls-1" d="M299.65,463.28l-15,6"/>
      <path class="cls-1" d="M269.65,693.28h-3"/>
      <path class="cls-1" d="M249.65,699.28c-6.33,2.33-12.67,4.67-19,7"/>
      <path class="cls-1" d="M45.65,805.28c2.67,6.67,5.14,13.42,8.12,19.95.92,2.01,3.22,3.39,4.88,5.05"/>
      <path class="cls-1" d="M117.65,499.28c-1.67.67-3.33,1.33-5,2"/>
      <path class="cls-1" d="M95.65,499.28c-1-.67-2-1.33-3-2"/>
      <path class="cls-1" d="M312.65,467.28c-4.34-.74-3.32,3.29-3.82,5.05-1.49,5.19-2.18,10.62-3.18,15.95"/>
      <path class="cls-1" d="M61.65,1025.28c-4.18,1.88-8.2,1.7-12-1"/>
      <path class="cls-1" d="M41.65,471.28c-3.3-2.72-5.03.07-7.13,2.19,1.01,1.55,2.07,3.18,3.13,4.81"/>
      <path class="cls-1" d="M53.65,493.28c4.15,2.81,5.48,9.36,12,9"/>
      <path class="cls-1" d="M90.65,482.28c3.67-2,7.33-4,11-6"/>
      <path class="cls-1" d="M169.65,747.28c-3.64,2.74-1.44,6.64-2,10"/>
      <path class="cls-1" d="M140.65,989.28c-1.67,7.33-3.14,14.72-5.1,21.97-.68,2.51-2.56,4.69-3.9,7.03"/>
      <path class="cls-1" d="M327.65,592.28c-2.33,1-4.67,2-7,3"/>
      <path class="cls-1" d="M319.65,596.28l-20,20"/>
      <path class="cls-1" d="M285.65,603.28c-5.2-10.84-5.37-11.69-4-20"/>
      <path class="cls-1" d="M321.65,446.28h6"/>
      <path class="cls-1" d="M351.65,455.28c1,.67,2,1.33,3,2"/>
      <path class="cls-1" d="M361.65,459.28c1,.67,2,1.33,3,2"/>
      <path class="cls-1" d="M215.65,697.28l6,18"/>
      <path class="cls-1" d="M7.65,840.28c-5.83,6.67-6.03,14.8-6,23"/>
      <path class="cls-1" d="M105.65,489.28l-18-3"/>
      <path class="cls-1" d="M157.65,661.28c-1,2.67-2,5.33-3,8"/>
      <path class="cls-1" d="M312.65,459.28c1.67,6.33,3.33,12.67,5,19"/>
      <path class="cls-1" d="M359.65,501.28v-3"/>
      <path class="cls-1" d="M359.65,431.28c-1.67.67-3.33,1.33-5,2"/>
      <path class="cls-1" d="M63.65,977.28c4.33,3.33,8.67,6.67,13,10"/>
      <path class="cls-1" d="M318.65,454.28c1,1.33,2,2.67,3,4"/>
      <path class="cls-1" d="M192.65,712.28c-4.72,6.92-2.43,13.49,1,20"/>
      <path class="cls-1" d="M302.65,420.28c-1,1.33-2,2.67-3,4"/>
      <path class="cls-1" d="M283.65,433.28c-1.33,1.67-2.67,3.33-4,5"/>
      <path class="cls-1" d="M77.65,453.28v3"/>
      <path class="cls-1" d="M76.65,470.28c.67,5,1.33,10,2,15"/>
      <path class="cls-1" d="M115.65,481.28c-1.33,2-2.67,4-4,6"/>
      <path class="cls-1" d="M144.65,1085.28c-1.33,5.33-2.67,10.67-4,16"/>
      <path class="cls-1" d="M95.65,471.28c-2.33,3-4.67,6-7,9"/>
      <path class="cls-1" d="M147.65,1038.28c-6.53,2.4-5.2,9.85-9,14"/>
      <path class="cls-1" d="M159.65,644.28c2.33,1,4.63,2.11,7.01,2.97,2.28.82,4.66,1.37,6.99,2.03"/>
      <path class="cls-1" d="M80.65,467.28c.67,2.33,1.33,4.67,2,7,.67,2.33,1.33,4.67,2,7"/>
      <path class="cls-1" d="M275.65,605.28c3.16.51,4.54,6.37,9,3"/>
      <path class="cls-1" d="M200.65,719.28c-1.5,2.87-3.17,5.72-1,9"/>
    </g>
    <g>
      <path class="cls-3" d="M379.85,964.15c1.34,2.21,3.07,4.26,3.96,6.64,4.67,12.56,6.98,25.63,7.42,39,.11,3.25-.42,6.53-.69,10.26.91-.62,1.85-.93,2.18-1.55,9.03-17.08,17.66-34.29,21.79-53.43,1.08-5.03.37-8.34-3.88-11.05-6.23-3.98-11.49-9.03-16.17-14.74-8.19-9.97-10.09-21.47-8.41-33.85.22-1.62.79-3.24,1.46-4.74,2.91-6.58,7.34-8.36,13.64-5.35,2.06.99,3.86,2.51,5.77,3.77,7.34-7.73,4.93-6.21,13.86-1.61,1.24-4.18,2.44-8.63,8.33-7.68,3.22.52,3.8,1.45,5.12,9.44,2.03-2.63,3.46-4.96,5.36-6.82,3.12-3.06,8.16-2.04,10,1.95,1.42,3.07,1.83,6.2.66,9.66-.87,2.56-.25,4.78,2.77,6.53,5.01,2.9,5.36,8.33,4.41,13.29-.79,4.15-2.44,8.32-4.55,12-6.01,10.48-15.24,17.56-26.1,22.41-4.36,1.95-6.64,4.23-7.29,9.34-1.53,12.06-6.77,22.9-12.82,33.34-5.48,9.47-10.97,18.93-16.53,28.53,2.88,1.28,3.83-1.09,5.24-2.04,7.73-5.2,15.33-10.59,23.03-15.82,8.13-5.52,17.7-7.57,26.78-10.77,1.49-.52,3.32-.4,4.93-.15,1.9.29,2.79,1.63,2.15,3.6-1.61,4.92-4.92,8.66-8.72,11.96-5.84,5.08-12.48,8.94-19.82,11.33-10.43,3.4-20.83,7.19-31.52,9.43-6,1.26-8.66,4.08-10.06,9.32-2.06,7.71-4.11,15.42-6.25,23.11-.7,2.53-.94,5.7-2.61,7.36-6.59,6.55-6.43,14.72-4.92,22.44,2.7,13.85,2.74,27.74,3.02,41.71.31,15.28,1.39,30.55,2.18,45.82.77,14.94,1.41,29.89,2.46,44.81,1.12,15.9,2.58,31.78,4.09,47.64.17,1.75,1.24,4.15,2.62,4.91,8.96,4.92,11.25,13.51,13.09,22.46.71,3.44,1.44,6.88,2.47,11.77,8.24-10.64,15.31-20.23,21.97-30.13,19.31-28.7,33.27-59.89,43.11-92.98.38-1.27.39-2.7.95-3.87,1.81-3.71.61-6.2-2.62-8.42-7.65-5.25-12.6-12.68-16.41-20.97-1.52-3.3-2.71-6.68-2.89-11.12,6.57.46,11.21,4.03,17.27,8.54-4.4-16.35-4.48-31.25-.8-47.09,13.47,8.25,17.37,21.57,21.83,35.58,2.35-3.29,3.81-5.88,5.83-7.91.93-.93,3.25-1.43,4.41-.92,1.14.5,2.37,2.6,2.24,3.86-.39,3.59-1.08,7.25-2.35,10.62-1.94,5.15-4.47,10.09-7.47,16.71,3.52-1.56,5.46-2.56,7.5-3.28,1.9-.67,4.42-1.22,5.06,1.21.39,1.49-.54,4.14-1.78,5.08-3.14,2.4-6.71,4.26-10.25,6.06-1.75.89-3.77,1.4-5.73,1.67-4.07.56-5.34,3.32-6.14,6.8-10.01,43.53-29.1,82.68-56.62,117.81-4.48,5.72-10.15,10.64-12.68,17.77-.99,1.44-1.98,2.88-2.98,4.32-2.24,1.96-4.66,3.75-6.69,5.91-4.84,5.13-8.71,10.86-10.49,17.87-5.55,21.94-10.41,43.95-11.37,66.71-.94,22.23-2.39,44.45-3.97,66.65-1.81,25.51-3.97,50.99-6.02,76.47-1.28,15.88-2.76,31.75-3.88,47.65-.89,12.59-.97,25.25-2.13,37.81-1.75,18.92-1.31,37.89-1.93,56.83-.51,15.28-1.31,30.55-1.99,45.83-.65,14.61-1.32,29.22-1.98,43.83-.45,9.96-1.52,19.94-1.17,29.87.52,14.9,2.04,29.77,3.1,44.66.12,1.64.02,3.3-.86,5.1-1.35-7.13-3.12-14.2-3.98-21.39-3.07-25.84-3.38-51.78-2.27-77.75.07-1.66.16-3.33.2-4.99.68-27.28.8-54.58,2.19-81.82,1.09-21.28,1.88-42.55,1.78-63.85-.06-13.32-1.16-26.59-4.22-39.58-.9-3.83-2.48-7.6-4.34-11.08-1.74-3.26-4.52-5.77-8.64-5.78-1.08,0-2.76,1.35-2.61-.92.07-1.01,1.36-2.46,2.39-2.79,5.08-1.64,10.42.39,13.77,5.5,2.33,3.57,4.05,7.55,6.62,12.45.9-4.56,1.99-8.17,2.28-11.84,1.7-21.19,3.32-42.39,4.76-63.6,1.46-21.54,2.43-43.12,4.09-64.65,1.69-21.84,2.58-43.79,7.51-65.27,1.34-5.83,2.21-11.85,4.24-17.44,5.88-16.17,5.15-32.45,2.5-49.06-.87-5.44-2.23-10.1-5.39-14.63-2.76-3.96-6.09-4.98-10.28-4.08-5.85,1.26-11.62,2.86-17.43,4.29-.92.23-1.88.31-4.97.81,5.28-2.84,8.62-4.83,12.12-6.47,3.29-1.54,6.76-2.73,10.97-4.39-1.16-2.04-1.87-4.18-3.28-5.66-10.82-11.42-23.02-21.17-36.45-29.37q-3.79-2.31-6.98-7.41c2.32.19,4.31.02,6.08.56,6.77,2.06,12.71,5.67,18.25,10.07,9.95,7.91,18.97,16.71,26.67,26.87,1.3,1.72,2.44,4.65,5.31,3.57,3.61-1.35,1.62-4.31,1.42-6.83-1.1-13.91-1.85-27.86-3.09-41.76-1.88-21.17-2.2-42.44-4.92-63.57-1.23-9.53-.73-19.28-1.03-28.93-.45-14.63-.71-29.27-1.5-43.88-.3-5.6-1.44-11.26-3.02-16.65-.77-2.62-2.99-5.33-5.31-6.9-15.2-10.33-26.36-24.28-36.42-39.35-5.36-8.03-10.68-16.14-16.64-23.72-6.56-8.35-13.83-16.14-20.89-24.29,3.44-1.55,5.93,3.38,10.11,1.62-3.32-3.08-6.32-5.87-9.89-9.19q5.89.73,16.47,8.99c.18-9.02-2.44-12.11-17.96-20.9-6.39,3.41-13.15,6.91-21.23,4.92-6.7-1.65-12.43-4.54-16.34-10.42,4.4-8.43,5.21-9.04,18.58-13.84-1.99-4.9-4.01-9.78-5.96-14.69-.73-1.84-1.55-3.71-1.86-5.64-.18-1.16.18-2.95.98-3.58.76-.59,2.52-.3,3.65.11,1.73.63,3.29,1.69,6.24,3.27-.66-3.27-.99-5.13-1.42-6.97-.46-1.93-1.28-3.82-1.46-5.77-.21-2.23-.76-5.17,2.1-5.96,1.52-.42,3.5.83,5.63,1.43.72-3.92,1.23-8.11,2.34-12.14.46-1.68,1.86-3.65,3.37-4.38,2.29-1.11,4.62.14,6.09,2.18,1.93,2.69,3.88,5.43,5.35,8.38,1.65,3.3,2.72,6.66,7.22,7.35,3.24.5,3.75,3.7,3.73,6.32-.1,10.3.41,20.73-1.05,30.86-.98,6.84-.69,13.16.83,19.65.29,1.25.72,2.61,1.48,3.6,9.51,12.28,14.48,26.93,21.19,40.66,7.03,14.38,14.15,28.68,23.49,41.73,2.07,2.9,3.55,6.51,8.15,8-.73-4.8-1.04-9.32-2.17-13.63-1.95-7.46-.3-15.09-1.71-22.63-1.76-9.44-2.93-19.08-3.21-28.67-.19-6.54,1.49-13.14,2.52-19.69.17-1.05,1.28-1.96,2-2.99.9.81,1.79,1.24,1.77,1.63-.34,7.22,2.72,13.52,5.06,20.08,2.9,8.14,5.15,16.51,7.69,24.78.93,3.03,1.9,6.06,4.08,8.83-.48-3.55-1.09-7.08-1.41-10.64-2.32-25.54-3.87-51.12-1.94-76.75.82-10.91,2.24-21.8,3.91-32.62.82-5.3.72-9.57-3.99-13.16-2.27-1.73-3.69-4.58-6.29-7.94,6.25.86,6.62,7.22,11.51,8.32,1.13-2.88,4.95-27.46,6.11-30.4,2.66,1.43-2.08,26.77-1.74,29.71,5.59-2.39,8.26-8.44,16.47-9.59-5.83,4.91-9.85,8.7-14.29,11.9-2.98,2.15-4.56,4.57-4.77,8.19-.6,10.28-1.31,20.55-2.03,30.81-.37,5.3-1.46,10.61-1.2,15.87.75,15.25,1.91,30.48,3.14,45.7.8,9.92,2,19.8,3.18,31.27,1.48-6.86,1.29-11.98.02-17.3-.91-3.81-.33-7.95-.6-11.93-.83-12.27-2.29-24.53-1.39-36.83.33-4.54,1.8-9.01,2.95-13.46.15-.56,1.54-.95,2.41-1.08.33-.05,1.03.77,1.17,1.29,1.12,4.14,2.14,8.3,3.2,12.45-1.63-.72-4.08-2.8-4.03.99.17,13.96-1.15,27.94.82,41.9.6,4.22.07,8.62-.13,12.93-.3,6.26-.77,12.52-1.18,18.97,1.09-.24,1.57-.21,1.71-.41.76-1.07,1.61-2.13,2.12-3.32,5.84-13.8,7.72-28.16,5.42-42.96-1.47-9.5-3.33-18.95-5.01-28.42ZM360.72,1060.2c1.62-11.06-4.42-45.49-10.64-62.94-1.06,22.55,3.39,42.87,10.64,62.94ZM436.85,943.31c7.9-5.7,13.38-12.28,15.87-21.18.86-3.06-.48-5.08-3.52-5.6-5.68-.97-10.9,3.34-11.24,9.23-.32,5.51-.69,11.02-1.1,17.54ZM463.14,1123.99c-2.62,14.99.6,28.92,8.24,43.63.74-16.25-1.72-30.26-8.24-43.63ZM405.96,930.24c-1.97-6.25-3.63-11.13-5.01-16.08-.79-2.83-.95-5.83-1.71-8.67-.47-1.78-1.03-4.29-3.54-3.82-1.29.24-3.02,1.86-3.28,3.12-.73,3.5-.94,7.13-1.08,10.72-.18,4.65,1.25,8.17,6.38,9.68,2.55.75,4.7,2.82,8.24,5.06ZM416.64,944.4c3.3-2.51,4.99-5.75,2.91-8.83-4.37-6.48-6.22-13.76-8.38-21.04-1.01-3.4-3.1-6.25-7.24-7.56-.98,5.03,1.25,8.92,2.52,12.87,2.71,8.4,5.24,16.93,10.19,24.57ZM247.5,962.71c7.97,5.11,15.54,1.88,23.03.23.23-.05.48-2.02.06-2.61-1.31-1.83-2.6-3.77-5.55-3.25-2.59.46-5.31.13-7.9.57-3.53.6-7.01,1.55-9.63,5.07ZM398.16,1031.14c7.25-1.56,25.12-9.45,33.16-14.75,1.1-.73,1.9-1.92,3.79-3.89-12.86,3.5-29.27,11.95-36.95,18.63ZM445.07,896.74c-11.05,7.43-12.05,9.52-9.94,19.78,9.21-5.77,10.25-7.74,9.94-19.78ZM275.6,902.79c-4.49,11.73-3.04,17.1,6.26,24.03.78-8.8-.26-16.73-6.26-24.03ZM431.57,930.47c-7.88,10.14-8.47,11.69-8.37,21.14,2.14-1.36,4.78-2.09,5.66-3.76,2.6-4.9,3.76-10.28,2.71-17.39ZM426.69,912.87c3.22-4.4,3.15-8.41,2.79-12.37-.1-1.11-.96-2.74-1.84-3.03-.89-.29-2.46.51-3.32,1.3-3.22,2.94-3.48,4.21-1.64,7.72,1.06,2.02,2.42,3.89,4.01,6.39ZM383.47,1314.65c3.08,8.02.62,14.81,2.73,21.82,7.34-9.82,7.19-11.55-2.73-21.82ZM290.71,947.79c1.38-10.04,1.13-21.65-.92-28.52-.08,8.15.61,15.02-2.01,21.63-1,2.51.34,4.99,2.92,6.9ZM285.12,957.71c-.3-7.8-4.74-17.55-11.28-24.23,2.81,8.25,5.53,16.54,11.28,24.23ZM419.08,922.06c-.55-6.74.21-13.89-6.36-20.12-.61,8.47,3.19,14.23,6.36,20.12ZM475.91,1168.98c6.26-7.33,9.39-13.97,11.08-23.62-4.92,7.81-10.04,14.15-11.08,23.62Z"/>
      <path class="cls-3" d="M295.6,851.57c-3.11-4.76-6.34-8.94-12.74-9.96-4.23-.67-7.9-3.4-9.68-7.86-1.64-4.11-.5-7.31,3.77-8.69,2.36-.76,11.05-3.81,23.77-1.95.28.04.33.44.07.53-3.31,1.17-16.61,2.28-17,2.58-1.75,1.34-4.98,2.46-5.1,3.87-.28,3.35,3.08,4.68,5.76,5.96,5.14,2.46,6.08,2.4,13.5-.75.12-.05.19-.18.17-.3-.27-1.3-.57-2.73-.85-4.16-1.13-5.6.73-9.13,6.02-10.6,2.54-.7,5.26-.77,9.75-1.32.26-.03.34-.38.11-.52-4.64-2.78-7.8-4.52-10.76-6.56-2.42-1.66-5.07-3.36-6.72-5.68-3.15-4.41-.04-9.98,5.41-9.61,6.33.43,12.35,2.28,17.3,6.62.59.52,1.23.98,2.2,1.71.2.15.5-.03.44-.28-.51-2.46-1.05-4.46-1.21-6.48-.28-3.49,2.29-5.8,5.53-5.26,5.6.95,9.22,5.18,13.37,8.38,2.56,1.97,4.31,4.94,3.96,8.67-.11,1.15.4,2.6,1.1,3.55,2.68,3.64,5.54,7.14,8.4,10.76.11.14.32.14.43,0,1.72-2,3.01-3.85,4.68-5.23,1.74-1.43,2.03-3.14,2.45-5.15,1.65-7.79,3.47-15.56,5.44-23.27,1.94-7.61,6.26-14,11.5-19.64,7.91-8.53,17.7-6.36,21.7,4.6,1.87,5.13,2.2,10.39.6,15.69-.42,1.4-.89,2.78-1.73,5.32-.07.22.15.43.37.35,3.21-1.21,5.35-2.11,7.55-2.8,9.41-2.91,15.76,1.35,16.6,11.18.19,2.19.04,4.42.03,7.27,0,.17.15.31.32.29,2.76-.38,5.4-.99,8.05-1,7.91-.04,11.75,5.69,8.07,12.67-1.96,3.7-4.91,7.18-8.18,9.82-4.7,3.79-8.8,7.78-11.6,13.23-2.2,4.29-5.87,7.25-10.76,8.2-1.03.2-2.16-.15-4.44-.43-.21-.03-.29-.3-.12-.43,2.57-2.07,4.31-3.29,5.78-4.77,2.09-2.1,4.18-4.27,5.85-6.7,1.47-2.14.19-4.85-2.37-5.41-5.37-1.18-10.61-1.78-14.22,3.88-1.06,1.66-2.35,3.44-3.98,4.41-6.97,4.15-10.49,10.75-13.4,17.88-.04.1-.02.22.05.3,1.54,1.78,2.76.06,4.02-.56,3.7-1.82,7.37-3.7,11.17-5.3.28-.12.52.25.3.46-3.96,3.73-15.32,11.59-17.69,12.36-.86.28-2.16.41-2.79-.04-4.18-3.02-17.73-7.34-20.24-12.48,2.33.97,12.49,7.08,15.86,6.32.12-.03.2-.14.21-.26.86-12.29-2.46-24.12-6.7-35.24-.57-1.49-1.72-2.82-2.84-4.01-1.32-1.4-3.06-1.99-4.72-1.21-2.28,1.06-2.89,4.01-1.51,6.11,2.07,3.16,4.57,6.06,6.57,9.26.78,1.25,4.56,6.26,5.74,9.1.1.25-.21.48-.43.32-7.33-5.31-11.54-8.94-12.89-8.98-.2,0-.33.21-.25.39.61,1.45,1.5,5.01,5.08,9.28.2.24-.08.58-.35.42-3.84-2.29-6.15-7.03-7.09-7.96-1.16-1.15-2.01-2.87-3.38-3.49-1.24-.56-3.08-.21-4.48.26-.34.12-.48,2.64.12,3.43,2.4,3.13,5.03,6.11,7.78,8.95,1.3,1.34,4.38,4.9,10.14,11.16.1.11-9.37-6.78-9.51-6.82-4.35-1.37-6.94-4.99-10.04-7.95-.01-.01-.02-.02-.03-.04-3.35-4.82-7.72-9.47-2.17-15.49.1-.1.1-.26,0-.37-4.17-4.62-7.67-9.5-12.18-13.1-4.27-3.41-8.57-8.13-15.62-6.72-.17.03-.28.23-.21.39,2.02,4.71,4.38,8.27,9.08,10.08,1.38.53,2.28,2.29,3.68,3.96.13.16.06.4-.14.45-8.04,2.08-16.17-5.73-22.71,1.98-.04.51-.19.9-.06,1.16,1.4,2.92,4.09,5.86,3.97,8.7-.17,4.2-6.25,2.63-8.2,5.9-.04.07-.05.17-.03.25,1.46,4.75,1.67,7.8,5.46,10.42,5.59,3.52,4.03,2.98,13.3,5.15.17.04-7.39,1.03-7.56.98-5.38-1.48-10.56-5.26-13.91-10.16ZM372.75,818.3c-.17.25-.56.08-.49-.21.45-2.15.78-4.36,1.69-6.29,4.18-8.87,7.22-10.29,17.41-8.2.14.03.29-.06.33-.19.63-2.05,1.36-4.13,1.84-6.26.51-2.27,1.23-4.66.98-6.9-.51-4.58-1.06-9.3-2.6-13.6-1.83-5.12-5.79-6.25-10.44-3.63-4.41,2.49-8.03,5.68-9.96,10.72-4.64,12.17-4.85,24.72-3.76,37.41.08.88,1.6,1.64,2.51,2.45.05.04.07.09.09.15.6,2.88,1.17,5.76,1.8,8.64.56,2.57,1.28,5.12,1.77,7.71.55,2.91,1.02,5.84,1.35,8.78.28,2.55.11,5.2,1.62,8.33.1.2.4.21.5,0,5.85-10.68,10.07-20.81,13.1-31.52,1.28-4.53.26-8.54-1.23-12.49-2.11-5.61-6.68-6.64-10.81-2.43-2.19,2.23-3.87,4.95-5.68,7.54ZM406.79,835.38c-.1.2.06.44.29.42,4.25-.54,7.66-1.59,10.78.45.55.36,2.01-.02,2.66-.55,4.11-3.33,8.19-6.72,12.08-10.3.79-.73,1.22-2.54.9-3.55-.3-.94-1.77-1.95-2.84-2.11-3.26-.48-6.58-.63-9.89-.75-.9-.03-2.21.24-2.67.86-3.55,4.82-7.93,9.08-11.31,15.53ZM408.77,818.93c.11.15.35.15.46,0,1.1-1.52,2.2-2.91,3.13-4.41,2.41-3.9,3.04-8.31.81-12.16-2.33-4.02-6.98-2.68-10.82-2.89-3.06-.17-5.07,1.18-5.83,4.11-.46,1.76-.61,3.59-.87,5.31-.02.13.06.26.19.31,7.26,2.47,7.41,2.57,12.94,9.74ZM390.17,841.05c-.04.22.19.39.39.29,1.29-.58,2.17-.84,2.79-1.4,2.19-1.98,4.32-4.05,6.36-6.19,5.69-5.96,6.28-12.77,1.45-19.38-.79-1.08-2.63-1.65-4.07-1.84-.43-.06-1.62,1.99-1.63,3.07-.04,5.28-.57,10.23-3.22,15.1-1.54,2.82-1.45,6.52-2.08,10.33ZM326.73,799.47c-.19-.12-.45.03-.44.25.28,10.28,7.14,15.79,10.32,22.99,1.21,2.73,4.56,5.26,8.58,6.1.22.05.4-.19.3-.4-5.12-9.98-7.24-21.71-18.76-28.95Z"/>
      <path class="cls-3" d="M342.9,848.01c3.18,3.02,5.81,6.73,10.31,8.04,4.32-.07,4.39,3.91,9.26,6.75-1.23,1.11-3.32,1.11-3.88,2.49-2.36,5.84-7.25,6.59-12.61,7.43-16.98,2.67-32.18-1.74-46.22-11.01-1.9-1.25-3.5-3.06-4.95-4.84-1.52-1.87-.68-3.71.79-5.3,3.43,5,8.7,6.87,14.19,8.36,12.63,0,25.28,1.22,39.37-.18-4.16-4.24-7.39-7.53-10.94-11.16,2.08-.26,3.38-.42,4.68-.58Z"/>
      <path class="cls-3" d="M399.73,1327.75c.99-1.44,1.98-2.88,2.98-4.32,13.01-8.05,26.46-15.25,40.53-21.25,8.6-3.67,17.36-6.62,26.91-6.41,14.77.32,21.77,5.51,26.37,19.57,2.84,8.68,3.3,17.56,2.44,26.55-.11,1.18-1.09,2.28-1.85,3.76-2.45-3.51-2.48-7.02-2.89-10.55-.65-5.57-1.3-11.24-2.92-16.58-3.78-12.44-12.1-17.74-24.96-16.11-5.57.7-11.23,1.72-16.49,3.61-16.23,5.83-32.67,11.29-47.32,20.78-.8.52-1.86.64-2.8.95Z"/>
      <path class="cls-3" d="M305.2,811.58c-1.47.22-14.46-.19-15.39,0-.92.19-1.82.47-3.17.84,1.72,3.43,5.01,4.38,7.45,6.35.79.64,7.41,3.33,7.42,4.48,0,.38-8.01.14-8.74-.02-7.35-1.58-13.75-4.65-17.19-11.9-1.5-3.15-.37-5.23,2.94-5.46,5.44-.38,22.3,1.5,26.68,5.72Z"/>
      <path class="cls-3" d="M335.11,801.65c.88-3.97,8.94-14.94,11.83-15.38,2.86-.43,5.94-.35,8.76.24,1.21.25,2.63,2.24,2.93,3.65.96,4.5-5.3,26.81-9.28,31.35-.85-2.15,5.23-21.5,4.79-23.28-1.06-7.21-1.94-6.91-8.6-6.07-4.04.51-8.57,8.94-10.43,9.49Z"/>
      <path class="cls-3" d="M401.42,867.47c-5.11,7.1-17.61,11.96-28.23,10.96,8.97-6.23,20.85-10.84,28.23-10.96Z"/>
      <path class="cls-3" d="M324.01,844.98c2.96,3.87,14.2,14.87,16.71,18.14-6.1-1.76-19.63-13.15-21.87-18.27-1.23-2.81.33-5.5,3.35-5.75,4.78-.4,20.71,5.98,23.17,11.96-1.02,0,7.02,7.53-6.05-1.63-4.6-3.22-12.36-4.45-15.32-4.45Z"/>
    </g>
    <g>
      <path class="cls-2" d="M603.83,683.9c1.74,1.92,3.62,2.23,6.24,1.5,8.64-2.42,17.38-4.5,26.1-6.62,3.38-.82,6.81-1.78,10.4-.44-7.64,5.89-17.48,4.61-27.08,9.03,23.04,4.53,44.67,9.34,61.25,25.21-.18.84-.36,1.69-.55,2.53-1.99.14-4.26.98-5.93.31-6.79-2.71-13.48-5.73-20.06-8.93-15.7-7.61-32.27-12.37-49.39-15.32-1.51-.26-3.16.27-5.75.54-.17,3.78-.4,7.31-.48,10.85-.08,3.6-.02,7.2-.02,11.7,17.2-4.27,33.77-2.54,50,2.96,1.94.66,3.52,2.35,4.98,4.44-18.31-.2-35.85-6.24-54.64-5.61-.34,2.32-.84,4.52-.95,6.74-.52,10.62-.02,21.4-1.69,31.83-1.32,8.24-2.69,16.22-1.72,24.58,1.84,15.83,3.52,31.67,5.06,47.53.61,6.29.96,12.63.93,18.95-.09,21.65.25,43.34-.78,64.95-1.36,28.53-3.39,57.04-5.98,85.49-3.4,37.36-6.64,74.76-13.49,111.72-2.42,13.07-4.82,26.15-6.78,39.3-1.32,8.85-2.03,17.8-2.71,26.73-1.42,18.72-6.49,36.68-11.64,54.55-5,17.34-7.7,35.04-10.33,52.78-.62,4.19-.09,8.56-.09,13.14,13.88,5.33,23.58,14.34,27.15,28.73,2.34,9.45,2.45,18.81-3.15,27.95-3.37-1.34-3.87-3.78-4.25-6.4-.87-5.92-1.44-11.91-2.82-17.72-2.33-9.85-6.68-18.55-16.63-24.81.35,4.9.86,8.75.87,12.6.07,27.65,1,55.33-.18,82.93-2.14,49.97-.68,99.93-.97,149.9-.14,22.95,1.1,45.9,1.94,68.85.31,8.59,1.28,17.15,2.02,26.7,5.22-2.53,6.52-7.81,9.93-11.05,3.05-2.9,4.54-8.28,11.43-6.54-5.2,10.56-11.64,19.15-20.93,25.92.93,23.74,1.97,47.59,2.78,71.44.82,23.97.24,47.95-2.09,71.8-2.3,23.55-1.59,47.53-8.12,71.95-4.74-3.48-5.14-7.09-5.19-10.52-.15-9.64-.43-19.31.14-28.92.95-15.91,2.85-31.76,3.75-47.66,1.03-18.26,1.93-36.56,1.89-54.83-.04-16.95-1.38-33.89-2.17-50.83-.77-16.61-1.55-33.22-2.35-49.83-1.07-22.25-2.18-44.5-3.23-66.76-.14-2.99-.08-6-.08-9,0-33.99-.26-67.99.08-101.98.25-24.96,1.24-49.91,1.95-74.87.62-21.61,1.25-43.23,2-64.84.26-7.63,1.02-15.25,1.26-22.88.29-8.97.04-17.96.44-26.92.71-15.69,3.41-31.2,8.49-45.96,9.6-27.91,13.29-56.92,17.52-85.83,3.65-24.96,6.57-50.04,9.41-75.11,1.31-11.55,1.63-23.2,2.46-34.81,1.26-17.56,2.71-35.11,3.82-52.68,1.04-16.59,1.99-33.2,2.51-49.81.7-22.62,1.69-45.27,1.16-67.87-.45-19.22-2.85-38.4-4.41-57.6-.38-4.63-.84-9.26-1.32-14.56-1.43-.51-3.12-1.1-4.97-1.76-7.88-12.45-6.17-26.7-7.86-40.91-.89,1.55-2.05,3.01-2.61,4.66-3.02,8.8-5.85,17.67-8.86,26.48-.68,2.01-1.81,3.86-3.12,6.57-2.06-7.14-.36-18.72,4.98-29.1,4.37-8.5,9.84-16.43,15.36-25.5-8.41,1.94-12.27,8.84-17.91,13.39-6.19,5-6.94,12.96-11.63,20.09-3.18-9.54-.63-16.55,4.79-22.26,4.07-4.29,9.11-7.76,14.04-11.12,4.28-2.92,9.22-3.4,14.21-2.03-4.19,17.82.86,34.93,2.86,52.26,1.78-10.08,3.79-19.93,3.75-30.33-.07-16.91,1-33.9,2.84-50.73,2.71-24.76,6.67-49.37,9.8-74.09.87-6.91.62-13.96.97-20.94.36-7.29,1.35-14.6,1.13-21.87-.31-10.28-1.2-20.56-2.33-30.79-2.33-21.12-5.08-42.2-7.46-63.32-3.97-35.32-7.66-70.67-14.05-105.66-.58-3.17-1.54-6.28-2.6-10.56-5.92,4.82-11.1,9.03-15.86,12.9-9.62-4.29-10.09-5.53-7.01-17.49-24.59-13.48-47.09-29.75-61.18-58.08-1.5,8-2.58,13.8-3.67,19.6-.4-.05-.81-.09-1.21-.14.4-8.09.81-16.18,1.31-26.15-.8-2.19-2.27-6.23-3.9-10.73-7.01-1.54-12.29-5.9-16.61-11.58,5.12,2.85,10.24,5.71,15.37,8.56-3.05-6.98-7.64-10.82-15.22-8.5-1.36-.68-2.72-1.36-3.26-1.64.96-2.18,1.72-3.9,2.48-5.62l-.32.18c1.68,1.09,3.37,2.17,5.05,3.26-1.76-7.12-4.57-13.31-7.67-19.35-1.47-2.86-3.47-5.44-5.24-8.15l-.17.24c.97-3.35,1.95-6.7,2.99-10.28,7.02-4.27,12.09.56,17.62,4.45,1.28-1.53,2.4-2.88,3.53-4.23-.37,2.58-.74,5.16-1,7.04,3.59,7.46,6.88,14.3,10.6,22.04,3.41-11.24,2.87-21.24-2.5-31.88-2.83,1.2-5.12,2.16-7.4,3.13-.28-4.33,1.88-7.18,5.95-7.86,4.09-.69,6.79,1.82,8.66,5.35,1.82,3.43,3.82,6.77,5.74,10.14-2.06,6.84-2.32,19.06-.28,24.95,6.26-7.91,12.56-15.24,11.12-27.23-3.79.56-6.6.98-9.41,1.4,2.47-5.58,7.01-5.15,11.64-4.34,5.83,4.73,5.41,10.59,3.66,16.56-3.59,12.24-10.89,21.95-20.92,29.69-1.83,1.41-3.73,2.73-6.48,4.73,3.71,6.7,7.34,13.24,11.68,21.08,3.84-12.5,6.95-23.76,15.09-32.87-.48,1.76-.8,3.58-1.47,5.27-3.19,8.04-6.24,16.15-9.83,24.02-2.08,4.57-1.63,8.48,1.41,12.05,5.6,6.58,10.85,13.62,17.29,19.27,9.2,8.07,19.34,15.07,29.11,22.55,6.46-5.61,12.11-10.51,18.94-16.43,1.92-3.98.71-9.66-.24-15.17-4.39-25.24-7.39-50.6-7.86-76.26-.15-8.26-1.45-16.5-2.2-24.5-5.85-5.43-11.37-10.74-17.1-15.79-2.48-2.19-5.34-3.99-8.18-5.72-6.18-3.77-12.54-4.02-18.95-.47-1.72.95-3.45,1.89-5.49,3.01,3.79-9.3,11.84-13.4,20.92-10.78,6.85,1.98,12.64,5.88,17.83,10.69,2.65,2.45,5.23,4.99,9.03,8.63,1.01-8.53-1.58-15.38-1.8-22.33-.23-7.27-1.03-14.53-1.65-22.65-9.77,5.15-16.64,13.99-26.98,16.57q-5.39-4.55-1.82-13.73c-7.3-4.87-8.78-12.61-9.52-20.74-.47-5.25-1.18-10.48-1.71-15.07-9.41,3.02-18.44,6.2-27.63,8.77-6.77,1.89-13.31.13-19.02-3.75-6.96-4.73-7.43-11.61-1.53-17.71,6.51-6.73,14.83-10.02,23.76-11.85,5.14-1.05,10.41-1.51,15.77-2.26-2.83-5.87-5.98-11.35-8.14-17.2-2.06-5.57-3.2-11.49-4.51-17.31-.94-4.18.81-7.12,4.9-8.57,11.53.17,16.56,9.7,23.75,16.56-2.18-10.46.88-21.3-4.67-31.25-2.84-5.1-1.02-16.37,1.89-21.99,6.96,2.47,13.92,4.95,20.87,7.42.96-4.4,1.93-8.8,2.94-13.41,11.42.42,11.75,11.68,18.91,16.6,1.03-1.88,2.19-3.65,3-5.56,2.21-5.21,4.04-10.59,6.48-15.68,1.99-4.15,4.16-8.54,10.84-8.84,10.04,6.96,3.88,19.42,8.2,28.92,5.05-2.91,6.89-8.01,9.8-12.26,4.56-6.68,6.43-7.31,15.5-5.23,2.36,9.06-2.34,18.17-.36,28.27,4.4,2.51,11.42,4.54,8.07,13.47,7.98-.44,15.82-2.81,22.5,3.53,2.51,5.84,1.41,11.53-2.84,16.38-4.15,4.73-8.78,9.05-13.28,13.47-2.09,2.05-4.35,3.92-6.73,6.04,11.5,4.7,12.63,11.33,3.55,18.91-3.24,2.7-6.93,4.88-10.68,7.49,2.59,2.07,4.85,3.88,7.08,5.66-.47,7.03-6.35,8.34-11.07,11.7.8,3.79,1.75,8.03-1.9,11.58-3.7,3.6-8.14,4.5-12.89,4.08-6.21-.54-12.39-1.49-18.88-2.3-.93,3.38,3.2,7.67-1.95,10.97-6.74-3.25-9.3-10.42-14.27-17.2-1.48,5.86-1.54,10.79-1.47,15.81.28,21.31,3.38,42.36,5.67,63.49.64,5.94.74,11.96.87,17.95.59,27.3,4.46,54.26,8.33,81.22.32,2.23,1.24,4.37,1.92,6.68,1.22-.24,2.14-.42,3.07-.6,1.14,1.11,2.27,2.22,3.24,3.16,12.64-5.12,23.08-18.66,26.77-35.59-3.7,3.88-6.35,6.57-8.9,9.35-7.12,7.76-14.21,15.56-21.31,23.34,1.34-9.7,4.84-18.71,10.04-26.85,8.23-12.88,16.67-25.66,25.74-37.95,11.05-14.97,22.85-29.39,35.01-44.91,0-2.21.11-5.5-.02-8.79-.44-11.47,1.66-22.51,5.88-33.11,1.33-3.35,3.16-6.64,5.36-9.49,2.63-3.41,6.22-4.96,10.79-2.49,4.65,6.36,3.47,13.59,1.66,22.57,2.8-2.39,4.39-3.62,5.84-5.01,3.12-3,6.04-6.2,9.26-9.09,3.07-2.75,6.55-4.63,10.96-2.65,2.79,3.29,2.01,6.87.38,10.22-2.6,5.37-5.46,10.63-8.37,15.84-1.72,3.08-3.74,5.99-6.58,10.49,12.86-5.2,22.41-13.58,34.83-14.92.78-.08,1.67.86,3.02,1.61-1.02,9.02-9.63,12-14.52,17.81,3.8,2.74,7.38,5.32,10.51,7.58-.33,10.73-1.62,12.92-10.41,15.11-14.62,3.65-29.4,5.02-44.32,1.48-1.55-.37-3.27-.05-4.91-.05,4.24-.59,8.46-1.6,12.71-1.69,11.45-.24,22.41-2.73,33.08-6.59,1.87-.68,3.31-2.51,6.24-4.83-5.52-1.94-9.48-3.33-12.82-4.51-7.8,3.28-14.82,6.28-21.88,9.2-7.06,2.92-15.06,3.16-21.64,8.28h4.56c-3.32,4.32-7.42.11-12.15,1.27-13.53,17.11-30.54,32.45-43.29,51.6,4.91-2.17,7.92-9.67,15.48-4.27v14.01c5.77-1.26,10.8-2.72,15.92-3.37,6.57-.84,13.22-1.23,19.85-1.38,1.92-.04,3.88,1.39,5.7,3.02-14.28,2.77-28.8,2.23-42.34,5.64-4.72,8.11-8.97,15.6-13.42,22.98-4.49,7.45-10.8,12.55-20.04,14.33-2.05-.77-4.51-1.68-7.18-2.68-.24,1.17-.74,2.13-.58,2.98,2.22,12.09,4.8,24.13,6.75,36.26,2.79,17.37,5.35,34.78,7.61,52.23,3.37,26,6.5,52.03,9.52,78.07,1.18,10.22,1.74,20.5,2.69,30.75.52,5.56,1.27,11.1,1.97,17.05-.6,3.65-1.57,7.81-1.94,12.03-2.05,23.48-4,46.97-5.9,70.46-1.02,12.58-1.93,25.18-2.75,37.77-.25,3.87-.04,7.77-.04,12.66,2.19-1.77,3.16-2.56,4.14-3.35l-.24-.23ZM591.73,94.52c1.13,2.27,2.27,4.54,3.38,6.78,11.22-3.77,21.55-8.26,30.48-17.58-10.98-2.7-19.25.56-27.04,5.91-2.4,1.65-4.73,3.42-7.09,5.13,8.63-16.33,23.56-21.95,39.96-14.73,5.02-5.46,12.78-9.18,12.81-19.21-10.92-1.6-20.78-.27-28.89,6.05-12.1,9.41-25.23,15.77-40.44,17.8-3.89.52-6.23,2.71-7.03,5.9,8.29,1.38,16.08,2.67,23.86,3.96ZM501.16,63.19c1.26,4.3,1.87,7.48,3.12,10.4,3.45,8.07,8.91,14.64,15.32,20.64,3.64,3.41,6.25,7.93,10.3,13.23.51.14,2.72.74,4.94,1.3.22.05.52-.24,1.08-.52-.61-19.39,2.88-39.1-2.76-58.45-4.69,12.43-1.29,26.04-6.23,39.72-3.79-5.85-6.84-10.84-10.19-15.62-3.42-4.87-6.81-9.99-15.58-10.71ZM564.09,128.09c22.45-2.89,43.74-9.49,62.67-22.75.59-.41.56-1.71.89-2.83-9.23-1.75-17.28,1.28-25.35,4.41-13.91,5.39-27.69,11.21-42.54,13.68-.48.08-.86.72-2.42,2.12,2.11,1.69,4.12,3.29,6.74,5.38ZM519.33,109.29c-22.47-3.17-39.7,2.13-46.2,13.78,11.27,8.93,27.03,6.02,46.89-8.86-.2-1.41-.42-3.01-.69-4.93ZM585.74,100.58c-12.11-4.06-22.74-1.63-33.5,1.33-.52,3.93-1,7.61-1.58,12.02,12.77-2.9,25.55-2.08,35.09-13.35ZM656.65,216.06c5.53-4.85,10.04-13.88,13.59-27.67,1.33-5.17,3.31-10.4,1.09-16.35-9.75,8.72-16.19,28.75-14.67,44.02ZM528.87,152.68c6.53-10.17,8.79-19.56,10.58-29.27-5.07-.93-9.54-1.75-14.29-2.62-1.4,10.6-.23,20.56,3.71,31.89ZM572.41,135.92c5.87,7.66,12,10.65,23.42,11.52,5.13.39,10.27-.41,14.63-5.21-11.73-8.62-24.36-5.9-38.05-6.32ZM579.81,76.14c14.13-5,25.73-12.01,35.83-24-11.15.39-18.96,5.5-26.56,10.51-4.21,2.78-9.38,5.6-9.27,13.49ZM612.08,22.42c-.54-.29-1.07-.57-1.61-.86-2.94,3.44-5.93,6.82-8.8,10.32-3.11,3.8-6.1,7.7-9.29,11.73.28,2.46.56,4.87.93,8.08,6-3.11,11.15-5.78,15.56-8.06,1.17-7.75,2.19-14.48,3.21-21.2ZM551.59,94.27c7.39-8.38,15.39-15.23,18.75-27.5-10.81,4.77-19.62,9.35-25.32,18.11,2.13,3.04,4.01,5.73,6.57,9.39ZM466.34,229.26c2.82,11.91,6.77,21.61,12.06,30.77,1.51,2.61,3.43,4.59,6.96,3.88-3.07-18.97-8.23-28.81-19.02-34.65ZM670.07,214.52c11.39-9.9,22.34-25.15,24.74-34.34-12.18,8.35-20.88,18.47-24.74,34.34ZM539.65,40.16c4.93,12.73,4.95,24.3,3.28,37.97,4.25-5.92,7.29-10.16,10.8-15.04-5.59-6.79-2.07-18.23-14.08-22.93ZM555.39,31.28c-.5.21-1.01.43-1.51.64,1.03,9.19,2.06,18.39,3.22,28.72,3.24-1.99,5.34-3.29,7.09-4.37.43-4.92.79-9.1,1.11-12.76-3.52-4.35-6.71-8.29-9.9-12.24ZM539.39,150.89c8.59-5.57,12.45-12.32,15.9-19.72-2.08-2.33-4.01-4.5-7-7.84-3.05,9.46-5.72,17.71-8.9,27.56ZM587.84,40.76c-1.32-8.01-2.48-15.15-3.71-22.28-.06-.35-.8-.58-1.62-1.14-1.5,2.63-2.94,5.15-3.6,6.3.85,7.7,1.53,13.89,2.28,20.7,2.12-1.14,4.06-2.19,6.65-3.58ZM565.2,56.1c4.82-1.84,7.7-2.95,10.34-3.96.83-6.82,1.53-12.64,2.39-19.67-9.41,5.3-9.83,13.83-12.73,23.63ZM614.3,121.13c-6,3.62-11.88,3.45-17.1,9.66,7.89-.56,13.71-.9,19.5-1.46.7-.07,1.28-1.25,2.96-3-1.69-1.65-3.27-3.17-5.36-5.21ZM590.22,48c-.71-.68-1.42-1.36-2.13-2.04-3.15,2.08-6.3,4.16-9.65,6.38,1.93,2.68,3.5,4.87,5.52,7.69,2.21-4.26,4.23-8.15,6.25-12.03ZM542.43,111.03c.73-.02,1.46-.04,2.19-.06,1.7-7.24,2.76-14.44-2.19-23.35v23.41ZM572.36,338.43c-6.6,2.08-9.75,6.66-8.82,13.15,4.93-3.27,6.67-8.14,8.82-13.15ZM536.76,36.72c-3.32-2.75-5.85-5.56-10.66-6.18.24,3.43.43,6.28.64,9.22,3.38-1.02,6.35-1.92,10.02-3.03ZM542.97,158.65c6.22-2.52,11.37-6,13.34-12.59-4.45,4.2-8.89,8.39-13.34,12.59ZM522.45,110.15q5.79,5.11,13.02,4.3c-4.78-1.58-8-2.64-13.02-4.3ZM562.61,354.74q-4.22.08-5.3,4.58c2.03-1.75,3.34-2.88,5.3-4.58ZM602.68,295.78c.31.25.63.5.94.75.75-.96,1.49-1.92,2.24-2.88-.28-.22-.56-.44-.83-.65-.78.93-1.56,1.86-2.35,2.79Z"/>
      <path class="cls-2" d="M632.76,530.13c-5.81,6.38-11.57,12.69-17.32,19.01,2.25-9.69,9.19-16.42,14.28-24,.23-5.24.59-10.2.65-15.17.14-11.23-4.87-18.69-15.11-22.83,6.34-3.22,10.85-2.7,15.27,3.25,3.21,4.32,5.1,9.62,7.48,14.28,4.02-8.33,8.31-17.58,12.92-26.67,4.68-9.23,10.51-17.61,19.61-23.65,2.73,2.78,1.48,4.86-.11,7.1-5.96,8.41-11.96,16.8-17.7,25.36-2.77,4.14-5.08,8.59-7.42,13-1.19,2.24-1.96,4.69-1.78,7.73,1.29-1.27,2.67-2.47,3.85-3.83,22.92-26.36,40.71-55.88,54.48-87.93,4.99-11.61,10.41-23.03,15.89-34.42,3.91-8.12,8.84-15.59,16.53-21.04-2.48-22.85,3.67-43.72,13.92-63.52,2.54-4.91,6.59-9.1,10.33-13.27,1.38-1.54,3.87-2.08,6.56-3.44.32,13.76-3.02,26.03-6.56,39.76,5.97-3.88,10.57-6.88,15.27-9.93,2.2,1.23,3.88,2.16,5.12,2.85,2.06,4.8.38,8.51-1.74,11.91-4.75,7.62-9.75,15.09-14.67,22.6-1.22,1.86-2.51,3.68-4.32,6.35,10.28,1.01,19.85-1.34,30.91,2.21-3.36,1.55-4.91,2.27-6.83,3.16-.12,8.21-5.56,11.82-12.82,14.04-8.38,2.55-16.39,2.37-24.09-2.1-2.28-1.32-4.55-2.68-7.3-4.3-5.35,4.11-8.79,9.75-11.57,15.69-6.92,14.77-13.85,29.54-20.18,44.56-14.14,33.59-33.98,63.22-59.97,88.78-3.5,3.44-6.53,7.36-10.19,11.53,5.4,2.47,9.32-.29,13.09-1.46,19.65-6.11,39.6-6.1,59.14-1.22,25.15,6.28,41.86,22.52,48.87,47.78,1.34,4.84,3.07,10.38-1.42,15.77-3.73-2.89-7.54-5.4-10.84-8.45-27.45-25.45-60.33-39.69-96.58-47.05-2.6-.53-5.16-1.27-7.77-1.7-2.24-.37-4.53-.43-7.89-.72ZM746.36,568.07c-8.27-18.69-21.26-30.61-37.86-35.9-12.76-4.07-25.95-5.27-39.24-5.54-5.56-.11-11.28-.77-16.76,2.87,34.78,2.86,65.33,15.25,93.86,38.57ZM760.82,292.28c-12.75,15.27-23.14,42.89-22.89,60.19,10.02-19.9,16.83-39.91,22.89-60.19ZM774.12,315.1c-6.49,3.21-11.46,5.66-16.52,8.17-1.83,5.14-3.47,10.14-5.39,15.04-1.98,5.06-4.23,10.01-6.8,16.04,12.1-10.22,25.62-28.37,28.71-39.25ZM777.56,357.99c-4.93.39-10.27.13-15.22,1.41-5.1,1.31-11.38-1.83-15.91,4.11,9.3,4.36,18.38,3.67,27.47,1.28,2.61-.68,4.97-2.23,3.66-6.8Z"/>
      <path class="cls-2" d="M500.35,522.51c-8.02-14.69-18.37-27.61-29.98-39.6-1.04-1.08-1.48-2.74-2.75-5.2,11.54.51,14.7,10.42,22.08,16.11-.43-10.39-6.58-19.45-3.93-31.04,6.6,7.44,6.12,15.82,8.63,23.02,2.48,7.11,4.16,14.5,6.7,23.57,1.04-11.75-1.65-52.68-5.5-80.12h-4.81c-.88,2.8-1.74,5.57-2.94,9.4-4.15.51-8.59,1.06-12.03,1.48-5.64-3.18-6.87-7.21-5.27-11.72,2.8-7.87,7.42-14.19,18.24-15.94,3.28,1.76,7.82,4.2,14.11,7.59,5.49-.55,13.64-1.58,18.2,6.57,1.85,3.3,5.16,7.62-.24,11.83-5.99-4.49-8.53-14.25-19.52-12.58,1.02,5.05,2.23,10.07,3,15.15,1.24,8.2,2.65,16.41,3.18,24.67,1.59,24.54,5.83,48.9,4.99,73.59-.26,7.62-.96,15.25-1.89,22.82-2.71,22.16,1.59,43.03,10.92,63.1,9.78,21.05,23.8,39.22,38.29,57.1,2.79,3.45,5.56,6.91,7.1,11.49-1.15-.91-2.42-1.69-3.43-2.74-16.7-17.27-32.8-35.12-44.42-56.29-5.41-9.85-9.53-20.5-13.38-31.09-5.49-15.08-4.45-30.75-2.86-46.42.77-7.58,1.09-15.28.73-22.88-.19-4.09-2.26-8.1-3.49-12.14,1.06-.14,2.11-.27,3.57-.46-1.06-1.39-1.78-2.34-2.94-3.88-.16,2.07-.26,3.34-.36,4.6Z"/>
      <path class="cls-2" d="M604.07,684.13c2-2.94,3.55-6.38,6.09-8.75,13.68-12.7,30.09-20.36,48.05-24.83,2.14-.53,4.54-.07,8.31-.07-2.03,2.26-2.93,4.02-4.35,4.68-3.59,1.66-7.42,2.82-11.15,4.2-15.64,5.75-30.32,13.31-43.75,23.24-.95.7-2.28.88-3.44,1.3,0,0,.24.23.24.23Z"/>
      <path class="cls-2" d="M598.93,781.27c19.24-5.49,34.47-15.76,53.64-22.48-4.17,8.5-10.55,10.12-15.8,12.87-18.01,9.46-23.16,10.69-37.85,9.6Z"/>
      <path class="cls-2" d="M466.35,256.1c-7.32-6.65-10.25-15.43-13.23-26.27,2.69,1.35,3.79,1.9,4.89,2.45l.17-.24c-2.61,2.16-.5,4.18.29,6.14,2.45,6.06,5.03,12.07,7.56,18.1l.32-.18Z"/>
    </g>
  </g>
</svg>