<?xml version="1.0" encoding="UTF-8"?>
<svg id="Layer_2" data-name="Layer 2" xmlns="http://www.w3.org/2000/svg" viewBox="0 0 391.55 1554.77">
  <defs>
    <style>
      .cls-1 {
        stroke-linecap: round;
        stroke-linejoin: round;
        stroke-width: 2px;
      }

      .cls-1, .cls-2 {
        fill: #f0ede5;
        stroke: #f0ede5;
      }

      .cls-2 {
        stroke-miterlimit: 10;
      }
    </style>
  </defs>
  <g id="Layer_1-2" data-name="Layer 1">
    <g>
      <path class="cls-2" d="M153.7,747.8c-.35,1.81-1.32,3.75-.96,5.41,3.09,14.23.3,27.97-4.69,41-5.6,14.62-6.82,29.71-7.69,44.95-1.3,22.89-2.92,45.79-3.15,68.69-.2,19.59,1.15,39.21,2.23,58.79.67,12.25,2.14,24.45,3.18,36.68,1.27,14.88,3.59,29.78,3.39,44.65-.25,17.88-2.69,35.73-4.15,53.6-1.87,22.83-3.87,45.65-5.5,68.5-.99,13.92-1.92,27.88-1.96,41.82-.11,34.26,2.21,68.4,5.72,102.49,2.14,20.81,3.19,41.73,4.88,62.59,2.33,28.79,4.61,57.58,7.25,86.34,2.43,26.45,5.36,52.85,7.97,79.28.32,3.24.04,6.53-1.5,10.03-3.44-20.52-7.89-40.94-10.11-61.6-4.13-38.29-6.93-76.73-10.36-115.1-2.46-27.45-5.55-54.85-7.44-82.34-1.87-27.18-3.85-54.46-3.49-81.67.4-30.19,3.11-60.36,5.33-90.5,1.39-18.86,4.69-37.62,5.39-56.49.63-16.87-.9-33.84-1.91-50.74-.98-16.48-2.14-32.97-3.9-49.38-2.78-25.92-2.06-51.85-1.2-77.79.22-6.63,1.34-13.24,1.35-19.86.01-7.25-1.1-14.51-1.12-21.76-.02-6.57.23-13.23,1.34-19.68,1.35-7.83,4.76-15.4,5.39-23.24.92-11.38-2.14-22.56-7.03-32.76-6.87-14.34-14.95-28.1-22.16-42.29-3.35-6.59-6.76-12.76-13.36-16.84-3.01-1.86-5.16-5.12-6.52-6.53-14.05,0-26.61-.2-39.15.16-2.62.08-5.66,1.68-7.67,3.5-9.65,8.68-19.02,17.67-28.46,26.58-3.09,2.92-6.07,5.94-9.74,8.23,18.6-20.86,32.57-46.78,62.2-56.7-7.24-8.63-17.1-12.21-27.62-12.44-10.12-.22-20.3,1.75-30.01,2.71,14.02-11.79,41.28-12.34,57.89-.66,3.8,2.67,7.04,6.14,10.84,8.8,3.88,2.71,8.13,4.89,13.92,8.3-2.56-19.87-18.72-26.66-28.02-39.2,4.03-.86,6.41,2.1,9.09,3.89,3.02,2.02,5.8,4.39,10.63,8.1-11.3-40.82-16.62-80.55-20.95-121.71-11.77,10.7-17.26,26.72-34.76,28.89,1.52-1.77,2.8-3.85,4.59-5.27,14.81-11.71,21.53-27.43,23.4-45.78.56-5.54,3.09-11-.32-16.44,1.15-.95,3.03-1.68,3.35-2.85,2.11-7.64-.82-13.83-9.86-20.34,2.43,8.41,4.61,15.95,6.79,23.49-3.92-7.64-8.03-15.19-11.71-22.94-4.39-9.25-10.32-10.09-17.09-2.54-8.07,9.01-10.16,20.84-15.13,31.29-.93,1.95,1.31,5.53,2.35,8.26,1.09,2.85,2.51,5.58,3.79,8.37-.66.44-1.31.89-1.97,1.33-2.65-2.26-5.3-4.51-8.59-7.31-1.8,4.75-3.5,9.25-5.21,13.75-.34-.06-.67-.13-1.01-.19.6-4.89,1.17-9.79,1.81-14.68,1.29-9.84,2.78-19.67,3.88-29.53,1.45-12.97,6.91-19.61,19.6-22.92,3.17-.83,6.46-1.22,10.44-1.96-2.16-8.88-4.61-17.68-6.41-26.6-4.79-23.81-9.35-47.74-6.73-72.17,1.16-10.83,3.27-21.7,6.36-32.14,5.21-17.58,16.86-29.92,33.49-36.13,0-23.07.02-45.34,0-67.61-.03-22.83-9.22-36.03-30.67-43.76-5.62-2.03-11.5-3.36-17.16-5.3-2.15-.73-4.02-2.27-5.61-4.62,10.27-4.05,19.25.26,28.26,3.49,9.57,3.42,16.22,10.91,23.72,19.38,1.07-6.24,2.51-11.02,2.44-15.78-.03-2.35-2.48-5.04-4.46-6.91-6.99-6.62-14.36-12.85-21.37-19.46-2.31-2.18-3.96-5.06-5.79-7.46,8.36-9.45,12.72-9.02,29.6,2.73-2.71-17.23-10.62-32.14-15.16-48.5,6.26-.88,7.32,3.33,8.89,6.15,6.7,12.03,10.64,25.1,13.06,38.58,1.27,7.05,1.57,14.27,2.36,21.89,4.05-5.11,6-9.33,3.95-16.21-2.56-8.59-2.39-18.07,1.67-27.61,8.01,7.51,7.92,16.65,8.74,27.06,4.44-4.38,7.69-7.92,11.3-11.05,4-3.48,8.15-6.87,12.61-9.7,1.5-.95,4.46-.61,6.18.27.82.42.92,3.74.26,5.27-1.45,3.3-3.6,6.3-5.81,9.99,3.33.81,6.53,1.58,10.77,2.61-2.16,3.51-3.81,6.21-5.8,9.44,5.82,1.91,10.55,5.16,11.74,12.88-11.48,8.11-23.66,7.14-37.07,1.13-1.11,12.46.22,25.1-10.85,35.15-.74-12.41,7.51-23.13.73-34.77-1.07,1.71-2.26,3.32-3.14,5.09-1.92,3.88-2.96,8.44-5.64,11.64-8.44,10.09-6.24,21.27-5.14,32.82,1.7,17.84,2.27,35.79,3.43,53.69.38,5.91,1.09,11.79,1.7,18.24,3.42.24,6.3.43,7.78.53,6.06-5.47,11.18-10.1,16.77-15.14,6.65,9.19-3.86,11.43-5.39,17.08,4.73,3.96,13.6,1.14,16.43,9.39-12.13,5.49-22.8-2.96-35.31-3.69,0,4.3-.28,7.56.04,10.76,3,29.26.54,58.37-1.83,87.54-1.56,19.2-1.9,38.5-2.72,57.76-.04.87.63,1.77.99,2.7,1.31-.75,2.41-1.39,3.51-2.03.42,0,.83,0,1.25,0,12.75-9.45,25.39-19.07,38.32-28.27,4.83-3.43,10.18-6.27,15.61-8.67,5.22-2.3,10.8-2.3,18.01.67-2.63,2.06-4,3.99-5.66,4.28-9.44,1.63-17.41,6.25-25.26,11.36-11.43,7.43-23.05,14.58-34.5,21.97-3.32,2.14-6.35,4.72-9.91,7.4,8.35,18.32,6.66,36.36.38,54.44-.84,2.43-1.03,5.28-.77,7.86,4.63,44.92,9.5,89.81,22.27,133.35,1.36,4.62,4.04,8.94,6.6,13.1,5.18,8.43,10.7,16.66,17.11,26.56-.99-13.55-5.09-24.3-10-34.62-4.75-9.97-10.55-19.44-16.43-30.1,11.99,2.49,34.22,26.92,43.89,47.05,2.83-8.47,1.59-18.11,10.89-25.44-3.34,16.18-6.29,30.48-9.25,44.78.72.26,1.43.53,2.15.79.97-1.31,2.39-2.48,2.85-3.95,3.23-10.47,6.24-21,9.36-31.5.68-2.29,1.53-4.53,2.3-6.8.72.11,1.44.22,2.17.33,0,5.67,0,11.34.01,17.03-3.72,7.98-6.37,16.75-11.48,23.7-5.38,7.32-5.45,14.1-3.04,21.85-.29,5.88-.86,11.75-.8,17.63.05,6.18,1.88,12.24-.69,18.53-1.21,2.97.14,6.6,4.03,9.67,2.25-19.21,4.35-37.07,6.66-56.83-3.93,4.71-6.56,7.87-9.19,11.01,3.63-9.24,6.91-18.63,11.01-27.64,2.68-5.9,4.91-11.58,3.29-18.12.77-.84,1.99-1.56,2.25-2.54,16.69-61.93,30.27-124.55,41.73-187.64,5.45-30.02,11.43-59.95,17.33-90.73-3.25-2.17-6.99-4.67-10.78-7.2-3.37,4.95-1.15,6.63,3.55,7.69-2.67,2.55-4.96,4.73-7.8,7.44,2.25,2.58,4.51,5.17,7.16,8.22-8.1,4.1-10.55-3.13-14.38-6.27-12.52,1.23-19.23,8.72-22.71,20.01-4.24-5.53-4.12-12.9,1.66-18.09,4.98-4.47,11.48-7.24,18.14-11.28.52-2.63,1.33-6.73,2.15-10.85,1.26,3.52,2.52,7.05,3.77,10.58l1.67-.4c1.03-3.04,2.06-6.09,2.96-8.73-2.95-3.97-5.68-4.19-8.64-1.16.93-2.89-.27-4.42-3.11-4.94-13.26-2.47-26.52-2.25-39.44,1.51-3.1.9-5.62,4.49-7.93,7.24-2.31,2.76-4.03,6.02-6,9.06-1.39-10.54,6.86-22.88,17.94-25.3,15.79-3.45,31.63-4.48,46.86,2.93.78.38,1.78.29,3.28.5-6.28-25.09-19.51-45.01-39.85-62.01-1.73,10.88-1.81,21.27-8.22,30.52-13.77-14.65-7.41-31.29-5.6-47.96-10.37,3.86-19.8,9.33-31.93,6.69,5.95-17.49,20.38-21.75,36.04-25.39-13.46-16.88-23.43-34.65-14.8-57.24,10.52,3.68,21.63,26.26,24.33,48.91,3.25-2.29,6.03-4.49,9.02-6.33,9.8-6.02,19.89-9.47,30.98-3.06,7.54,4.36,8.57,9.34,3.47,16.41-4.75,6.57-11.94,8.04-19.16,9.38-2.79.52-5.68.45-8.98.68,25.53,29.61,39.25,57.95,44.29,92.69,2.11-4.5,3.74-7.15,4.63-10.03,5.21-16.83,10.06-33.77,15.4-50.56,4.72-14.85,5.78-29.75,3.92-45.26-1.45-12.06-3.36-24.45,2.12-36.37.92-2.01.08-5.18-.7-7.57-4.18-12.72-12.3-22.73-22.24-31.41-3.23-2.82-6.51-5.59-10.22-8.77,13.41.81,27.66,14.67,41.86,41.05.82-9.86,1.43-17.76,2.15-25.65,2.63-28.76,5.08-57.54,8.03-86.27,1.3-12.67,5.41-24.59,13.58-35.66-7.03-3.2-13.53-6.15-20.69-9.41-2.31,13.36-4.77,26.38-12.18,37.66-2.54,3.87-5.3,7.65-8.4,11.08-3.44,3.8-7.11,3.25-7.77-1.62-1.11-8.11-1.82-16.55-.83-24.62,1.55-12.68,6.72-24.3,14.76-34.75-7.67-16.49-10.62-33.62-5.68-51.34,1.77-6.34,4.55-12.66,12.25-15.48,9.42,10.08,14.65,22.22,16.67,38.37,2.1-4.02,3.14-6.1,4.26-8.14,4.93-9.02,9.6-18.2,14.98-26.94,1.87-3.04,4.57-7.05,9.38-4.79,5.61,23.31-5.15,41.77-17.14,59.86,20.3,6.72,38.54-13.05,36.46-39.23-6.21,6.61-12.47,13.27-18.72,19.92-.75-.56-1.51-1.11-2.26-1.67.41-1.59.39-3.49,1.29-4.72,5.31-7.23,10.61-14.49,16.43-21.3,1.6-1.88,5.64-3.73,7.35-2.95,2.07.95,4.09,4.78,3.94,7.23-.41,6.54-1.77,13.05-3.22,19.46-.78,3.41-2.55,6.59-4.7,11.92,3.96-2.51,5.96-3.97,8.13-5.12,7.91-4.19,15.77-8.52,23.88-12.28,2.89-1.34,6.48-1.75,9.71-1.62,6.94.3,9.05,4.52,4.62,9.79-3.36,4-7.78,7.16-11.97,10.38-2.6,2-5.64,3.42-9.6,5.76,2.78,1.04,4.68,1.83,6.62,2.46,8.27,2.68,16.53,5.35,22.39,12.39,4.01,4.82,6.38,9.98,3.5,17.02-6.65.3-13.22.6-20.78.94,5.65,5.9,10.9,11.38,17.43,18.2-5.32,1.92-8.74,3.15-12.93,4.66,11.11,9.07,22.84,16.93,28.11,31.37-13.15,2.72-23.19-4.93-34.56-8.54,3.63,6.9,7.98,13.28,10.41,20.33,2.39,6.96,3.54,14.62-.77,23.72-8.24-7.57-15.44-14.17-22.75-20.88-3.8,3.1-4.37,6.94-4.36,11.53.01,9.55-2.63,10.81-11.66,6.18-1.01.68-2.11,1.41-3.19,2.17-9.53,6.69-14.89,4.56-15.04-7.23-.13-10.44.17-21.39,8.74-29.61.72-.69.52-2.33.87-4.17-8.02,3.03-15.33,5.62-22.49,8.6-1.99.83-4.26,2.48-5.09,4.34-5.25,11.84-10.75,23.63-14.92,35.86-2.85,8.36-4.15,17.35-5.32,26.17-1.71,12.83-3.21,25.73-3.77,38.64-.4,9.2.87,18.47,1.32,26.42,6.97,1.33,12.86,2.46,18.63,3.56-1.08-7.73-2.26-16.14-3.72-26.55,16.24,7.94,21.94,20.22,24.06,36.13,1.94-2.01,3.48-3.46,4.86-5.06,4.53-5.28,9.87-10.13,13.24-16.08,3.04-5.36,3.9-11.95,6.21-19.63,3.87,4.8,6.86,8.5,9.63,11.93,7.94-.78,16.11-2.27,24.28-2.22,10.42.06,19.29,4.64,26.35,12.38,3.72,4.08,5.74,8.76,4.58,15.54-1.85-1.18-3.45-1.67-4.18-2.75-8.05-11.85-18.84-18.47-33.47-18.4-4.98.02-9.97-.87-14.93-.74-1.45.04-2.85,2.13-5.1,3.94,8.42,4.07,18.84,3.04,19.62,14.81-12.05,3.31-20.42-3.47-28.06-8.54-7.64,7.65-15.24,15.26-22.65,22.68,0,0,.96.52,1.72.31,14-3.91,26.96,1.1,39.99,4.85,2.52.72,4.48,3.37,6.72,5.14-12.78-1.92-25.4-5.41-38.77-3.96,2.49,2.22,5.2,3.92,8.13,4.46,11.06,2.06,21.87,6.54,34.16,4.77-1.68-2.46-2.76-4.04-3.85-5.61,2.74,1.97,5.49,3.93,8.98,6.44-13.27,8.99-25.05,1.68-37.97.41,3.05,4.05,5.46,7.14,7.75,10.32,2.33,3.24,4.88,6.39,6.69,9.91,2.37,4.58,1.23,9.15-2.2,11.66-3.85,2.83-7.11.79-9.87-1.65-4.49-3.95-8.66-8.25-12.9-12.47-1.84-1.83-3.51-3.83-6.16-6.74-1.33,6.88-2.11,12.66-3.63,18.24-1.21,4.44-2.77,9-5.22,12.82-1.59,2.48-5.02,5.11-7.74,5.25-4.21.21-6.05-4.21-6.39-7.76-.63-6.58-1.01-13.33-.18-19.85,1.04-8.18,3.41-16.19,5.36-25-3.12-.22-5.91-.41-8.79-.61-.56,1.24-1.24,2.08-1.3,2.97-.75,11.44-5.42,21-13.05,29.49-8.45,9.4-16.51,19.16-24.59,28.88-2.04,2.45-3.5,5.38-6.09,9.44,13.49-3.03,23.08-13.79,38.64-11.54-2.9,2.49-3.89,3.85-5.22,4.41-5.5,2.32-10.96,5.66-16.7,6.33-17.2,2.01-24.49,13.69-28.35,28.17-4.11,15.39-7.12,31.1-10.2,46.75-8.8,44.66-17.17,89.41-26.16,134.03-3.8,18.89-8.72,37.57-13.11,56.34-.29,1.23-.45,2.5-.83,4.63,10.68-11.92,14.62-30.21,35.88-30.45-1.53,2.62-2.04,4.81-3.35,5.54-13.91,7.73-21.26,20.97-28.16,34.24-12.82,24.67-20.67,51.11-26.24,78.29-1.06,5.17,1.42,8.19,4.77,11.14h-.02ZM60.02,438.68c2.34-44.12,7.69-86.54,3.63-130.05-2.39,1-3.94,1.47-5.31,2.24-12.68,7.15-19.46,18.64-23.61,32.1-5.71,18.5-4.81,37.48-4.03,56.41.29,7.07,1.7,14.1,2.7,21.95,5.87-5.06,7.15-14.07,16.58-13.54-3.41,8.49-7.29,16.08-9.46,24.12-2.22,8.22.25,16.44,3.61,24.17,3.39,7.78,5.7,16.29,14.83,22.42-.43-4.89-1.71-8.59-.84-11.67,1.98-6.99-.06-12.93-2.5-19.24-2.19-5.65-4.18-11.67-1.04-19.51,2.05,4.01,3.39,6.61,5.43,10.58ZM370.56,135.53c-7.91-12.31-17.08-22.16-32.44-25.59-8.4-1.87-16.4-7.19-23.61-12.32-6.96-4.97-12.85-11.51-18.85-17.7-7.06-7.28-14.62-13.15-26.57-13.08,7.37,9.36,21.99,11.9,21.04,25.81-9.99,3.2-9.81,12.11-13.83,19.99,7.88-4.76,9.05-17.08,20.75-13.34,2.26-1.73,4.71-3.61,7.16-5.49.54.41,1.07.81,1.61,1.22-6.91,15.74-21.6,28.02-23.21,47.36,9.9-.7,17.24-4.66,23.5-9.93,6.13-5.16,11.22-11.55,16.05-16.65,15.44,8.13,31.63,14.32,48.4,19.71ZM307.33,69.47c13.4,7.55,44.01,13.12,54.87,9.98-9.21-14.54-40.42-20.22-54.87-9.98ZM301.79,79c15.87,18.36,38.55,28.94,55.6,26.31-16.21-15-36.5-19.35-55.6-26.31ZM200.86,276.13c-14.42-7.64-33.09-2.37-39.72,11.64,10.37,1.22,20.44,1.41,30.28-1.67,4.78-1.5,9.16-3.97,9.44-9.97ZM112.52,670.5c-.79.59-1.58,1.19-2.37,1.78,9.46,17.29,12.49,36.23,15.42,55.26,1.11,7.23,1.93,14.84,6.76,21.06.29-21.77-2.43-43.06-10.29-63.37-2.07-5.34-6.28-9.85-9.51-14.73ZM238.45,122.52c9.32-15.65,13.25-32.49,11.01-50.7-10.78,15.32-14.43,32.22-11.01,50.7ZM323.84,124.33c-4.29,3.32-2.86,6.06-.65,8.23,9.28,9.09,18.73,18.01,28.12,26.99-3.23-16.58-12.15-28.35-27.47-35.22ZM267.79,58.85c14.19-5.94,25.03-27.3,23.68-46.18-10.34,14.67-16.12,30.23-23.68,46.18ZM292.9,308.2c-4.46,14.75-8.82,29.56-3.89,45.25,8.52-14.28,9.3-29.41,3.89-45.25ZM159.05,296.63c7.78,14.32,17.84,26.35,32.59,33.77-6.58-15.33-17.68-26.39-32.59-33.77ZM332.76,341.65c-7.82-14.78-18.69-24.53-30.21-35.62.74,13.15,15.16,30.13,30.21,35.62ZM239.9,362.64c8.73-12.4,17.77-24.6,26-37.32,2.57-3.97,4.56-9.02,3.79-15.04-1.59,1.04-2.65,1.38-3.13,2.1-7.49,11.35-14.82,22.82-22.39,34.11-3.21,4.79-5.12,9.83-4.27,16.16ZM252.34,19.17c-5.52,22.77-4.8,32.97,3.08,43.48,3.42-15.48,2.22-29.47-3.08-43.48ZM153.32,280.25c1.13-14.59-3.95-27.28-11.27-39.29-2.04,14.87,3.59,27.39,11.27,39.29ZM351.73,39.65c-13.66,3.38-26.99,7.53-38.3,16.39,15.06-.13,27.9-5.42,38.3-16.39ZM289.93,299.45c-5.56-11.46-12.14-15.55-20.56-13.17,4.11,14.45,9.13,17.84,20.56,13.17ZM287.51,111.17c-.56-.4-1.13-.8-1.69-1.19-4.29,6.14-10.75,11.76-12.4,18.54-2.94,12.03-2.96,24.78-4.21,37.22.45.09.89.18,1.34.26,2.21-4.76,4.42-9.51,6.83-14.7-6.32-6.49-3.87-13.42-.6-20.1,3.32-6.8,7.13-13.37,10.73-20.03ZM121.93,308.32c14.04-1.86,27.04-10.49,29.36-19.63-11.05,4.85-20.9,10.09-29.36,19.63ZM64.04,175.59c-5.67-12.78-11.11-24.05-25.31-25.77,7.92,8.07,16.12,16.41,25.31,25.77ZM86.83,168.11c10.21,6.52,22.62,8.19,29.61,3.97-8.39-4.91-20.78-6.57-29.61-3.97ZM250.37,249.14c-.93.14-1.85.29-2.78.43,1.02,10.74,2.04,21.48,3.06,32.22,6.23-11.28,2.91-21.96-.28-32.65ZM310.52,174.04c3.89-2.29,5.98-3.51,7.87-4.63-2.26-7.83-4.32-14.95-6.38-22.08-.5.04-.99.08-1.49.12v26.58ZM151.54,310.08c-.79,10.95-2.15,21.95,2.7,32.44-.24-10.87,2.91-22.01-2.7-32.44ZM324.04,159.11c-1.36-8.71-2.11-17.6-7.88-25.01-.31,9.2,2.83,17.39,7.88,25.01ZM203.55,353.17c.46-.26.92-.51,1.39-.77-1.76-3.75-3.38-7.59-5.33-11.24-2.13-3.99-2.26-3.92-9.07-2.32,4.42,4.87,8.72,9.6,13.01,14.33ZM92.22,162.99c7.41-2.05,15.27,3.03,20.07-5.82-7.52-1.58-13.94-1.13-20.07,5.82ZM286.15,267.29c-.77.29-1.55.58-2.32.87,2.32,7.13,4.4,14.38,10.92,19.6-2.87-6.82-5.73-13.65-8.6-20.47ZM75.54,696.76c-7.78-1.97-14.87-2.31-22.54,4.24,8.86-1.67,15.7-2.96,22.54-4.24ZM170.62,322.76c-3.5-5.1-6.02-8.78-9.01-13.13-2.13,7.68.84,11.07,9.01,13.13ZM141.81,783.07c.86.08,1.73.16,2.59.24.7-5.72,1.41-11.44,2.11-17.16-.66-.09-1.32-.17-1.97-.26-.91,5.73-1.82,11.45-2.73,17.18ZM263.46,294.53c-.77,4.47-1.24,7.19-1.91,11.09,3.08-1.25,4.76-1.93,7.05-2.86-1.64-2.63-2.92-4.67-5.14-8.24ZM213.69,376.7c-.65,5.87-2.93,10.04,3.37,13.89-1.18-4.86-2.04-8.43-3.37-13.89ZM257.3,72.05c5.48,1.76,8.5,4.73,14.1,3.8-4.4-3.17-6.29-9.21-14.1-3.8ZM337.84,276.67q5.68,4.59,12.97,3.21c-5.59-1.38-9.28-2.3-12.97-3.21ZM79.1,157.94c.21-.02.43-.03.64-.05v-8.06c-.21.01-.43.02-.64.03v8.08ZM97.24,153.74c-.54-.56-1.08-1.11-1.62-1.67-1.26,1.12-2.52,2.25-3.79,3.37.55.58,1.1,1.15,1.65,1.73,1.25-1.15,2.51-2.29,3.76-3.44Z"/>
      <path class="cls-2" d="M153.72,747.81c-.16-1.91-.87-3.97-.38-5.7,3.59-12.72,7.39-25.38,11.21-38.04.43-1.44,1.41-2.71,2.34-4.46,4.89,3.7,4.15,8.47,2.81,12.1-3.63,9.9-8.12,19.48-12.36,29.15-1.05,2.39-2.43,4.63-3.65,6.93,0,0,.02.01.02.01Z"/>
      <path class="cls-2" d="M72.25,462.88c-.42,0-.83,0-1.25,0,.97-15.79,1.92-31.58,2.96-47.36.03-.44.96-.81,2.51-2.05,4.78,17.49,1.49,33.53-4.22,49.42Z"/>
      <path class="cls-1" d="M133.65,713.77v5"/>
      <path class="cls-1" d="M133.65,725.77c1.85,9,1.32,18,0,27"/>
      <path class="cls-1" d="M133.65,769.77c2,5.67,4,11.33,6,17"/>
      <path class="cls-1" d="M149.65,1483.77c.67,2.33,1.33,4.67,2,7"/>
      <path class="cls-1" d="M151.65,1499.77c2.67,18,5.33,36,8,54"/>
      <path class="cls-1" d="M9.65,177.77h3"/>
      <path class="cls-1" d="M55.65,199.77c8.72,9.06,8.05,20.81,8.93,32.01.7,8.97.74,17.99,1.07,26.99"/>
      <path class="cls-1" d="M179.65,269.77c-6.33,4-12.67,8-19,12"/>
      <path class="cls-1" d="M139.65,393.77c-3.35,4.09-6.67,8.19-6,14"/>
      <path class="cls-1" d="M149.65,725.77c-1.88,6.21-4.66,12.32-2,19"/>
      <path class="cls-1" d="M153.65,287.77c-9.76-.22-16.8,6.34-25,10"/>
      <path class="cls-1" d="M121.65,305.77c-.77.92-1.53,1.84-2.7,3.24,9.77,4.58,16.26-2.53,23.7-5.24"/>
      <path class="cls-1" d="M161.65,305.77c2.67,3.67,5.33,7.33,8,11"/>
      <path class="cls-1" d="M283.65,88.77c-.67,2-1.33,4-2,6"/>
      <path class="cls-1" d="M29.65,669.77c-7.33,2-14.67,4-22,6"/>
      <path class="cls-1" d="M85.65,455.77c-6.33,4.67-12.67,9.33-19,14"/>
      <path class="cls-1" d="M57.65,441.77l-3-12"/>
      <path class="cls-1" d="M249.65,353.77c-2.33,3-4.83,5.89-6.95,9.03-2.06,3.04-4.95,3.12-8.05,2.97"/>
      <path class="cls-1" d="M389.65,283.77c-.67-1-1.33-2-2-3"/>
      <path class="cls-1" d="M347.65,261.77c-6,.67-12,1.33-18,2"/>
      <path class="cls-1" d="M295.65,39.77l6-9"/>
      <path class="cls-1" d="M317.65,39.77c-1.33,3-2.67,6-4,9"/>
      <path class="cls-1" d="M297.65,79.77c7.36,7.89,15.58,14.69,25,20"/>
      <path class="cls-1" d="M357.65,115.77c1.67,1.33,3.33,2.67,5,4"/>
      <path class="cls-1" d="M329.65,331.77c2.97,3.07,6.85,5.81,4,11"/>
      <path class="cls-1" d="M313.65,331.77c-3.67-3-7.33-6-11-9"/>
      <path class="cls-1" d="M246.65,69.77c-3.67,7.67-7.33,15.33-11,23"/>
      <path class="cls-1" d="M65.65,197.77c-1.67,2-3.33,4-5,6"/>
      <path class="cls-1" d="M215.65,197.77c5,3.33,10,6.67,15,10"/>
      <path class="cls-1" d="M288.65,306.77c.15,9.02-3,17.4-5,26"/>
      <path class="cls-1" d="M75.65,441.77c-1.33,8-2.67,16-4,24"/>
      <path class="cls-1" d="M141.65,265.77c4.79,6.02,5.6,14.77,13,19"/>
      <path class="cls-1" d="M271.65,73.77c-2-2.33-4-4.67-6-7"/>
      <path class="cls-1" d="M245.65,117.77c-3.33,3.33-6.67,6.67-10,10-.33.33-.93.67-.93,1,0,.33.59.67.93,1"/>
      <path class="cls-1" d="M293.65,29.77c-2,3.67-4,7.33-6,11"/>
      <path class="cls-1" d="M273.65,39.77c-.67,1-1.33,2-2,3"/>
      <path class="cls-1" d="M317.65,312.77c5.33.67,10.69,1.2,16,2.03,7.69,1.2,15.34,4.09,23.53-.2-7.41-9.42-18.3-10.4-28.52-12.83"/>
      <path class="cls-1" d="M321.65,301.77c-1-.67-2-1.33-3-2"/>
      <path class="cls-1" d="M107.65,673.77c2,4.33,4,8.67,6,13"/>
      <path class="cls-1" d="M150.65,304.77c-1,6.67-2,13.33-3,20"/>
      <path class="cls-1" d="M147.65,335.77c2,5.33,4,10.67,6,16"/>
      <path class="cls-1" d="M145.65,239.77c1.33,2.33,2.67,4.67,4,7"/>
      <path class="cls-1" d="M150.65,667.77c-.33,3-.67,6-1,9"/>
      <path class="cls-1" d="M147.65,689.77c-2.33,5-5.43,9.81-6.76,15.06-1.12,4.44-2.93,7-7.24,7.94"/>
      <path class="cls-1" d="M29.65,715.77c-8.67,9.33-17.33,18.67-26,28"/>
      <path class="cls-1" d="M167.65,699.77v3"/>
      <path class="cls-1" d="M163.65,723.77c-3.67,7.67-7.33,15.33-11,23"/>
      <path class="cls-1" d="M339.65,273.77c4.33,2.56,10.79,2.28,12.41,9.84-7.37.78-13.43-2.01-19.35-4.96-.8-.4-.73-2.54-1.06-3.87"/>
      <path class="cls-1" d="M250.65,244.77c-1.33,1.67-3.79,3.32-3.81,5-.08,8.33.48,16.66.81,25"/>
      <path class="cls-1" d="M247.65,283.77c1,1.33,2,2.67,3,4"/>
      <path class="cls-1" d="M333.65,41.77c-3.67,2-7.23,4.23-11.04,5.92-2.47,1.1-5.3,1.41-7.96,2.08"/>
      <path class="cls-1" d="M322.65,116.77c-.67,1.67-1.33,3.33-2,5"/>
      <path class="cls-1" d="M299.65,139.77l-15,6"/>
      <path class="cls-1" d="M269.65,369.77h-3"/>
      <path class="cls-1" d="M249.65,375.77c-6.33,2.33-12.67,4.67-19,7"/>
      <path class="cls-1" d="M45.65,481.77c2.67,6.67,5.14,13.42,8.12,19.95.92,2.01,3.22,3.39,4.88,5.05"/>
      <path class="cls-1" d="M117.65,175.77c-1.67.67-3.33,1.33-5,2"/>
      <path class="cls-1" d="M95.65,175.77c-1-.67-2-1.33-3-2"/>
      <path class="cls-1" d="M312.65,143.77c-4.34-.74-3.32,3.29-3.82,5.05-1.49,5.19-2.18,10.62-3.18,15.95"/>
      <path class="cls-1" d="M61.65,701.77c-4.18,1.88-8.2,1.7-12-1"/>
      <path class="cls-1" d="M41.65,147.77c-3.3-2.72-5.03.07-7.13,2.19,1.01,1.55,2.07,3.18,3.13,4.81"/>
      <path class="cls-1" d="M53.65,169.77c4.15,2.81,5.48,9.36,12,9"/>
      <path class="cls-1" d="M90.65,158.77c3.67-2,7.33-4,11-6"/>
      <path class="cls-1" d="M169.65,423.77c-3.64,2.74-1.44,6.64-2,10"/>
      <path class="cls-1" d="M140.65,665.77c-1.67,7.33-3.14,14.72-5.1,21.97-.68,2.51-2.56,4.69-3.9,7.03"/>
      <path class="cls-1" d="M327.65,268.77c-2.33,1-4.67,2-7,3"/>
      <path class="cls-1" d="M319.65,272.77l-20,20"/>
      <path class="cls-1" d="M285.65,279.77c-5.2-10.84-5.37-11.69-4-20"/>
      <path class="cls-1" d="M321.65,122.77h6"/>
      <path class="cls-1" d="M351.65,131.77c1,.67,2,1.33,3,2"/>
      <path class="cls-1" d="M361.65,135.77c1,.67,2,1.33,3,2"/>
      <path class="cls-1" d="M215.65,373.77l6,18"/>
      <path class="cls-1" d="M7.65,516.77c-5.83,6.67-6.03,14.8-6,23"/>
      <path class="cls-1" d="M105.65,165.77l-18-3"/>
      <path class="cls-1" d="M157.65,337.77c-1,2.67-2,5.33-3,8"/>
      <path class="cls-1" d="M312.65,135.77c1.67,6.33,3.33,12.67,5,19"/>
      <path class="cls-1" d="M359.65,177.77v-3"/>
      <path class="cls-1" d="M359.65,107.77c-1.67.67-3.33,1.33-5,2"/>
      <path class="cls-1" d="M63.65,653.77c4.33,3.33,8.67,6.67,13,10"/>
      <path class="cls-1" d="M318.65,130.77c1,1.33,2,2.67,3,4"/>
      <path class="cls-1" d="M192.65,388.77c-4.72,6.92-2.43,13.49,1,20"/>
      <path class="cls-1" d="M302.65,96.77c-1,1.33-2,2.67-3,4"/>
      <path class="cls-1" d="M283.65,109.77c-1.33,1.67-2.67,3.33-4,5"/>
      <path class="cls-1" d="M77.65,129.77v3"/>
      <path class="cls-1" d="M76.65,146.77c.67,5,1.33,10,2,15"/>
      <path class="cls-1" d="M115.65,157.77c-1.33,2-2.67,4-4,6"/>
      <path class="cls-1" d="M144.65,761.77c-1.33,5.33-2.67,10.67-4,16"/>
      <path class="cls-1" d="M95.65,147.77c-2.33,3-4.67,6-7,9"/>
      <path class="cls-1" d="M147.65,714.77c-6.53,2.4-5.2,9.85-9,14"/>
      <path class="cls-1" d="M159.65,320.77c2.33,1,4.63,2.11,7.01,2.97,2.28.82,4.66,1.37,6.99,2.03"/>
      <path class="cls-1" d="M80.65,143.77c.67,2.33,1.33,4.67,2,7,.67,2.33,1.33,4.67,2,7"/>
      <path class="cls-1" d="M275.65,281.77c3.16.51,4.54,6.37,9,3"/>
      <path class="cls-1" d="M200.65,395.77c-1.5,2.87-3.17,5.72-1,9"/>
    </g>
  </g>
</svg>