<?xml version="1.0" encoding="UTF-8"?>
<svg id="Layer_1" data-name="Layer 1" xmlns="http://www.w3.org/2000/svg" viewBox="0 0 262.5 246.79">
  <defs>
    <style>
      .cls-1 {
        fill: #ededed;
        stroke-width: 0px;
      }
    </style>
  </defs>
  <path class="cls-1" d="M97.46,171.89c1.89.39,3.53.99,5.17,1,2.25.02,4.52-.28,6.74-.68,5.62-1,11.14-2.36,16.46-4.49,7.02-2.8,13.52-6.49,19.28-11.38,7.11-6.03,12.39-13.36,15.04-22.41,1.08-3.67,1.62-7.44,1.35-11.24-.56-7.7-3.38-14.51-8.39-20.43-6.51-7.71-14.97-12.25-24.44-15.18-3.74-1.15-7.54-1.89-11.47-1.95-3.74-.06-7.48-.47-11.21-.4-3.39.07-6.78.58-10.16.89-1.94.18-3.88.37-5.82.47-.6.03-1.22-.24-2.12-.44,1.42-1.08,2.6-1.97,3.77-2.89.52-.41.94-.93,1.49-1.29.66-.44,1.4-.76,2.1-1.14,2.46-1.33,4.86-2.78,7.39-3.97,5.35-2.52,10.97-4.21,16.78-5.4,5.98-1.22,12.01-1.46,18.03-1.11,7.74.45,15.21,2.29,22.34,5.43,4.98,2.19,9.64,4.9,13.89,8.28,7.14,5.68,12.63,12.63,15.64,21.3,1.14,3.28,2.09,6.7,2.57,10.13.44,3.12.22,6.35.1,9.52-.18,4.78-1.55,9.3-3.32,13.71-1.86,4.64-4.41,8.88-7.51,12.76-1.9,2.39-3.97,4.66-6.11,6.84-4.51,4.62-9.74,8.33-15.36,11.46-6.24,3.48-12.76,6.36-19.73,8.02-3.78.9-7.64,1.46-11.47,2.08-1.72.28-3.48.54-5.21.45-2.34-.12-4.65-.65-6.99-.88-4.06-.4-7.78-1.9-11.5-3.39-2.22-.89-4.38-1.91-6.56-2.9-.23-.11-.38-.4-.76-.8ZM119.09,174.03l.02.12c1.61-.16,3.22-.29,4.82-.47,3.45-.4,6.94-.6,10.34-1.27,7.79-1.54,15.23-4.13,22.19-8.05,8.91-5.02,16.49-11.5,22.25-19.99,4.38-6.46,7.33-13.51,7.7-21.38.15-3.26-.12-6.61-.69-9.83-1.9-10.65-7.59-19.12-15.81-25.9-5.76-4.76-12.41-7.97-19.58-10.06-4.7-1.37-9.47-2.42-14.38-2.55-4.37-.11-8.77-.29-13.12.06-3.94.32-7.84,1.25-11.73,2.02-1.85.37-3.64.99-5.46,1.5.49.14.91,0,1.33,0,2.98-.02,5.97-.01,8.95-.01,4.29,0,8.5.64,12.7,1.42,6.22,1.15,12.2,3.04,17.88,5.81,6.84,3.33,12.89,7.68,17.67,13.71,6.65,8.4,9.48,17.87,8.42,28.54-.36,3.56-1.34,6.94-2.75,10.2-3.59,8.3-9.39,14.89-16.39,20.42-8.06,6.37-17.16,10.79-27,13.69-2.43.72-4.89,1.35-7.34,2.02ZM143.21,90.21c-.09.12-.18.23-.27.35,10.11,5.85,17.94,13.62,20.98,25.29,3.02,11.58.44,22.18-5.93,32.09.87-.88,1.67-1.78,2.39-2.74,3.99-5.43,6.95-11.36,7.57-18.15.44-4.75.01-9.48-1.73-14.02-2.81-7.34-7.54-13.16-14.04-17.49-2.89-1.93-5.97-3.56-8.97-5.32Z"/>
  <path class="cls-1" d="M201.32,99.97c2.16-1.4,4.07-2.78,6.12-3.92,6.7-3.72,13.82-6.52,20.91-9.38,7.3-2.94,14.79-5.35,22.48-7.05,1.86-.41,3.89-.06,5.87.14-1.27,2.08-2.82,3.63-5.02,4.43-9.81,3.57-19.61,7.18-29.68,9.99-6.76,1.89-13.47,3.98-20.2,5.98-.03,0-.07-.03-.47-.19Z"/>
  <path class="cls-1" d="M62.4,138.97c-1.3.47-2.6.95-3.9,1.41-5.5,1.94-11.21,2.99-16.92,4.03-3.67.67-7.35,1.36-11.05,1.88-2.77.39-5.58.6-8.38.74-2.49.13-5,.09-7.49.05-1.91-.04-3.12-2.32-2.4-4.11.45-1.12,1.24-1.53,2.28-1.65,2.55-.27,5.1-.49,7.65-.75,7.44-.75,14.9-.97,22.38-.97,2.62,0,5.25-.09,7.87-.24,3.19-.18,6.38-.46,9.57-.7.1,0,.2.04.3.07.03.08.05.16.08.24Z"/>
  <path class="cls-1" d="M153.17,52.62c.39-1.25.63-2.58,1.21-3.74,4.31-8.57,8.56-17.17,13.11-25.61,2.79-5.16,6.04-10.08,9.19-15.04.47-.74,1.5-1.2,2.36-1.58.66-.29,1.15.27,1.17.92.02.73-.03,1.54-.31,2.2-3.89,9.31-8.41,18.32-13.84,26.83-2.54,3.97-5.26,7.83-7.97,11.68-.96,1.36-2.11,2.58-3.22,3.82-.32.35-.8.55-1.21.81-.16-.1-.32-.2-.48-.3Z"/>
  <path class="cls-1" d="M262.5,91.16c-1.79,2.42-4.26,3.39-6.9,4.06-7.6,1.93-15.17,4-22.82,5.72-8.66,1.95-17.38,3.57-26.08,5.35-1.41.29-2.79.66-4.27.73.36-.13.71-.26,1.07-.38,5.47-1.93,10.92-3.94,16.42-5.76,11.07-3.65,22.25-6.9,33.63-9.45,2.75-.62,5.51-1.07,8.33-.5.18.04.35.13.62.23Z"/>
  <path class="cls-1" d="M79.18,174.28c-2.33,2.91-4.56,5.93-7.03,8.72-3.01,3.4-6.08,6.78-9.41,9.86-4.44,4.11-9.15,7.92-13.74,11.86-1.24,1.06-3.89.83-4.25-1.4-.14-.91.21-1.53.83-2.08,2.05-1.82,4.09-3.65,6.16-5.45,3.41-2.95,6.79-5.94,10.26-8.81,4.01-3.31,8.09-6.53,12.16-9.77,1.35-1.08,2.74-2.11,4.12-3.14.16-.12.42-.1.63-.14.09.12.18.24.27.35Z"/>
  <path class="cls-1" d="M200.09,145.99c2.08.67,4.18,1.28,6.24,2.02,12.09,4.37,23.94,9.29,35.45,15.04,1.58.79,2.51,1.98,3.3,3.4.31.56-.05.77-.64,1.02-3,1.26-5.39-.41-7.79-1.62-7.17-3.63-14.3-7.35-21.39-11.12-4.96-2.64-9.84-5.42-14.76-8.13-.16-.09-.32-.18-.49-.27.03-.11.05-.22.08-.33Z"/>
  <path class="cls-1" d="M192.71,158.93c1.68.56,3.42,1,5.04,1.71,12.08,5.29,24.02,10.87,35.24,17.85.13.08.28.16.4.26.9.73,1.62,2.42,1.29,2.98-.46.77-2.53,1.15-3.62.57-3.85-2.06-7.77-4.01-11.51-6.26-9.07-5.47-18.04-11.09-27.06-16.66l.21-.45Z"/>
  <path class="cls-1" d="M138.28,195.19c.39,1.44.92,2.86,1.15,4.33.56,3.61,1.04,7.24,1.46,10.87.53,4.6,1.14,9.2,1.38,13.81.24,4.54.1,9.1.04,13.66-.02,1.29-1.06,2.08-1.94,2.88-.09.08-.3.07-.44.04-.71-.17-2.13-2-2.14-2.79-.09-7.74-.19-15.48-.23-23.21-.01-2.74.19-5.49.21-8.23.04-3.77,0-7.53,0-11.3.17-.02.33-.03.5-.05Z"/>
  <path class="cls-1" d="M91.58,63.39c-2.57-3.15-5.17-6.27-7.7-9.45-5.64-7.1-11.37-14.15-15.88-22.07-.62-1.09-.42-2.69.55-3.52.56-.48,1.21-.87,1.86-.12,1.27,1.45,2.6,2.86,3.75,4.4,4.81,6.48,8.79,13.49,12.7,20.53,1.77,3.19,3.28,6.54,4.9,9.81.04.09.06.19.09.28-.09.04-.18.09-.27.13Z"/>
  <path class="cls-1" d="M116.06,192.59c.83,2.61.2,4.98-.41,7.27-2.06,7.78-4.31,15.52-7.36,22.98-.92,2.26-1.91,4.49-3.02,6.65-.36.7-1.19,1.22-1.91,1.65-.56.34-1.4-.54-1.3-1.52.13-1.24.42-2.48.75-3.7,2.19-8.05,5.14-15.84,8.35-23.53,1-2.39,2.02-4.78,3.13-7.13.45-.96,1.17-1.8,1.77-2.69Z"/>
  <path class="cls-1" d="M162.02,240.89c-1.12-1.42-2.23-2.79-2.67-4.62-1.22-5.14-2.56-10.25-3.72-15.4-.94-4.21-1.69-8.47-2.51-12.71-.57-2.92-1.16-5.84-1.64-8.78-.28-1.71-.35-3.45-.52-5.18-.05-.54-.13-1.08-.2-1.62.09-.04.19-.07.28-.11.85,2.21,1.79,4.39,2.53,6.64,2.63,8.07,5.02,16.22,6.7,24.55.85,4.2,1.72,8.4,2.38,12.63.22,1.41-.16,2.91-.28,4.37,0,.07-.18.12-.36.23Z"/>
  <path class="cls-1" d="M203.15,115.14c2.26-.7,4.51-1.48,6.79-2.1,7.08-1.91,14.15-3.87,21.27-5.61,5.8-1.41,11.65-2.58,17.51-3.7,1.16-.22,2.46.22,3.89.38-1.08,1.55-2.28,2.49-3.88,2.88-6.78,1.67-13.53,3.45-20.35,4.96-3.45.76-7,1.04-10.51,1.52-2.93.4-5.86.8-8.79,1.17-1.98.25-3.96.47-5.95.7,0-.07,0-.14.01-.21Z"/>
  <path class="cls-1" d="M66.3,152.58c-2.98,2.12-5.84,4.46-8.97,6.32-7.33,4.36-14.89,8.27-22.98,11.06-2.11.73-4.28,1.28-6.43,1.89-.91.26-1.85.41-2.35-.68-.45-1.01.16-2.51,1.17-2.92,3.89-1.56,7.77-3.17,11.71-4.63,9.28-3.43,18.63-6.68,27.44-11.25.06-.03.15,0,.23,0l.18.2Z"/>
  <path class="cls-1" d="M184.11,172.61c2.11,1.64,4.24,3.25,6.33,4.92,2.82,2.24,5.63,4.49,8.41,6.78,1.84,1.52,3.68,3.04,5.42,4.67,3.51,3.27,6.99,6.56,10.38,9.94.67.67.98,1.76,1.26,2.71.07.25-.62,1.04-.91,1.01-.78-.07-1.69-.26-2.27-.74-2.23-1.84-4.4-3.76-6.52-5.75-4.85-4.55-9.74-9.08-14.46-13.78-2.62-2.6-4.94-5.5-7.36-8.28-.29-.33-.42-.8-.62-1.2.11-.1.22-.19.33-.29Z"/>
  <path class="cls-1" d="M246.2,128.32c-1.05.95-2.31,1.76-3.69,1.89-2.57.24-5.17.2-7.75.21-1.67,0-3.35-.06-5.02-.17-4.47-.29-8.94-.62-13.41-.94-2.25-.16-4.51-.29-6.75-.5-2.11-.2-4.22-.51-6.33-.77-.01-.12-.02-.23-.03-.35,2.96-.34,5.9-.82,8.87-1.01,5.44-.34,10.89-.68,16.33-.69,4.6-.01,9.22.36,13.81.72,1.32.1,2.59.76,3.88,1.17.03.15.05.29.08.44Z"/>
  <path class="cls-1" d="M84.5,6.61c.3.34.62.68.91,1.04,3.92,4.84,6.13,10.62,8.75,16.16,2.75,5.79,5.43,11.62,7.97,17.5,2.01,4.64,3.76,9.39,5.61,14.1.02.05-.06.14-.18.41-.97-1.48-2-2.79-2.76-4.24-3.23-6.14-6.48-12.28-9.53-18.51-2.94-6.02-5.72-12.11-8.41-18.25-1.12-2.56-1.8-5.31-2.69-7.98.11-.07.21-.15.32-.22Z"/>
  <path class="cls-1" d="M73.49,84.28c-1.72-1.13-3.46-2.23-5.14-3.41-7.6-5.35-15.22-10.66-22.75-16.1-4.03-2.91-7.93-5.99-11.78-9.14-1.13-.93-1.89-2.32-2.79-3.52-.1-.13-.03-.4-.03-.6.21.01.42,0,.62.05,2.67.65,4.82,2.21,6.94,3.86,4.54,3.51,9.16,6.92,13.68,10.45,2.98,2.33,5.88,4.78,8.76,7.22,4.05,3.43,8.05,6.92,12.07,10.38.21.18.39.4.58.6-.06.07-.11.14-.17.22Z"/>
  <path class="cls-1" d="M170.91,183.67c1.13,1.21,2.34,2.35,3.37,3.64,3.45,4.33,6.92,8.64,10.2,13.09,2.48,3.36,4.73,6.9,6.95,10.44.7,1.11.94,2.5,1.25,3.9-1.69-.16-3.33-.46-4.35-1.74-6.03-7.53-11.16-15.66-15.74-24.15-.83-1.54-1.41-3.21-2.1-4.82l.42-.37Z"/>
  <path class="cls-1" d="M124.55,195.5c.14.39.42.78.4,1.16-.1,2.54-.23,5.07-.43,7.6-.16,2.04-.4,4.09-.67,6.12-.57,4.22-1.13,8.44-1.82,12.64-.39,2.4-1.05,4.75-1.52,7.14-.21,1.08-.82,1.66-1.8,1.96-.89.27-1.85-.36-1.79-1.3.1-1.73.24-3.47.49-5.19.42-2.96.79-5.93,1.44-8.84,1.47-6.58,3.1-13.13,4.68-19.68.13-.55.45-1.06.68-1.59.11,0,.23,0,.34-.01Z"/>
  <path class="cls-1" d="M61.92,122.13c-.35.07-.7.2-1.05.21-3.3.09-6.61.16-9.91.25-2.67.07-5.34.29-8,.21-4.29-.13-8.58-.43-12.86-.7-1.38-.09-2.79-.16-4.11-.51-1.23-.32-2.38-.99-3.52-1.58-.11-.06-.04-.91.1-.96,1.18-.4,2.38-.95,3.59-.98,3.14-.07,6.29-.02,9.43.22,4.84.37,9.67.83,14.48,1.45,3.34.44,6.62,1.23,9.94,1.84.63.11,1.27.11,1.91.16v.38Z"/>
  <path class="cls-1" d="M165.85,59.33c1.72-2.98,3.37-6,5.16-8.93,4.65-7.62,9.98-14.77,15.41-21.84.75-.97,1.92-1.63,2.93-2.37.6-.44,1.05-.18.93.53-.26,1.48-.12,3.04-1.15,4.36-3.87,4.99-7.6,10.1-11.53,15.04-2.57,3.23-5.4,6.25-8.11,9.37-1.15,1.33-2.3,2.65-3.45,3.98-.07-.05-.13-.09-.2-.14Z"/>
  <path class="cls-1" d="M201.94,133.63h2.11c-.74-.92-.02-1.14.57-1.18,3.06-.18,6.11-.36,9.17-.41,2.51-.04,5.02.12,7.54.14,3.36.03,6.34,1.11,8.97,3.18,1.17.92,1.09,1.6-.29,2.38-2.05,1.15-4.2,1.05-6.42.56-6.39-1.42-12.79-2.8-19.19-4.17-.8-.17-1.62-.22-2.43-.32,0-.06-.02-.12-.02-.17Z"/>
  <path class="cls-1" d="M194.84,84.67c1.78-1.27,3.49-2.66,5.36-3.8,7.89-4.81,15.82-9.57,23.77-14.28.81-.48,1.83-.69,2.78-.81.94-.12,1.34.51.88,1.35-.38.69-.91,1.43-1.57,1.81-6.45,3.73-12.87,7.51-19.44,11.02-3.55,1.9-7.37,3.3-11.07,4.91-.16.07-.38,0-.57,0-.04-.07-.09-.14-.13-.21Z"/>
  <path class="cls-1" d="M89.39,183.72c-.21.39-.38.81-.64,1.16-3.33,4.32-6.54,8.73-10.04,12.9-3.32,3.96-7.04,7.59-10.42,11.5-1.75,2.02-3.81,3.53-6.09,4.83-.21.12-.41.23-.63.33-.05.02-.14-.03-.54-.14.91-1.64,1.53-3.45,2.71-4.76,3.98-4.45,8.09-8.8,12.29-13.05,3.67-3.71,7.53-7.24,11.29-10.86.65-.63,1.19-1.36,1.78-2.04.09.05.19.1.28.15Z"/>
  <path class="cls-1" d="M161.11,55.21c1.05-5.43,21.57-38.87,25.54-41.87.06.37.16.65.13.91-.43,3.04-2.23,5.42-3.84,7.87-6.89,10.46-13.83,20.89-20.74,31.33-.38.57-.72,1.17-1.08,1.76Z"/>
  <path class="cls-1" d="M124.47,9.35c1.08,1.31,1.79,2.86,1.99,4.52.43,3.72.68,7.47,1,11.21.4,4.73.81,9.45,1.2,14.18.25,3.03.46,6.07.73,9.1.09.98.28,1.96.42,2.93-.1.02-.21.04-.31.06-.36-1.4-.77-2.78-1.06-4.19-.98-4.65-2.04-9.28-2.84-13.96-.61-3.58-.85-7.21-1.26-10.82-.32-2.83-.74-5.65-.89-8.49-.08-1.48.35-3,.55-4.49.16-.01.31-.03.47-.04Z"/>
  <path class="cls-1" d="M164.56,186.61c3.87,6.09,7.75,12.16,11.59,18.26,1.09,1.73,2,3.57,3.09,5.3.82,1.3,1.19,2.65.9,4.33-1.36-.47-2.77-.84-3.62-2.01-4.99-6.84-8.77-14.32-11.52-22.31-.38-1.1-.59-2.26-.88-3.39.15-.06.29-.12.44-.18Z"/>
  <path class="cls-1" d="M87.01,66.38c-1.47-1.28-2.99-2.51-4.4-3.86-4.84-4.64-9.25-9.65-13.16-15.09-1.05-1.46-.85-2.94.47-3.77.68-.43,1.2-.41,1.72.21,1.35,1.61,2.82,3.13,4.05,4.82,3.14,4.3,6.2,8.66,9.23,13.04.93,1.35,1.67,2.83,2.49,4.25-.13.13-.27.27-.4.4Z"/>
  <path class="cls-1" d="M67.91,99.27c-1.01-.14-2.04-.25-3.04-.44-4.83-.88-9.71-1.58-14.48-2.71-6.23-1.47-12.36-3.31-18.56-4.91-2-.52-3.9-1.15-5.72-2.7.68-.18,1.19-.38,1.72-.45,2.38-.3,4.61.4,6.85,1.07,9.6,2.86,19.19,5.74,28.79,8.6,1.49.44,2.99.84,4.48,1.25,0,.09-.02.19-.03.28Z"/>
  <path class="cls-1" d="M141.86,51.47c0-6.78-.05-13.41.02-20.03.03-2.98.27-5.95.46-8.93.2-3.12.4-6.25.76-9.35.12-1.07.74-2.09,1.13-3.13.18,0,.36,0,.54-.01.31,1.12.9,2.25.87,3.37-.1,3.76-.41,7.52-.66,11.27-.15,2.29-.27,4.59-.5,6.87-.24,2.43-.59,4.84-.9,7.26-.26,2.07-.49,4.14-.78,6.21-.29,2.12-.62,4.23-.95,6.47Z"/>
  <path class="cls-1" d="M98.79,60.18c-.72-.63-1.59-1.15-2.13-1.9-3.14-4.3-6.21-8.65-9.27-13-.95-1.36-1.82-2.77-2.67-4.2-.9-1.5-.33-3.1-.45-4.83,2.2.71,3.57,1.94,4.53,3.7,3.3,6.09,6.63,12.18,9.92,18.28.26.49.36,1.07.54,1.6-.16.12-.31.23-.47.35Z"/>
  <path class="cls-1" d="M176.86,177.48c1.28,1.01,2.62,1.96,3.84,3.04,2.2,1.95,4.43,3.89,6.47,6.01,2.39,2.49,4.68,5.09,6.82,7.79.92,1.15,1.37,2.68,2.17,4.31-2.19-.13-3.88-.46-5.17-1.84-3.84-4.12-7.33-8.51-10.38-13.25-1.17-1.82-2.44-3.58-3.65-5.36-.12-.17-.19-.37-.28-.56.06-.05.12-.09.17-.14Z"/>
  <path class="cls-1" d="M50.3,43.95c1.81,1.14,3.74,2.12,5.39,3.46,4.27,3.46,8.43,7.07,12.61,10.65,2.28,1.96,4.51,4,6.75,6.01,2.33,2.09,4.66,4.19,6.98,6.29.05.04.04.14.15.63-2.08-1.31-4-2.32-5.7-3.63-4.72-3.63-9.4-7.32-14-11.09-3.25-2.67-6.4-5.47-9.5-8.31-1.15-1.05-2.03-2.4-3.03-3.62.12-.13.23-.26.35-.39Z"/>
  <path class="cls-1" d="M158.04,189.85c1.72,3.74,3.56,7.43,5.12,11.23,1.96,4.75,3.74,9.58,5.48,14.42.4,1.11.31,2.41.47,3.86-1.78-.54-2.89-1.58-3.45-2.94-2.98-7.19-5.54-14.54-7.36-22.12-.34-1.4-.45-2.86-.66-4.29.13-.05.27-.1.4-.15Z"/>
  <path class="cls-1" d="M85.04,225.1c.43-1.55.57-3.27,1.33-4.63,2.7-4.84,5.51-9.62,8.47-14.31,3.18-5.04,6.58-9.94,10.05-14.82-.62,1.34-1.23,2.69-1.86,4.03-4.22,9.05-9.21,17.69-14.22,26.32-.26.44-.58.85-.91,1.24-.73.83-1.5,1.64-2.25,2.46l-.6-.29Z"/>
  <path class="cls-1" d="M63.34,107.99c-1.6,0-3.2.04-4.8-.01-1.38-.04-2.77-.11-4.15-.28-3.55-.43-7.1-.91-10.65-1.39-1.68-.23-3.4-.32-5-.8-1.27-.38-2.44-1.17-3.57-1.92-.67-.44-.15-.67.33-.94,2.06-1.15,4.15-.54,6.21-.16,4.48.82,8.95,1.66,13.4,2.6,2.4.51,4.76,1.24,7.13,1.9.42.12.8.41,1.19.62-.03.12-.06.25-.09.37Z"/>
  <path class="cls-1" d="M84.16,179.71c-.68.82-1.33,1.66-2.03,2.47-1.69,1.94-3.34,3.94-5.13,5.79-1.91,1.98-3.95,3.83-5.95,5.71-1.33,1.25-2.72,2.44-4.07,3.67-1.14,1.04-2.51,1.45-3.92,1.81-.12-.11-.23-.23-.35-.34.72-1.23,1.22-2.68,2.2-3.66,5.45-5.41,10.98-10.74,17.63-14.72.4-.24.77-.54,1.15-.8.08-.05.18-.07.27-.1.07.06.13.12.2.18Z"/>
  <path class="cls-1" d="M144.48,194.33c.48,1.37,1.14,2.71,1.41,4.12.81,4.24,1.52,8.5,2.19,12.76.33,2.1.57,4.22.68,6.35.04.68-.39,1.42-.74,2.05-.09.17-.77.2-1.05.05-1.39-.78-1.31-2.26-1.5-3.55-.39-2.72-.74-5.45-.97-8.19-.31-3.7-.51-7.42-.72-11.13-.04-.78.11-1.57.17-2.35.17-.04.35-.08.52-.11Z"/>
  <path class="cls-1" d="M112.91,18.54c1.55,1.2,2.36,2.56,2.76,4.08.75,2.84,1.38,5.71,1.95,8.59,1.24,6.27,2.41,12.56,3.62,18.84.21,1.1.5,2.19.52,3.37-.1-.2-.22-.39-.3-.6-3.09-8.08-5.1-16.47-7.18-24.84-.65-2.62-1.7-5.18-1.45-7.97.03-.38.04-.76.08-1.46Z"/>
  <path class="cls-1" d="M131.29,221.38c-1.27-.87-1.74-1.71-1.69-2.92.13-3.3.09-6.61.28-9.9.23-3.94.63-7.87.97-11.8.01-.14.14-.27.39-.72.41.82.89,1.42.99,2.07.33,2.26.56,4.53.74,6.81.15,1.86.3,3.74.22,5.59-.12,2.92-.38,5.84-.72,8.74-.08.72-.74,1.37-1.17,2.13Z"/>
  <path class="cls-1" d="M198.15,92.29c9.22-4.97,18.4-10.03,28.58-12.84l.35.38c-.22.33-.39.71-.66,1-1.81,1.87-4.22,2.71-6.5,3.77-6.57,3.03-13.39,5.37-20.28,7.51-.46.14-.91.32-1.37.48-.04-.1-.08-.21-.12-.31Z"/>
  <path class="cls-1" d="M190.77,164.22c.87.39,1.76.76,2.62,1.18,5.56,2.7,10.55,6.27,15.36,10.09.89.71,1.61,1.67,2.27,2.62.48.69.07,1.19-.74,1.07-.68-.1-1.44-.26-1.99-.64-4.63-3.19-9.47-6.1-13.51-10.09-1.35-1.34-2.8-2.59-4.2-3.87.06-.12.13-.23.19-.35Z"/>
  <path class="cls-1" d="M94.1,187.26c-1.53,4.97-3.98,9.35-7.12,13.35-1.39,1.77-2.76,3.56-4.11,5.35-.74.98-2,1.6-2.56,1.21-.56-.38-.47-2.04.19-2.97,3.43-4.77,6.67-9.7,10.93-13.83.98-.95,1.79-2.07,2.68-3.11Z"/>
  <path class="cls-1" d="M227.86,149.27c-1.22,1.11-2.27,1.35-3.33.92-4.34-1.74-8.69-3.44-12.95-5.35-3.36-1.5-6.6-3.28-9.9-4.94l.15-.38c3.25.94,6.54,1.74,9.73,2.84,4.42,1.52,8.79,3.21,13.14,4.93,1.05.42,1.96,1.21,3.17,1.98Z"/>
  <path class="cls-1" d="M76.07,168.32c-1.35,1.03-2.74,2.03-4.05,3.11-5.65,4.66-11.8,8.58-17.97,12.49-.5.31-1.03.59-1.57.8-.76.29-1.55.51-2.7.87.3-.76.43-1.26.68-1.69,1.22-2.08,3.33-3.07,5.3-4.21,6.49-3.77,13.01-7.5,19.52-11.24.22-.13.48-.18.72-.27.03.05.05.1.08.15Z"/>
  <path class="cls-1" d="M41.68,177.54c1.29-.95,2.45-2.17,3.88-2.81,7.56-3.4,15.18-6.66,22.78-9.98,1-.44,1.95-.97,3.06-1.24-.59.4-1.19.8-1.78,1.2-6,4.06-12.48,7.23-19.07,10.18-2.01.9-3.99,1.86-6.03,2.68-.8.32-1.71.36-2.58.53-.08-.19-.17-.37-.25-.56Z"/>
  <path class="cls-1" d="M203.09,121.98c4.72-1.17,9.38-1.91,14.16-1.81,1.99.04,4-.24,5.99-.17,1.29.04,2.57.45,4.11.75-1.03,1.47-2.14,2.03-3.44,2.07-4.3.13-8.61.28-12.91.22-2.44-.04-4.87-.48-7.31-.75-.18-.02-.34-.17-.6-.3Z"/>
  <path class="cls-1" d="M36.06,155.33c-.04-1.65,1.2-2.11,2.07-2.48,1.78-.75,3.69-1.24,5.58-1.7,5.06-1.22,10.13-2.38,15.2-3.54,1.2-.27,2.42-.43,3.63-.65.04.11.08.23.12.34-.28.16-.54.36-.84.46-7.19,2.41-14.37,4.85-21.59,7.16-1.24.4-2.66.27-4.17.4Z"/>
  <path class="cls-1" d="M70.85,91.06c-2.64-.55-5.33-.94-7.91-1.7-5.26-1.54-10.47-3.23-15.67-4.97-1.19-.4-2.22-1.27-3.33-2.26.35-.11.7-.27,1.06-.31,1.64-.17,3.22.12,4.76.72,6.46,2.52,12.92,5.02,19.38,7.53.57.22,1.16.41,1.74.62-.01.12-.02.24-.03.36Z"/>
  <path class="cls-1" d="M170.86,62.21c1.21-1.66,2.33-3.4,3.65-4.97,2.96-3.53,5.98-7.02,9.08-10.42.63-.69,1.73-.95,2.82-1.52.11,1.58-.03,2.8-.89,3.73-2.22,2.4-4.45,4.81-6.83,7.05-1.86,1.75-3.95,3.26-5.93,4.88-.57.47-1.11.98-1.66,1.47-.08-.07-.16-.14-.25-.22Z"/>
  <path class="cls-1" d="M177.19,65.38c1.98-2.25,3.92-4.54,5.96-6.73,3.45-3.7,6.94-7.37,10.48-10.99.79-.81,1.85-1.37,3.01-2.2.32,1.6-.13,2.67-.93,3.45-4.44,4.28-8.91,8.54-13.45,12.72-1.54,1.42-3.3,2.59-4.97,3.87-.04-.04-.07-.08-.11-.12Z"/>
  <path class="cls-1" d="M197.15,152.44c2.54.78,5.13,1.43,7.61,2.37,3.93,1.48,7.82,3.09,11.67,4.78.82.36,1.41,1.25,2.18,1.97-1.01,1.04-2.05,1.31-3.03.85-3.45-1.6-6.87-3.25-10.24-5-2.8-1.46-5.51-3.09-8.26-4.64.03-.1.06-.21.08-.31Z"/>
  <path class="cls-1" d="M61.8,115.44c-2.61-.17-5.21-.34-7.82-.51-1.3-.09-2.61-.15-3.91-.26-4.6-.39-9.21-.72-13.8-1.24-1.38-.16-2.7-.86-4.05-1.31.02-.14.04-.28.06-.42.87-.13,1.76-.42,2.61-.36,3.22.24,6.45.51,9.66.92,3.7.48,7.37,1.11,11.06,1.69,1.97.31,3.94.65,5.9.99.13.02.24.17.36.26-.02.08-.04.16-.06.24Z"/>
  <path class="cls-1" d="M56.79,63.99c1.08-.27,2.11.01,2.99.66,2.91,2.14,5.82,4.27,8.66,6.51,3.19,2.52,6.29,5.14,9.42,7.73.1.08.13.25.03.56-1.14-.69-2.31-1.34-3.42-2.07-5.12-3.38-10.25-6.74-15.31-10.2-1.03-.7-1.78-1.82-2.66-2.74.09-.15.19-.3.28-.45Z"/>
  <path class="cls-1" d="M58.97,80.12c-.16-.06-.33-.11-.48-.19-7.63-3.53-15.28-7.02-22.87-10.63-1.72-.82-3.22-2.08-4.76-3.41.23,0,.46-.03.67,0,2.45.43,4.72,1.32,6.93,2.47,6.46,3.35,12.94,6.64,18.99,10.7.5.34,1.07.57,1.61.86-.03.06-.06.13-.09.19Z"/>
  <path class="cls-1" d="M101.26,212.85c-.94-1.52-.99-2.88-.36-4.03,2.68-4.89,5.49-9.72,8.24-14.57.29-.5.53-1.03,1.07-1.45-.38,1.17-.71,2.36-1.16,3.5-1.86,4.75-3.72,9.5-5.7,14.21-.35.83-1.26,1.43-2.09,2.33Z"/>
  <path class="cls-1" d="M118.62,0c.46,1.17,1.08,2.31,1.35,3.53.27,1.22.23,2.52.28,3.79.17,4.01.31,8.02.49,12.03.13,2.77.3,5.54.48,8.31.07,1.02.2,2.04.31,3.05-.11.02-.21.03-.32.05-.15-.92-.33-1.83-.45-2.75-.42-3.2-.81-6.4-1.23-9.6-.45-3.36-.97-6.7-1.37-10.06-.28-2.42-.92-4.83-.3-7.29.04-.15.05-.32.11-.46.07-.17.17-.33.26-.5.13-.03.26-.06.39-.09Z"/>
  <path class="cls-1" d="M41.95,132.51c.96-1.24,1.99-1.8,3.45-1.79,2.94.01,5.89-.2,8.83-.19,1.9.01,3.79.27,5.69.42l.11.51c-1.18.4-2.33,1-3.55,1.17-3.16.43-6.35.65-9.52,1.01-1.46.16-2.9.47-4.21-.5-.25-.18-.48-.38-.8-.62Z"/>
  <path class="cls-1" d="M146.66,51.45c.26-1.27.44-2.56.78-3.8,1.31-4.82,2.63-9.65,4.06-14.44.28-.94,1.09-1.73,1.67-2.63,1.36.87,1.13,2.03.85,2.83-1.83,5.23-3.77,10.43-5.73,15.61-.34.89-.96,1.67-1.45,2.5-.06-.02-.13-.05-.19-.07Z"/>
  <path class="cls-1" d="M113.52,55.25c-.22-.24-.38-.34-.42-.47-2.26-7.16-4.54-14.32-6.75-21.5-.24-.77-.11-1.66-.17-2.7,1.48.41,2.03,1.4,2.27,2.35,1.36,5.22,2.62,10.47,3.88,15.72.45,1.9.8,3.83,1.18,5.75.04.22,0,.45,0,.84Z"/>
  <path class="cls-1" d="M187.79,75.24c1.74-2.01,3.36-4.15,5.24-6.01,2.03-2.01,4.31-3.77,6.5-5.61.35-.29.79-.53,1.22-.67.82-.25,1.26.28,1.18,1.17-.08.98-.67,1.52-1.37,2.06-3.28,2.53-6.53,5.1-9.82,7.63-.83.64-1.75,1.16-2.63,1.73-.11-.1-.22-.2-.33-.3Z"/>
  <path class="cls-1" d="M99.7,190.25c-1.94,3.41-3.85,6.84-5.83,10.23-.89,1.53-1.89,3-2.84,4.5-.04.06-.03.19-.08.22-.76.39-1.52.76-2.29,1.14-.02-.93-.42-2.14.02-2.75,2.25-3.14,4.7-6.13,7.11-9.15,1.19-1.49,2.44-2.94,3.66-4.41.08.08.16.15.24.23Z"/>
  <path class="cls-1" d="M134.52,28.51c1.35,1.55,1.46,3.05,1.28,4.62-.05.47-.18.94-.18,1.41-.02,4.63-.34,9.23-1.19,13.79-.08.42-.01.86-.09,1.29-.8-4.54-.99-9.12-.88-13.71.04-1.78.1-3.57.26-5.35.06-.62.45-1.2.8-2.05Z"/>
  <path class="cls-1" d="M202.61,180.31c-2.12.04-3.25-1.04-4.43-2.01-1.95-1.61-3.93-3.19-5.8-4.89-1.26-1.15-2.35-2.49-3.51-3.75-.43-.47-.86-.93-1.3-1.4l.2-.26c1.02.62,2.04,1.24,3.06,1.85,3.74,2.26,7.06,5.06,10.23,8.03.62.58.95,1.47,1.54,2.42Z"/>
  <path class="cls-1" d="M32.62,155.87c-7.79,2.89-15.09,6.51-23.01,8.41-.1-.17-.2-.34-.3-.51.75-.56,1.42-1.29,2.25-1.66,6.62-2.9,13.56-4.77,20.58-6.39.07-.02.15.04.48.16Z"/>
  <path class="cls-1" d="M182.59,70.05c4.04-4.64,7.57-9.79,13.31-13.23.14,1.52-.24,2.54-1.04,3.25-3.17,2.81-6.4,5.55-9.62,8.31-.79.67-1.62,1.29-2.43,1.94-.08-.09-.15-.18-.23-.27Z"/>
  <path class="cls-1" d="M206.35,21.69c.07,1.4-.51,2.52-1.29,3.49-3.2,3.97-6.46,7.91-9.7,11.85-1.62,1.97-3.26,3.93-5.1,5.74,2.58-3.62,5.08-7.3,7.75-10.85,2.64-3.5,4.77-7.44,8.33-10.23Z"/>
  <path class="cls-1" d="M206.36,70.89c-.51,1.62-1.3,2.71-2.64,3.53-2.4,1.48-4.68,3.15-7.03,4.72-.41.28-.87.49-1.61.58.13-.43.12-.99.4-1.26,1.83-1.79,3.68-3.57,5.61-5.24,1.26-1.09,2.55-2.24,4.36-2.37.25-.02.51.02.9.04Z"/>
  <path class="cls-1" d="M131.2,229.68c-.26,1.66-.59,3.52-.83,5.38-.1.82-.52,1.6-1.22,1.37-.6-.19-1.18-1.06-1.38-1.74-.2-.66.08-1.47.18-2.21.28-2,.27-4.09,1.53-5.83.19-.27.5-.45.75-.67.2.26.51.49.57.78.18.88.25,1.78.4,2.92Z"/>
  <path class="cls-1" d="M209.55,183.3c4.87,2.44,10.12,4.07,14.11,7.95-1.21.65-2.29.24-3.16-.32-3.69-2.39-7.31-4.9-10.95-7.37-.02-.01,0-.07,0-.26Z"/>
  <path class="cls-1" d="M64.4,41.1c-.93-.82-1.88-1.63-2.79-2.47-1.2-1.11-2.39-2.22-3.55-3.37-.85-.84-1.07-1.89-.73-3.45.98.72,1.97,1.18,2.57,1.95,1.56,1.97,2.96,4.07,4.4,6.14.2.29.24.69.36,1.03-.08.05-.16.11-.24.16Z"/>
  <path class="cls-1" d="M102.31,6.6c1.52.66,1.59,2.08,1.86,3.33.53,2.53,1,5.09,1.42,7.64.17,1.02.16,2.08.16,3.13-1.92-4.51-3.06-9.2-3.44-14.1Z"/>
  <path class="cls-1" d="M182.46,228.8c-.64-.56-1.46-1.01-1.87-1.71-1.45-2.47-2.76-5.02-3.98-7.64,2.15,2.96,5.69,4.97,6.42,8.89-.19.15-.38.31-.57.46Z"/>
  <path class="cls-1" d="M82.85,33.71c-1.05-1.76-2.08-3.52-3.16-5.27-.43-.7-.04-1.04.5-1.3.6-.3,1.25-.45,1.62.32.31.65.3,1.52,1.32,1.59.07,0,.18.33.18.5.02,1.32,0,2.64,0,3.96-.16.07-.31.13-.47.2Z"/>
  <path class="cls-1" d="M236.82,136.43c2.22.1,4.44.2,6.66.32.34.02.74.12,1,.33.44.35.8.82,1.19,1.24-.7.23-1.48.78-2.09.64-1.94-.47-3.81-1.19-5.7-1.82-.38-.12-.76-.25-1.14-.38.03-.11.05-.22.08-.33Z"/>
  <path class="cls-1" d="M31.69,102.91c-1.09,0-2.17.03-3.26,0-.99-.04-1.98-.14-2.97-.22-.12,0-.24.01-.36,0-.84-.15-1.67-.61-1.51-1.45.08-.41,1.27-1.01,1.78-.87,2.16.59,4.26,1.43,6.38,2.18-.02.12-.04.25-.06.37Z"/>
  <path class="cls-1" d="M40.3,133.93c-.87.13-1.74.3-2.62.39-1.73.19-3.46.33-5.19.49-.2.02-.45.05-.58-.05-.47-.34-.91-.74-1.35-1.12.53-.25,1.07-.73,1.59-.71,2.45.07,4.9.28,7.34.46.28.02.55.21.82.32,0,.07,0,.14,0,.21Z"/>
  <path class="cls-1" d="M208.07,58.08c-.02,1.18-1.51,3.12-2.48,3.03-.63-.06-1.37-.58-1.77-1.11-.4-.54-.26-1.24.59-1.56.86-.32,1.69-.74,2.53-1.14,1-.47,1.02.27,1.14.78Z"/>
  <path class="cls-1" d="M6.71,165.13c-.95.5-1.9,1.01-2.86,1.48-.81.4-1.66.71-2.47,1.12-.99.51-1.33-.28-1.38-.86-.04-.51.4-1.46.75-1.52,1.93-.33,3.89-.44,5.84-.63.04.13.08.27.12.4Z"/>
  <path class="cls-1" d="M76.51,211.62c-.9,2.82-2.65,5.14-4.43,7.43-.17-.05-.33-.1-.5-.15.07-.57-.05-1.26.23-1.69,1.31-2,2.74-3.93,4.12-5.89.19.1.39.2.58.31Z"/>
  <path class="cls-1" d="M79.19,23.27c-1.08-1.46-2.2-2.9-3.2-4.42-.15-.22.16-1.06.42-1.15.44-.16,1.35-.12,1.47.13.8,1.66,1.7,3.34,1.62,5.26-.1.06-.2.12-.31.18Z"/>
  <path class="cls-1" d="M99.58,216.94c.09,1.77-.65,3.1-1.64,3.03-.74-.05-1.77-1.2-1.66-1.85.15-.91,1.69-1.48,3.3-1.18Z"/>
  <path class="cls-1" d="M154.04,28.46c.63-2.38,1.29-4.45,3.47-5.6-.36,2.25-1.19,4.22-3.47,5.6Z"/>
  <path class="cls-1" d="M128.68,242.65c.44,1.42.29,2.68-.16,3.9-.06.17-.7.33-.91.21-.36-.2-.88-.72-.81-.95.31-1.12.4-2.42,1.88-3.15Z"/>
</svg>