<?xml version="1.0" encoding="UTF-8"?>
<svg id="Layer_1" data-name="Layer 1" xmlns="http://www.w3.org/2000/svg" viewBox="0 0 317.53 235.63">
  <defs>
    <style>
      .cls-1 {
        fill: #ededed;
        stroke-width: 0px;
      }
    </style>
  </defs>
  <path class="cls-1" d="M246.15,102.22c2.22,3.12,3.63,6.47,4.56,10.05.82,3.12-.95,5.5-4.72,4.69-1.13-.24-2.17-.87-3.28-1.24-.36-.12-.93-.12-1.2.09-1.81,1.43-3.64,2.71-6.04,2.99-2.14.24-4.25.42-6.32-.29-.63-.21-1.06-.15-1.53.36-2.3,2.45-5.21,3.44-8.51,3.48-2.54.03-5.12.09-7.37-1.28-1.01-.62-1.75-.69-2.83-.21-3.9,1.74-7.87,3.33-11.79,5.03-1.95.85-3.95,1.66-5.75,2.78-1.21.75-2.23,1.9-3.13,3.04-4.57,5.77-7.11,12.44-8.29,19.63-.45,2.76-.77,5.6-.69,8.39.15,5.13,1.05,10.2,2.68,15.07,2.14,6.41,4.49,12.74,6.8,19.09,1.37,3.78,2.36,7.62,2.77,11.66.25,2.41-.23,4.5-1.21,6.68,1.66,2.22,3.4,4.47,5.07,6.77,1.56,2.14,1.48,3.81.2,6.11-.96,1.74-2.72,2.43-4.18,3.43-2.07,1.42-4.41,2.45-6.68,3.68-.85-.85-.48-1.89-.31-2.78.55-3.01,1.17-6,1.88-8.97.19-.8-.04-1.23-.53-1.77-1.27-1.41-2.65-2.76-3.63-4.36-.71-1.16-1.23-2.68-1.17-4.01.16-3.62-1.29-6.52-3.45-9.21-2.16-2.69-4.25-5.44-5.36-8.75-.76-2.26-1.25-4.61-1.93-7.16-.54,1.82-1.24,3.52-1.53,5.29-.57,3.5-.98,7.05-3.46,9.82-1.1,1.23-2.38,2.35-3.74,3.29-.96.65-1.55,1.35-1.73,2.47-.68,4.21-1.96,8.22-4.05,11.96-.88,1.57-.29,3.21.11,4.8.5,2.01,1.22,3.98,1.61,6.01.38,1.98.84,4.01-.5,5.94-.6.86-1.42,1.06-2.04.69-3.17-1.93-6.75-3.37-9-6.52-1.18-1.65-1.62-3.41-.64-5.53,1.86-4.05,2.53-8.39,2.58-12.87.03-2.91.56-5.81.88-8.72.25-2.28.44-4.56.76-6.83.46-3.27,1-6.53,1.55-9.79.57-3.37,1.27-6.72,1.78-10.09.57-3.78,1.11-7.58,1.41-11.39.34-4.28.31-8.57-.14-12.87-.41-3.96-1.25-7.74-3.07-11.3-2.82-5.52-7.41-8.85-13.23-10.45-3.17-.87-6.48-1.21-9.74-1.73-3.27-.52-6.42-1.41-9.48-2.72-3.59-1.54-7.29-2.84-10.95-4.23-.23-.09-.62-.05-.82.1-1.8,1.3-3.85,1.71-6,1.8-2.87.11-5.72.02-8.28-1.49-.91-.54-1.73-1.27-2.5-1.99-.45-.42-.81-.51-1.42-.37-4.29,1.02-8.38.86-11.87-2.31-.69-.62-1.3-.77-2.27-.32-1.28.6-2.73.94-4.14,1.18-2.8.47-4.08-2.41-3.49-4.56,1-3.63,2.34-7.09,4.69-10.29-6.88-.24-12.31-3.58-17.66-7.18-5.05-3.4-10.08-6.83-15.62-9.43-2.69-1.26-5.51-1.95-8.44-2.35-5.68-.76-11.33-1.69-16.52-4.3-4.56-2.3-8.22-5.62-10.73-10.1-.57-1.02-.83-2.22-1.25-3.39-1.1.15-1.65-.36-1.02-1.52,1.23-2.23,2.42-4.56,4.1-6.44,6.32-7.1,13.94-12.56,22.5-16.68,8.1-3.9,16.63-6.62,25.43-8.39,4.59-.93,9.21-1.7,13.84-2.38,3.21-.47,6.46-.62,9.68-1.01,9.22-1.1,18.47-.76,27.72-.69,3.5.03,7,.31,10.5.46,4.1.17,8.19.37,12.29.47,5.43.13,10.86.2,16.29.22.64,0,1.31-.4,1.91-.71,2.59-1.33,5.15-2.7,7.72-4.06.06-.03.13-.07-.04.03-2.17-1.4-4.51-2.77-6.7-4.34-3.57-2.57-5.84-6.18-7.57-10.15-.99-2.27-2.05-4.55-1.94-7.13,0-.17-.11-.36-.2-.53-.51-1.01-.32-1.41.75-1.88,2.79-1.22,5.51-.67,8.12.43,6.04,2.54,10.03,7.01,11.94,13.28.93,3.05,1.88,6.1,1.36,9.38-.06.37.43.82.64,1.2,1.24-.42.94-1.25.9-2.01-.17-3.87.94-7.47,2.4-10.98,2.38-5.71,6.64-9.4,12.45-11.37,2.27-.77,4.56-.9,6.79.14.4.19.9.83.86,1.19-.2,1.53-.46,3.08-.93,4.55-1.63,5.07-3.98,9.79-8.16,13.24-2.07,1.71-4.56,2.91-6.87,4.33-.3.18-.62.33-.96.51,3.02,1.23,5.98,2.45,8.44,4.59.29.25.81.32,1.23.32,4.84.02,9.68.08,14.51,0,4.26-.07,8.52-.29,12.78-.47,3.42-.14,6.83-.39,10.25-.46,7.02-.13,14.05-.29,21.07-.21,3.6.04,7.19.57,10.78.91,3.03.29,6.09.46,9.07,1,6.38,1.15,12.76,2.32,19.06,3.85,6.72,1.63,13.23,4.01,19.42,7.15,5.55,2.82,10.78,6.15,15.46,10.28,3.01,2.66,6.02,5.34,8.24,8.74.76,1.18,1.41,2.45,1.96,3.74.48,1.14.02,1.55-1.28,1.28.09,2.19-1.11,3.87-2.28,5.51-4.12,5.83-9.93,9.14-16.75,10.69-3.93.89-7.92,1.51-11.9,2.17-3.51.59-6.66,2.09-9.64,3.89-5.33,3.24-10.56,6.67-15.82,10.03-3.24,2.07-6.73,3.53-10.5,4.29-.93.19-1.89.2-3.03.31ZM238.38,45.87c-.05.14-.14.29-.13.43.12,3.28-1.64,5.4-4.29,6.98-.61.36-1.19.76-1.79,1.14-.36,0-.73-.04-1.09,0-2.22.32-4.41.29-6.55-.47-5.53-1.96-7.97-7.18-4.78-12.48.74-1.23,1.67-2.33,2.7-3.75-1.77-.79-3.49-1.62-5.27-2.3-.63-.24-1.41-.16-2.12-.16-10.1.07-20.21.15-30.31.24-.78,0-1.57.11-2.34.25-.76.13-1.5.36-2.21.53,2.47.54,4.96.95,7.38,1.65,3.15.91,6.25,2.01,9.35,3.09,4.56,1.59,8.97,3.53,13.14,6,5.64,3.34,10.8,7.35,15.83,11.53,6.03,5.01,12.09,9.98,18.11,15.01,3.86,3.23,7.58,6.64,11.53,9.75,2.05,1.62,4.46,2.8,6.74,4.11.38.22,1.13.35,1.39.14,2.24-1.85,4.41-3.79,6.57-5.68-.48-.44-.96-.85-1.42-1.29-2.22-2.13-4.46-4.23-6.63-6.4-3.86-3.86-8.43-6.79-12.95-9.76-.41-.27-1.08-.2-1.63-.16-1.76.13-3.53.49-5.28.42-1.53-.06-2.82-.99-3.8-2.17-.84-1-.72-1.45.36-2.16.34-.22.67-.45,1.07-.72-1.07-.67-2.01-1.23-2.92-1.85-1.64-1.12-3.26-2.28-4.88-3.42,2.6,1.52,5.2,3.06,7.82,4.54.27.16.86.16,1.06-.02,1.03-.93,2.08-1.87,2.95-2.94,2.41-2.95,3.54-6.37,3.32-10.19-.02-.31-.39-.78-.69-.87-1.27-.4-2.58-.66-3.86-1.01-1.71-.48-3.4-1-5.1-1.5,3.2.6,6.4,1.2,9.82,1.85-.59-1.25-1.14-2.43-1.6-3.42.74.14,1.57.22,2.35.47.77.25,1.62.53,2.19,1.06,1.06.98,1.94,2.15,2.9,3.24,1.9,3.17,2.5,6.54,1.6,10.15-.06.24.18.55.29.83-.31.29-.74.51-.91.87-1.26,2.57-2.8,4.89-5.56,6.31,1.11.65,2.09,1.2,3.06,1.78,4.58,2.73,8.9,5.81,12.73,9.55,2.02,1.97,4.16,3.83,6.21,5.78.47.45.75.27,1.18.01,1.45-.86,2.89-1.76,4.4-2.49,1.86-.9,3.79-1.64,5.6-2.41-3.71-3.09-7.48-6.17-11.19-9.31-4.25-3.61-8.77-6.8-13.81-9.23-.59-.28-1.16-.59-1.75-.89.53.14,1.08.22,1.59.42,5.53,2.15,10.3,5.52,14.88,9.2,3.09,2.48,6.13,5.01,9.21,7.5,1.53,1.24,2.97,2.05,5.28,1.53,4.54-1.01,9.22-1.44,14.01-2.13-.77-.95-1.41-1.84-2.16-2.64-2.99-3.16-6.45-5.74-10.23-7.85-5.3-2.96-10.65-5.84-16.05-8.61-4.08-2.09-8.28-3.96-12.43-5.93-1.72-.82-3.44-1.63-5.16-2.45.23.04.47.03.68.11,3.58,1.39,7.25,2.57,10.7,4.22,7.54,3.62,15.04,7.33,22.4,11.3,5.12,2.77,9.87,6.14,13.26,11.07.16.23.65.43.89.36,2.44-.76,4.86-1.58,7.47-2.45-1.08-1.69-1.93-3.17-2.92-4.53-2.29-3.15-4.85-6.06-8.01-8.4-3.6-2.66-7.64-4.39-11.85-5.69-7.82-2.41-15.67-4.71-23.53-6.97-6.09-1.75-12.09-3.91-18.43-4.58-3.2-.34-6.45-.26-9.68-.37-.02.1-.04.21-.06.31.9.81,1.8,1.62,2.7,2.43-.08.18-.26.38-.22.53.27.99.58,1.96.88,2.94l.03-.03ZM79.2,45.85l.03.03c.3-.97.62-1.94.89-2.92.05-.17-.1-.4-.15-.6.88-.79,1.76-1.58,2.83-2.54-2.61,0-4.98-.11-7.33.03-2.23.14-4.51.29-6.65.88-10.38,2.83-20.74,5.74-31.07,8.77-4.35,1.28-8.66,2.77-12.88,4.44-4.97,1.96-8.92,5.41-12.2,9.57-1.62,2.06-3.01,4.29-4.63,6.63,2.61.91,4.89,1.74,7.19,2.48.35.11,1.05-.06,1.24-.33,2.67-3.91,6.3-6.77,10.25-9.2,9.55-5.89,19.62-10.77,29.97-15.07,2.23-.93,4.56-1.62,6.84-2.43-.32.2-.63.43-.97.58-3.83,1.73-7.75,3.26-11.47,5.2-9.91,5.17-20.32,9.48-29.03,16.73-1.71,1.43-3.28,3.02-4.46,4.98,1.87.28,3.63.53,5.38.8,3.39.51,6.77,1.05,10.16,1.54.45.06,1.05,0,1.39-.25,2.47-1.84,4.95-3.67,7.32-5.64,4.64-3.86,9.28-7.72,14.67-10.52,1.9-.99,3.96-1.66,5.94-2.48-.15.11-.29.26-.46.33-3.84,1.67-7.42,3.78-10.72,6.35-2.74,2.13-5.45,4.31-8.14,6.51-2.51,2.07-4.98,4.2-7.51,6.34,3.68,1.21,7.19,2.76,10.39,4.97.16.11.65-.03.85-.21,2.12-1.92,4.17-3.94,6.34-5.81,2.66-2.28,5.35-4.55,8.18-6.62,2.35-1.72,4.92-3.14,7.42-4.7-2.54-1.35-4.11-3.45-5.28-5.95-.22-.46-.72-.79-1.1-1.18.1-.28.34-.59.28-.83-.89-3.61-.3-6.98,1.6-10.15,1.04-1.17,1.92-2.61,3.18-3.45,1.23-.82,2.86-1.02,4.34-1.51-.54,1.17-1.09,2.36-1.67,3.61,3.43-.66,6.63-1.27,9.83-1.89-.33.18-.64.44-1,.53-2.58.67-5.15,1.36-7.75,1.94-.81.18-1.05.54-.97,1.29.1.94.12,1.89.25,2.83.55,4.26,2.95,7.41,6.15,10.05.18.15.66.14.89.01.95-.55,1.84-1.21,2.79-1.76,1.66-.95,3.34-1.85,5.02-2.77-2.52,1.74-5.05,3.47-7.63,5.25.37.25.7.55,1.08.72,1.07.46,1.01,1.26.37,1.87-.9.84-1.89,1.77-3.02,2.14-2.01.67-4.13.41-6.18-.17-.47-.13-1.14-.15-1.52.09-5.64,3.56-11,7.48-15.69,12.26-1.78,1.81-3.51,3.66-5.21,5.44,1.84,1.58,3.9,3.26,5.84,5.07.7.66,1.28.69,1.98.28,2.24-1.32,4.63-2.44,6.64-4.05,4.89-3.92,9.59-8.06,14.36-12.12,3.32-2.83,6.58-5.74,9.97-8.49,4.41-3.58,8.88-7.1,13.4-10.53,4.96-3.77,10.22-7.1,16.07-9.29,5.12-1.93,10.36-3.56,15.58-5.23,1.97-.63,4.03-.98,6.04-1.46-1.19-.24-2.44-.69-3.7-.72-6.51-.15-13.02-.21-19.53-.27-3.68-.03-7.36.12-11.03-.04-3.09-.14-5.64.83-7.71,2.74,1.02,1.58,2.2,3.08,3.01,4.75,1.63,3.4.88,7.11-2.39,9.57-2.47,1.87-5.24,2.63-8.34,2.19-.78-.11-1.6.02-2.4.04-.25-.26-.46-.63-.76-.77-2.42-1.14-4.35-2.74-5.02-5.46-.2-.79-.23-1.61-.34-2.42ZM197.66,78.47c-.14-.06-.32-.07-.42-.17-1.21-1.21-2.41-2.42-3.61-3.64-.09.06-.19.12-.28.19.09,1.37.05,2.76.29,4.1.46,2.58,1.07,5.13,1.63,7.68.04.2.24.37.37.55.58.83,1.28,1.6,1.73,2.5,1.06,2.12.38,4.66,1.61,6.83.33.59-.39,1.96-.91,2.79-.42.67-.26,1.13-.05,1.71,2,5.41,4.49,10.7,4.48,16.43,4.77-.76,9.53-1.52,14.22-2.26-.05-.58-.02-1.19-.16-1.75-.91-3.63-2.15-7.17-4.1-10.35-3.63-5.92-7.5-11.69-11.19-17.57-1.32-2.11-2.41-4.37-3.61-6.56.56.83,1.11,1.66,1.67,2.49,3.69,5.46,7.43,10.89,11.07,16.37,2.82,4.25,5.44,8.62,6.72,13.63.3,1.18.52,2.38.82,3.81,2.22-.79,4.61-1.65,7.05-2.52-1.05-1.6-2-3.14-3.05-4.6-3.53-4.93-6.71-10.05-8.86-15.77-.43-1.16-.55-2.47-1.94-3.29-1.92-1.14-3.61-2.67-5.37-4.07-2.72-2.16-5.43-4.35-8.14-6.53ZM119.91,78.92c-.12.32-.18.68-.36.97-3.46,5.55-6.9,11.12-10.41,16.64-3.71,5.83-7.42,11.65-8.33,18.63,4.8.76,9.55,1.52,14.27,2.27-.5-4.4,3.98-15.55,5.12-17.39-.52,2.03-1.13,4.04-1.7,6.06-.95,3.43-1.91,6.85-2.26,10.44-.14,1.4.32,1.63,1.35,1.93,4.01,1.16,7.96,2.48,11.49,4.79.22.14.5.23.76.26,2.2.25,4.41.47,6.6.74.87.11,1.72.34,2.7.54.24-3.91.59-7.62.67-11.34.23-9.85.32-19.7.52-29.54.06-2.89.19-5.79.49-8.67.37-3.52.84-7.04,1.47-10.52.84-4.66,1.9-9.28,2.79-13.93.16-.85-.01-1.77-.03-2.66-.11,0-.23,0-.34,0-4.72,9.04-10.94,16.97-18.13,24.13-1.34,1.34-2.2,2.39-1.92,4.46.4,3.05-.08,6.11-1.23,9.27.54-.26.84-.4,1.14-.54,3.45-1.67,6.84-1.22,9.63,1.32,2.9,2.63,3.84,6.06,3.4,9.76-.32,2.69-2.25,4.46-4.78,5.38-3.38,1.22-6.52.4-9.44-1.45-1.66-1.05-3.26-2.26-3.66-4.29-.66-3.35-.3-6.53,2.34-9.07.13-.12.23-.31.26-.49.46-2.02.99-4.03,1.34-6.06.32-1.88.44-3.79.65-5.69-.12-.06-.24-.12-.36-.19-1.26,1.27-2.52,2.54-3.78,3.8-.21.08-.46.1-.62.23-3.99,3.18-7.96,6.38-11.97,9.53-1.18.93-2.21,1.76-2.85,3.32-1.51,3.69-3.27,7.3-5.26,10.75-2.06,3.56-4.53,6.89-6.88,10.42,2.47.88,4.88,1.73,7.17,2.54.17-1.15.24-2,.43-2.82,1.11-4.84,3.39-9.17,6.1-13.27,3.38-5.1,6.89-10.11,10.33-15.17,1.13-1.67,2.2-3.4,3.3-5.09ZM161.56,199.12c.13.03.25.05.38.08,1.52-1.79,2.2-3.96,2.6-6.21.57-3.21,1.82-6.06,4.24-8.25.75-.68.87-1.3.8-2.15-.08-.87-.25-1.74-.21-2.6.1-2.18.48-4.37.42-6.54-.1-3.56-.29-7.14-.73-10.68-.56-4.57-1.42-9.11-2.11-13.66-.98-6.47-2.01-12.94-2.83-19.43-.51-3.97-.72-7.97-.99-11.97-.23-3.42-.37-6.84-.48-10.26-.13-4.03-.22-8.07-.24-12.1-.04-6.72-.01-13.43,0-20.15,0-.44.01-.88.05-1.32.3-3.39.67-6.78.89-10.18.18-2.86.17-5.73.26-8.59.1-2.94.96-5.66,2.4-8.2,1.84-3.26,3.67-6.52,5.53-9.77.41-.72.29-1.07-.48-1.43-3.25-1.54-6.56-2.9-10.16-3.38-.49-.06-.95-.35-1.42-.53,0-.18.01-.35.02-.53.93-.16,1.86-.47,2.78-.46,3.9.01,7.57,1.05,11.03,2.81,1.99,1.01,3.97,1.48,6.24,1.18,4.15-.54,8.32-.84,12.49-1.23,1.22-.11,2.45-.17,3.68-.25,4.35-.31,8.7-.69,13.05-.93,2.31-.13,4.65-.15,6.95.02,1.67.12,3.41.39,4.96,1,2.82,1.1,5.8,4.6,4.94,7.81,1.45-.27,2.87-.53,4.62-.85-.45.6-.68,1.2-.99,1.26-1.29.22-2.61.27-3.99.39-.64,2.02-2.16,4.04-1.49,6.57,1.05-.19,1.35-.66,1.24-1.66-.18-1.64.57-2.76,2.09-3.33.93-.35,1.92-.54,3.15-.87-.3,1.12-.44,2.23-.9,3.18-1.04,2.14-3.26,2.65-5.28,3.37.54,1.32,1.38,1.44,2.45.83.75-.43,1.56-.78,2.26-1.27,1.64-1.15,2.73-2.62,2.49-4.78-.05-.44,0-.9,0-1.34.16-.02.32-.03.48-.05.14.62.47,1.27.4,1.87-.43,3.78-3.12,5.38-6.44,6.43.49.29,1.07.7,1.4.55,1.34-.61,2.67-1.3,3.89-2.14,2.3-1.57,1.98-4.09,2.12-6.51.38.23.69.47.77.76.63,2.19.18,4.24-1.42,5.79-1.14,1.1-2.64,1.82-3.82,2.61.57,0,1.41.04,2.24,0,1.9-.11,4.12-1.86,4.68-3.67.7-2.23-.11-4.13-1.47-5.8-1.53-1.89-3.72-2.91-5.84-3.97-1.66-.83-2.35-2.32-1.91-4.06,1.48,0,2.9.04,4.33,0,3.94-.12,7.88-.39,11.82-.39,3.98,0,7.97.23,11.95.42,1.78.09,3.55.33,5.32.51.54.06,1.07.15,1.61.22-3.59-.8-7.19-1.45-10.82-1.91-4.47-.57-8.95-1.07-13.44-1.44-3.53-.29-7.08-.47-10.62-.48-6.31-.02-12.63.17-18.94.19-3.95.01-7.91-.1-11.86-.22-3.74-.11-7.48-.24-11.21-.49-3.33-.23-6.65-.64-9.91-.96.12.16.34.46.67.91-2.49-1.03-4.75-2.08-7.1-2.91-3.44-1.21-6.99-2.16-10.68-1.79-3.04.3-6.05.9-8.9,2.11-2,.85-4.01,1.68-6.21,2.6.33-.46.55-.76.83-1.14-1.98.33-3.83.76-5.69.93-3.4.32-6.8.58-10.21.73-3.71.16-7.43.24-11.14.24-3.15,0-6.31-.19-9.46-.21-9.65-.08-19.31-.08-28.94.72-1.7.14-3.39.31-5.08.52-2.9.36-5.79.74-8.68,1.16-2.6.38-5.18.82-7.77,1.23.38.19.73.21,1.09.18,3.87-.31,7.74-.66,11.61-.93,1.67-.12,3.36-.09,5.03-.08,4.03.01,8.06.05,12.09.08.08,0,.16.02.24.03,1.68.17,3.36.66,5.05.02.22,2.45-.24,3.29-2.32,4.38-.81.42-1.61.85-2.39,1.32-1.81,1.09-3.43,2.38-4.29,4.42-.86,2.05-.67,4.28,1,5.88,1.71,1.64,3.73,1.86,5.99,1.63-.83-.39-1.59-.74-2.35-1.1-3.1-1.47-4.02-5.19-3.23-7.25.11-.3.43-.52.66-.78.29.75.34,1.31.28,1.86-.2,1.8.36,3.35,1.69,4.49.98.83,2.16,1.42,3.27,2.1.81.49,1.56.35,2.27-.39-.26-.11-.46-.23-.68-.29-3.04-.9-5.32-2.56-5.72-5.97-.08-.67-.11-1.51.85-2.1,0,.71.04,1.19,0,1.67-.15,1.63.44,2.99,1.68,3.96.98.77,2.15,1.3,3.21,1.97,1.12.71,1.78.23,2.36-.88-3.37-.93-6.16-2.39-5.99-6.66.46.27.82.67,1.15.65,2.26-.15,4.05,1.44,3.86,3.71-.08,1.01.22,1.44,1.26,1.63.63-2.59-.88-4.62-1.61-6.83-2.95.65-4.41.2-4.46-1.32,1.39.26,2.78.52,4.25.8-.75-2.93.91-4.79,2.71-6.46,2.02-1.88,4.61-2.38,7.27-2.38,3.27,0,6.54.13,9.8.23,1.99.06,3.97.14,5.96.24,1.11.05,2.21.15,3.32.24,3.66.31,7.33.61,10.99.96,1.92.18,3.83.48,5.75.66,1.71.16,3.37.39,5.07-.46,3.79-1.89,7.71-3.5,12.07-3.39,1.08.03,2.27-.24,3.26.93-.63.22-1.08.48-1.56.54-3.52.47-6.75,1.79-9.95,3.27-1.03.47-1.06.92-.57,1.77,1.35,2.36,2.53,4.83,4.03,7.09,2.88,4.34,4.13,9.07,4.04,14.22-.03,1.88-.09,3.76.03,5.63.24,3.68.88,7.34.87,11.01-.03,11.82-.25,23.64-.45,35.46-.05,2.74-.35,5.47-.43,8.21-.03,1.12,0,2.35.4,3.37,1.78,4.45,3.68,8.85,5.6,13.24,3.97,9.06,5.67,18.62,6.18,28.42.08,1.46-.06,2.94-.23,4.39-.33,2.73-.63,5.47-1.17,8.16-.63,3.19-1.58,6.31-2.24,9.49-.39,1.92-.52,3.9-.7,5.86-.22,2.39-.37,4.78-.56,7.18ZM191.56,219.44c.12-.11.25-.22.37-.33-.21-.45-.44-.89-.64-1.34-1.33-3.11-2.73-6.18-2.78-9.67-.02-1.57-.36-3.13-.6-4.69-.65-4.18-2.31-8.05-3.77-11.99-3.41-9.24-7.18-18.36-8.12-28.33-.44-4.66-.4-9.25.67-13.81.67-2.86,1.77-5.63,1.55-8.67-.22-2.89-.31-5.79-.5-8.68-.21-3.28-.52-6.55-.7-9.83-.21-3.81-.4-7.63-.48-11.45-.13-6.9-.14-13.81-.27-20.71-.07-3.66-.22-7.31-.49-10.96-.29-3.97-.67-7.94-1.19-11.89-.75-5.75-1.65-11.47-2.5-17.33-.57,1.35-1,2.65-1.63,3.85-2.89,5.46-4.08,11.36-4.47,17.44-.22,3.34-.26,6.7-.25,10.06.02,5.75.14,11.5.22,17.25.08,5.19.14,10.38.25,15.57.04,1.79.13,3.58.26,5.37.28,3.71.62,7.42.93,11.13.17,2.09.25,4.2.51,6.28.4,3.13.93,6.23,1.41,9.35.65,4.24,1.39,8.46,1.91,12.71.59,4.78,1.03,9.58,1.42,14.39.13,1.57-.06,3.18-.23,4.76-.17,1.6-.37,3.22-.82,4.74-.27.91-.23,1.61.09,2.46,1.66,4.29,4.67,7.65,7.44,11.2,1.86,2.38,3.89,4.74,4.61,7.75.43,1.82.21,3.79.5,5.66.19,1.24.45,2.68,1.21,3.58,1.86,2.18,4.03,4.1,6.08,6.13ZM145.5,49.76c-.38,2.58-.73,5.03-1.11,7.48-.38,2.44-.8,4.88-1.17,7.32-.35,2.33-.72,4.67-.96,7.02-.31,2.95-.55,5.91-.72,8.88-.22,3.97-.42,7.95-.48,11.93-.13,8.55-.15,17.09-.28,25.64-.02,1.69-.26,3.39-.46,5.08-.21,1.82-.11,2.04,1.56,2.7.48.19.95.39,1.42.59,9.63,4.14,14.11,11.8,14.47,21.49.2,5.32-.23,10.66-.43,15.99-.07,1.73-.27,3.47-.49,5.19-.35,2.69-.75,5.37-1.18,8.05-.49,3.06-1.04,6.12-1.56,9.18-.44,2.63-.94,5.25-1.3,7.9-.4,2.97-.64,5.96-1,8.93-.45,3.83-.98,7.66-1.41,11.5-.41,3.63-1.08,7.15-3.28,10.21-.17.23-.27.74-.13.92.86,1.12,1.68,2.31,2.73,3.24,1.23,1.09,2.68,1.94,4.03,2.89.35.25.72.48,1.3.88-.77-3.39-1.47-6.49-2.16-9.59-.62-2.79-.45-5.41,1.12-7.97,1.22-1.99,2.17-4.19,3-6.38.85-2.26.98-4.77,2.36-6.86.12-.18.02-.51,0-.77-.27-2.43-.64-4.86-.79-7.3-.1-1.58.01-3.19.23-4.75.43-3.07.8-6.18,1.57-9.17,1.41-5.5,2.5-11.03,2.23-16.73-.14-2.97-.3-5.95-.74-8.88-.55-3.69-1-7.46-2.21-10.96-2.26-6.56-5.05-12.95-7.59-19.42-.31-.8-.66-1.64-.69-2.48-.09-2.53-.06-5.07-.03-7.61.05-3.15.18-6.31.22-9.46.1-6.83.25-13.66.22-20.5-.02-4.78-.28-9.56-.46-14.34-.13-3.56-.7-7.06-1.94-10.4-1.17-3.15-2.57-6.21-3.91-9.43ZM80.86,96.95c1.53-.32,3.12-.48,4.57-1.01,1.69-.61,3.21-1.65,4.88-2.32,7.33-2.96,13.55-7.66,19.63-12.55,4.03-3.24,7.9-6.67,11.8-10.06,4.84-4.2,9.1-8.96,13.25-13.81,2.99-3.5,5.87-7.09,8.78-10.65.22-.27.42-.74.35-1.05-.66-2.77-1.37-5.53-2.06-8.24-.55-.09-1.14-.37-1.61-.24-2.71.72-5.5,1.3-8.07,2.39-6.02,2.56-11.2,6.43-15.77,11.09-3.33,3.39-6.61,6.83-9.83,10.32-2.16,2.34-4.17,4.81-6.25,7.22-2.99,3.46-5.96,6.94-8.99,10.37-1.98,2.24-4.07,4.39-6.06,6.62-3.32,3.71-6.87,7.16-10.99,9.99-1.47,1.01-2.98,1.97-4.47,2.95,2.08.12,4.29.44,6.12-.25,2.92-1.09,5.86-2.5,8.29-4.41,4.11-3.24,7.98-6.82,11.69-10.53,7.54-7.54,14.91-15.26,22.36-22.89,1.81-1.86,3.63-3.72,5.52-5.5,1.38-1.31,2.8-2.61,4.35-3.71,3.31-2.36,6.69-4.61,10.08-6.85,1.27-.84,2.64-1.53,3.96-2.29-.28.53-.67.89-1.11,1.17-8.35,5.23-15.86,11.47-22.59,18.66-3.08,3.29-6.15,6.61-9.34,9.8-6.49,6.5-13.06,12.94-19.61,19.38-2.61,2.57-5.54,4.7-8.86,6.43ZM175.52,37.18c-.66,2.77-1.32,5.43-1.92,8.1-.08.37-.07.9.14,1.16,1.94,2.41,3.92,4.79,5.92,7.15,2.58,3.03,5.09,6.12,7.81,9.01,3.23,3.42,6.55,6.79,10.03,9.95,3.62,3.28,7.37,6.44,11.27,9.37,4.23,3.18,8.6,6.2,13.08,9.01,2.93,1.83,6.11,3.3,9.29,4.67,1.73.74,3.69.94,5.55,1.38-4.07-1.99-7.4-4.89-10.53-7.97-6.69-6.59-13.23-13.33-19.83-20.01-4.49-4.55-8.92-9.16-13.47-13.66-1.95-1.93-4-3.77-6.2-5.41-3.4-2.54-6.97-4.87-10.46-7.3-.4-.28-.75-.63-1.13-.95,1.32.51,2.49,1.2,3.66,1.88,6.16,3.57,11.92,7.67,16.88,12.82,4.66,4.83,9.29,9.68,14,14.46,5.47,5.55,11,11.05,16.53,16.53,2.93,2.9,6,5.65,9.63,7.68,3.65,2.05,7.39,3.73,11.79,2.89-.13-.11-.26-.24-.41-.35-.12-.09-.26-.16-.4-.24-3.77-2.12-7.2-4.72-10.22-7.79-3.36-3.41-6.6-6.94-9.81-10.5-3.6-3.99-7.1-8.07-10.66-12.09-4.07-4.59-8.1-9.22-12.28-13.7-5.3-5.67-11.13-10.68-18.35-13.8-3.15-1.36-6.33-2.7-9.93-2.31ZM172.76,47.83c-.17.7-.44,1.18-.36,1.6.81,4.59,1.69,9.17,2.51,13.75.65,3.59,1.41,7.18,1.83,10.8.44,3.85.62,7.74.74,11.62.17,5.5.2,11.01.26,16.51.04,3.72-.02,7.43.02,11.15.02,1.99.11,3.98.24,5.96.29,4.42.63,8.84.94,13.27.11,1.49.19,2.98.3,4.76.2-.67.31-1.07.43-1.47,2.07-6.66,5.98-11.78,12.53-14.54,2.74-1.16,5.62-1.99,8.42-3.01.33-.12.84-.51.82-.74-.12-1.44-.26-2.9-.59-4.3-.69-2.97-1.38-5.95-2.3-8.84-.58-1.81-.51-3.98-2.43-5.28-1.85,1.46-3.87,2.62-6.28,3.21-4.31,1.05-10.18-2-9.89-7.06.19-3.25.97-5.99,3.22-8.21,1.96-1.93,4.34-3.03,7.2-2.32,1.22.3,2.41.72,3.66,1.1-.02-.13-.02-.25-.05-.35-1.17-3.11-1.23-6.35-1.08-9.59.04-.86.3-1.51-.49-2.32-3.33-3.43-6.68-6.85-9.72-10.52-3.8-4.59-7.16-9.53-9.93-15.15ZM191.27,39.44l-.17.24c.12.1.23.22.37.28,5.65,2.75,10.41,6.69,14.86,11.05,2.28,2.23,4.5,4.54,6.65,6.89,2.47,2.7,4.85,5.48,7.27,8.24,2.7,3.08,5.38,6.19,8.1,9.25,1.96,2.21,3.9,4.44,5.99,6.52,3.24,3.23,6.5,6.46,9.94,9.46,2.32,2.03,4.98,3.67,7.65,5.59,3.55-2.67,7.11-5.36,10.81-8.14-1.42-.71-2.54-1.2-3.59-1.79-4.69-2.62-8.67-6.19-12.73-9.65-3.66-3.12-7.22-6.34-10.9-9.43-4.85-4.07-9.78-8.05-14.67-12.07-5.84-4.78-11.99-9.1-18.93-12.15-3.5-1.54-7.09-2.88-10.64-4.31ZM65.65,96.95c.72-.56,1.21-1.04,1.78-1.38,4.12-2.43,7.79-5.42,11.14-8.8,3.17-3.2,6.25-6.51,9.33-9.8,1.5-1.6,2.93-3.26,4.37-4.91,2.4-2.76,4.77-5.55,7.18-8.3,2.26-2.57,4.57-5.11,6.86-7.65,4.17-4.61,8.6-8.94,13.73-12.48,2.06-1.43,4.24-2.69,6.36-4.03-4.38,1.56-8.76,3.14-12.94,5.17-7.93,3.85-14.76,9.35-21.5,14.95-3.35,2.79-6.72,5.54-10.05,8.36-4,3.39-7.92,6.86-11.93,10.23-2.69,2.26-5.4,4.51-8.25,6.57-2.05,1.48-4.33,2.64-6.73,4.08,3.56,2.67,7.14,5.35,10.63,7.98ZM7.32,69.48c.1-.2.22-.49.38-.75,2.75-4.63,6-8.83,10.34-12.11,3.69-2.79,7.85-4.68,12.24-5.98,10.52-3.12,21.07-6.12,31.62-9.14,5.02-1.44,10.09-2.58,15.36-2.38,1.34.05,2.68.22,3.99.47,1.76.33,3.08-.87,4.63-1.16,1.9-.36,3.34-1.11,3.99-3.01.02-.07.03-.15.03-.17-3.72.33-7.45.69-11.19.97-2.97.22-5.95.31-8.92.5-2.06.13-4.11.31-6.16.52-2.51.27-5.01.6-7.52.91-2.19.27-4.39.52-6.58.8-2.89.37-5.79.74-8.68,1.13-1.63.22-3.35.23-4.88.75-4.7,1.62-9.08,3.95-13.37,6.47-7.69,4.52-13.89,10.72-19.83,17.23-.2.22-.34.78-.21.99,1.14,1.81,2.29,3.65,4.75,3.98ZM310.3,69.49c2.07-.32,3.21-1.76,4.32-3.28.63-.85.65-1.44-.21-2.17-.88-.74-1.58-1.69-2.41-2.5-2.79-2.74-5.39-5.72-8.45-8.11-3.79-2.96-7.85-5.62-12-8.05-4.44-2.59-9.04-4.92-14.35-5.36-4.17-.35-8.31-.93-12.47-1.43-4.51-.54-9-1.2-13.52-1.64-4.58-.44-9.18-.67-13.76-.99-3.26-.23-6.52-.46-9.74-.68.34.62.71,1.36,1.15,2.05.16.25.5.44.79.54,1.26.43,2.54.83,3.82,1.21.63.19,1.28.48,1.91.45,1.46-.06,2.9-.37,4.36-.43,4.38-.2,8.67.45,12.89,1.58,5.07,1.36,10.15,2.69,15.18,4.18,7.63,2.25,15.27,4.49,22.82,6.99,4.81,1.6,9.09,4.25,12.6,8,2.76,2.94,5.23,6.1,7.07,9.63ZM179.31,141.29c1.77-5.14,5.85-8.64,9.03-12.74,1.35-1.74,3.44-3.07,5.45-4.09,4.71-2.37,9.7-4.05,14.91-5,1.19-.21,2.47-.64,3.58-.4,2.55.55,5.09.81,7.66.59,1.95-.17,3.74-.71,4.96-2.55.94-1.41,2.93-2.48,5.22-1.62,3.14,1.17,6.28.95,9.04-1.29.52-.42,1.07-.92,1.69-1.07.82-.19,1.75-.21,2.57-.04.9.19,1.72.8,2.62,1.03,1.51.38,2.08-.24,1.85-1.76-1.07-.12-2.21-.04-3.17-.4-2.68-1.02-5.09-.87-7.6.66-1.82,1.11-4,1.62-6.17,1.28-2.78-.44-5.4-.18-8,.93-1.76.75-3.62,1.35-5.5,1.71-2.28.43-4.65.43-6.94.8-4.81.78-9.49,2.08-14.09,3.69-3.53,1.24-6.87,2.8-9.73,5.25-2.74,2.34-4.46,5.39-5.79,8.67-.82,2.02-1.74,4.03-1.57,6.35ZM93.73,96.91c-.27.02-.4,0-.5.04-2.76,1.17-5.3,2.78-8.49,3.02-2.87.21-5.68,1.51-8.54,1.61-2.74.09-3.83,1.36-4.59,3.63-.67,1.99-1.57,3.9-2.45,6.06,3.04-.57,5.84-1.1,8.62-1.62,1.89-2.91,3.86-5.93,5.82-8.94.13.08.26.16.38.24-1.81,3.11-3.62,6.22-5.47,9.41,1.52.68,3.01,1.35,4.31,1.93,2.94-5.76,7.84-9.88,10.91-15.37ZM248.13,111.28c.08-.1.16-.19.24-.29-1.22-2.84-2.43-5.7-3.7-8.52-.12-.26-.57-.46-.9-.51-2.18-.35-4.37-.59-6.54-.98-1.74-.31-3.42-.95-5.17-1.15-1.69-.19-3.22-.64-4.7-1.43-1.09-.59-2.24-1.06-3.53-1.66.13.42.14.62.24.76,2.33,3.07,4.65,6.15,7.01,9.2,1.34,1.73,2.9,3.31,3.45,5.71,1.57-.72,3.07-1.41,4.53-2.07-1.85-3.19-3.67-6.31-5.48-9.43.41.1.69.28.85.53,1.44,2.2,2.87,4.4,4.27,6.62.66,1.05,1.11,2.33,2.78,1.81.17-.05.38.06.57.1,2.02.44,4.04.87,6.06,1.31ZM91.95,112.39c1.62-2.48,3.1-4.92,4.76-7.23,3.26-4.57,5.97-9.42,8-14.6-3.28,1.89-6.56,3.76-9.82,5.67-.34.2-.56.64-.8,1-2.28,3.38-4.52,6.79-6.84,10.14-1.19,1.71-2.52,3.33-3.82,5.02h8.52ZM212.71,90.44c1.2,2.53,2.22,4.99,3.5,7.3,1.31,2.36,2.85,4.59,4.32,6.86,1.68,2.59,3.38,5.16,5.11,7.79h8.48c-.71-.97-1.37-1.84-2-2.73-2.56-3.58-5.11-7.17-7.67-10.75-.65-.91-1.09-2.13-1.96-2.69-3.12-2.01-6.38-3.8-9.8-5.79ZM69.64,112.51c-.07,1.47.47,1.97,1.99,1.61.53-.13,1.1-.28,1.54-.58,1.84-1.27,3.44-.85,5.03.49,2.81,2.36,6,2.55,9.36,1.47,2.15-.69,3.95-.14,5.26,1.75.71,1.03,1.6,1.8,2.85,1.97,1.52.22,3.06.29,4.58.49,2.53.33,4.9-1.27,7.56-.35,2.57.89,5.34,1.21,8.01,1.86,1.02.25,1.95.88,2.98,1.05,2.44.41,4.91.66,7.63,1.01-.42-.26-.59-.41-.79-.49-2.2-.84-4.38-1.72-6.61-2.5-4.54-1.59-9.2-2.81-13.98-3.2-3.54-.29-6.98-.76-10.22-2.23-2.64-1.2-5.37-1.5-8.23-.99-.84.15-1.79.12-2.6-.13-1.86-.59-3.65-1.43-5.51-2.05-.85-.28-1.82-.5-2.69-.38-2.05.28-4.08.77-6.16,1.18ZM154.15,21.62c-5-6.96-10.62-12.96-16.98-18.54,2.45.86,4.2,2.45,5.98,3.97,1.81,1.56,3.62,3.13,5.3,4.84,1.7,1.73,3.33,3.54,4.81,5.46,1.4,1.81,2.56,3.81,3.78,5.65-.04-.16-.09-.42-.16-.67-1.72-5.91-4.02-11.48-9.07-15.45-3.23-2.54-7-3.48-11.07-4.08,3.75,8.18,8.4,15.32,17.41,18.82ZM163.52,21.53c6.67-2,15.45-11.62,17.17-18.73-.65.11-1.26.21-1.88.32-3.78.65-7.27,2-10.13,4.63-4.52,4.17-6.63,9.63-8.13,15.41,2.12-4.32,5.14-7.96,8.56-11.27,4.22-4.08,9.5-8.81,11.08-8.63-6.16,5.43-11.79,11.4-16.68,18.26ZM153.22,58.48s.1,0,.15,0c-.11-1.1-.12-2.22-.36-3.28-.46-2.05-.8-4.18-1.63-6.08-1.88-4.29-4.71-8.15-5.96-12.81-.9.26-1.74.5-2.64.76,3.47,7.13,6.96,14.27,10.44,21.41ZM164.32,58.38c1.75-3.48,3.57-6.99,5.3-10.54,1.75-3.59,3.42-7.22,5.11-10.79-.83-.24-1.67-.48-2.55-.73-.15.47-.24.89-.42,1.27-1.36,2.87-2.59,5.81-4.13,8.58-2.16,3.86-3.42,7.9-3.31,12.21ZM185.53,90.18c-.26.03-.54.03-.79.1-2.07.63-2.88,2.3-3.37,4.2-.1.39-.23.91-.06,1.22.51.92.99,2,1.8,2.59,1.13.83,2.53,1.27,3.82,1.88,3.04-1.19,5.98-2.56,8.13-5.13,1.27-1.52,1.18-2.41.02-3.58-.5,1.11-.9,2.38-1.59,3.46-1.9,2.96-7.81,2.31-9.58.57-1.02-1-1.19-1.85-.37-3.02.55-.79,1.27-1.47,2-2.3ZM122.75,91.16c-1.37,1.62-1.41,1.84-.45,3.43.3.5.68.97,1.11,1.37,2.03,1.88,4.43,3.14,7.01,4.08.24.09.53.12.77.07,1.78-.38,3.2-1.34,4.24-2.81.44-.62,1.01-1.43.92-2.06-.18-1.17-.67-2.34-1.27-3.37-.62-1.06-1.68-1.67-2.99-1.65.68.76,1.4,1.44,1.96,2.22.87,1.23.74,2.13-.39,3.1-1.37,1.17-3.03,1.27-4.76,1.41-3.8.31-6.03-2.85-6.13-5.78ZM285.01,76.47c1.5,1.13,2.46,2.45,4.32,1.98,1.1-.28,2.27-.28,3.39-.51,3.07-.64,6.14-1.33,9.21-2-.56-1.41-1.23-1.78-2.5-1.39-1.19.37-2.49.37-3.74.53-3.45.45-6.91.91-10.68,1.4ZM32.42,76.52c-2.29-.34-4.41-.66-6.53-.97-2.26-.32-4.54-.59-6.79-.95-2.44-.39-2.43-.42-3.34,1.13.82.26,1.62.59,2.46.76,3.04.61,6.13,1.03,9.13,1.8,2.13.54,3.57-.22,5.08-1.78ZM123.36,90.44c.16.45.3.81.42,1.18,1.57,4.67,5.58,4.68,8.83,3.48.76-.28,1.5-.82,1-1.88-.79-1.67-2.05-3.07-3.73-3.56-2.14-.63-4.43-.57-6.52.78ZM194.45,90.61c-3.76-2.15-7.95-1.66-10.22,2.09-.45.74-.63,1.41.13,2.05,1.69,1.43,6.15,1.38,7.62-.27.99-1.11,1.64-2.53,2.47-3.87ZM243.02,61.05c2.18.68,5.02-.39,7.18-2.91,2.89-3.38,3.41-7.18,1.43-11,.46,6.79-3.07,10.99-8.61,13.91ZM74.79,61.17c-2.77-1.54-5.11-3.14-6.75-5.66-1.65-2.54-2.35-5.26-2.03-8.53-1.97,3.91-1.44,7.99,1.32,11.1,1.91,2.15,4.2,3.49,7.46,3.09ZM45.13,82.22c-2.89-2.08-6.05-3.5-9.3-4.7-1.79-.66-2.97-.28-4.36,1.31.48.07.94.12,1.4.2,3.54.59,6.81,1.92,9.91,3.68.91.52,1.65.52,2.35-.49ZM272.54,82.16l-.09.44c.6.13,1.35.55,1.77.33,3.77-1.98,7.63-3.66,12.22-4.13-.82-.51-1.44-.79-1.91-1.22-.66-.61-1.34-.55-2.06-.3-3.51,1.22-6.88,2.72-9.93,4.88ZM73.68,59.65c-4.59-4.91-6.17-10.54-4.12-17.28-2.15,1.33-2.43,3.46-2.58,5.38-.45,5.41,2.64,8.98,6.7,11.9ZM248.07,42.49c2.01,6.65.41,12.28-4.18,17.22.96-.68,1.9-1.35,2.69-2.16,3.01-3.1,4.9-6.64,3.82-11.11-.35-1.45-.47-3.2-2.32-3.95ZM187.91,220.42c-.15,0-.3-.02-.45-.02-.36,2.44-.72,4.88-1.1,7.49,1.51-.78,2.89-1.43,4.22-2.18,1.41-.8,1.51-1.65.31-2.79-.94-.89-1.98-1.67-2.98-2.5ZM52.55,88.63l.24-.41c-1.87-1.51-3.8-2.95-5.59-4.54-.95-.85-1.57-.67-2.3.15,2.58,1.62,5.12,3.21,7.65,4.8ZM272.67,83.83c-.77-.95-1.45-.95-2.3-.14-.89.84-1.93,1.51-2.88,2.29-.91.75-1.79,1.55-2.68,2.33.08.11.15.21.23.32,2.54-1.59,5.07-3.19,7.63-4.79ZM302.38,75.69c2.27-1.27,4.41-2.47,6.55-3.66l-.12-.22c-2.23.79-4.46,1.59-6.72,2.39.08.4.16.81.29,1.49ZM15.52,74.21c-2.31-.82-4.54-1.62-6.76-2.41-.04.08-.08.15-.12.23,2.17,1.2,4.33,2.41,6.56,3.64.13-.61.22-1.02.32-1.46ZM229.05,44.02c-2.76.74-3.73,1.77-3.43,3.64,1.56-.79,2.91-1.75,3.43-3.64ZM92.06,47.71c.09-2.03-.86-2.99-3.5-3.67.46,1.87,1.85,2.82,3.5,3.67ZM126.43,99.74c-2.37-1.4-4.41-2.85-5.02-5.81-1.08,2.74,2.12,5.33,5.02,5.81ZM196.25,94.19c-.68,2.7-2.71,4.15-5.13,5.58,3.07-.63,5.98-2.98,5.13-5.58Z"/>
  <path class="cls-1" d="M79.2,45.85c-2.69,1.49-5.38,2.98-8.07,4.47-.06-.1-.13-.19-.19-.29.71-.46,1.39-.97,2.14-1.37,1.8-.96,3.63-1.87,5.46-2.78.19-.09.46,0,.7,0,0,0-.03-.03-.03-.03Z"/>
  <path class="cls-1" d="M238.34,45.89c.27,0,.58-.07.8.04,2.43,1.28,4.84,2.59,7.26,3.9.09.05.13.18.06.49-2.69-1.49-5.39-2.97-8.08-4.45,0,0-.04.03-.04.03Z"/>
  <path class="cls-1" d="M132.74,93.55c-1.61,0-3.24.12-4.84-.04-1.16-.11-2.44-1.41-2.17-2.01.5-1.14,1.65-.88,2.57-.8,1.85.15,3.2,1.27,4.44,2.86ZM132.15,93.06c-1.71-1.37-3.38-1.97-5.56-1.59,1.67,1.49,3.48,1.57,5.56,1.59Z"/>
  <path class="cls-1" d="M184.76,93.23c1.6-1.52,3.21-2.75,5.43-2.54.58.05,1.12.41,1.68.62-.3.53-.48,1.17-.91,1.56-1.1,1.02-2.53,1-3.91.88-.73-.07-1.45-.32-2.3-.52ZM191.02,91.45c-2.21-.34-3.89.24-5.61,1.65,2.1-.12,3.94-.1,5.61-1.65Z"/>
</svg>